%TF.GenerationSoftware,KiCad,Pcbnew,8.0.5*%
%TF.CreationDate,2024-10-12T21:51:39-07:00*%
%TF.ProjectId,STM32_Nixie,53544d33-325f-44e6-9978-69652e6b6963,rev?*%
%TF.SameCoordinates,Original*%
%TF.FileFunction,Drillmap*%
%TF.FilePolarity,Positive*%
%FSLAX45Y45*%
G04 Gerber Fmt 4.5, Leading zero omitted, Abs format (unit mm)*
G04 Created by KiCad (PCBNEW 8.0.5) date 2024-10-12 21:51:39*
%MOMM*%
%LPD*%
G01*
G04 APERTURE LIST*
%ADD10C,0.100000*%
%ADD11C,0.200000*%
%ADD12C,0.117000*%
%ADD13C,0.135000*%
%ADD14C,0.150000*%
%ADD15C,0.210000*%
%ADD16C,0.320000*%
G04 APERTURE END LIST*
D10*
X7970000Y-6150000D02*
X22430000Y-6150000D01*
X7500000Y-6620000D02*
G75*
G02*
X7970000Y-6150000I470000J0D01*
G01*
X22900000Y-6620000D02*
X22900000Y-11380000D01*
X7970000Y-11850000D02*
G75*
G02*
X7500000Y-11380000I0J470000D01*
G01*
X7500000Y-11380000D02*
X7500000Y-6620000D01*
X22900000Y-11380000D02*
G75*
G02*
X22430000Y-11850000I-470000J0D01*
G01*
X22430000Y-6150000D02*
G75*
G02*
X22900000Y-6620000I0J-470000D01*
G01*
X22430000Y-11850000D02*
X7970000Y-11850000D01*
D11*
D10*
X7868000Y-9851000D02*
X7898000Y-9881000D01*
X7898000Y-9851000D02*
X7868000Y-9881000D01*
X7985000Y-10215000D02*
X8015000Y-10245000D01*
X8015000Y-10215000D02*
X7985000Y-10245000D01*
X7985000Y-10615000D02*
X8015000Y-10645000D01*
X8015000Y-10615000D02*
X7985000Y-10645000D01*
X8705000Y-9902000D02*
X8735000Y-9932000D01*
X8735000Y-9902000D02*
X8705000Y-9932000D01*
X8734000Y-10098000D02*
X8764000Y-10128000D01*
X8764000Y-10098000D02*
X8734000Y-10128000D01*
X9785000Y-8415000D02*
X9815000Y-8445000D01*
X9815000Y-8415000D02*
X9785000Y-8445000D01*
X10657000Y-10076000D02*
X10687000Y-10106000D01*
X10687000Y-10076000D02*
X10657000Y-10106000D01*
X10866000Y-9803000D02*
X10896000Y-9833000D01*
X10896000Y-9803000D02*
X10866000Y-9833000D01*
X10877000Y-9968000D02*
X10907000Y-9998000D01*
X10907000Y-9968000D02*
X10877000Y-9998000D01*
X11060000Y-11558000D02*
X11090000Y-11588000D01*
X11090000Y-11558000D02*
X11060000Y-11588000D01*
X11095000Y-11175000D02*
X11125000Y-11205000D01*
X11125000Y-11175000D02*
X11095000Y-11205000D01*
X11095000Y-11435000D02*
X11125000Y-11465000D01*
X11125000Y-11435000D02*
X11095000Y-11465000D01*
X11102000Y-11048000D02*
X11132000Y-11078000D01*
X11132000Y-11048000D02*
X11102000Y-11078000D01*
X11110000Y-10920000D02*
X11140000Y-10950000D01*
X11140000Y-10920000D02*
X11110000Y-10950000D01*
X11259000Y-10119000D02*
X11289000Y-10149000D01*
X11289000Y-10119000D02*
X11259000Y-10149000D01*
X11525000Y-11177000D02*
X11555000Y-11207000D01*
X11555000Y-11177000D02*
X11525000Y-11207000D01*
X11529000Y-11050000D02*
X11559000Y-11080000D01*
X11559000Y-11050000D02*
X11529000Y-11080000D01*
X11529500Y-10892000D02*
X11559500Y-10922000D01*
X11559500Y-10892000D02*
X11529500Y-10922000D01*
X11705000Y-10335000D02*
X11735000Y-10365000D01*
X11735000Y-10335000D02*
X11705000Y-10365000D01*
X11718000Y-10502000D02*
X11748000Y-10532000D01*
X11748000Y-10502000D02*
X11718000Y-10532000D01*
X11745000Y-9855000D02*
X11775000Y-9885000D01*
X11775000Y-9855000D02*
X11745000Y-9885000D01*
X11860000Y-9620000D02*
X11890000Y-9650000D01*
X11890000Y-9620000D02*
X11860000Y-9650000D01*
X11894000Y-10421000D02*
X11924000Y-10451000D01*
X11924000Y-10421000D02*
X11894000Y-10451000D01*
X11948000Y-11552000D02*
X11978000Y-11582000D01*
X11978000Y-11552000D02*
X11948000Y-11582000D01*
X11954000Y-10748000D02*
X11984000Y-10778000D01*
X11984000Y-10748000D02*
X11954000Y-10778000D01*
X11985000Y-9745000D02*
X12015000Y-9775000D01*
X12015000Y-9745000D02*
X11985000Y-9775000D01*
X11992500Y-9327500D02*
X12022500Y-9357500D01*
X12022500Y-9327500D02*
X11992500Y-9357500D01*
X12015000Y-10457500D02*
X12045000Y-10487500D01*
X12045000Y-10457500D02*
X12015000Y-10487500D01*
X12062000Y-11433000D02*
X12092000Y-11463000D01*
X12092000Y-11433000D02*
X12062000Y-11463000D01*
X12114000Y-8539000D02*
X12144000Y-8569000D01*
X12144000Y-8539000D02*
X12114000Y-8569000D01*
X12165000Y-10827500D02*
X12195000Y-10857500D01*
X12195000Y-10827500D02*
X12165000Y-10857500D01*
X12167500Y-9705000D02*
X12197500Y-9735000D01*
X12197500Y-9705000D02*
X12167500Y-9735000D01*
X12172500Y-9357500D02*
X12202500Y-9387500D01*
X12202500Y-9357500D02*
X12172500Y-9387500D01*
X12285000Y-11425000D02*
X12315000Y-11455000D01*
X12315000Y-11425000D02*
X12285000Y-11455000D01*
X12291000Y-10345000D02*
X12321000Y-10375000D01*
X12321000Y-10345000D02*
X12291000Y-10375000D01*
X12301000Y-9875000D02*
X12331000Y-9905000D01*
X12331000Y-9875000D02*
X12301000Y-9905000D01*
X12320000Y-10014147D02*
X12350000Y-10044147D01*
X12350000Y-10014147D02*
X12320000Y-10044147D01*
X12336000Y-10157000D02*
X12366000Y-10187000D01*
X12366000Y-10157000D02*
X12336000Y-10187000D01*
X12385000Y-9225000D02*
X12415000Y-9255000D01*
X12415000Y-9225000D02*
X12385000Y-9255000D01*
X12385000Y-9387500D02*
X12415000Y-9417500D01*
X12415000Y-9387500D02*
X12385000Y-9417500D01*
X12400000Y-9776000D02*
X12430000Y-9806000D01*
X12430000Y-9776000D02*
X12400000Y-9806000D01*
X12407000Y-10276000D02*
X12437000Y-10306000D01*
X12437000Y-10276000D02*
X12407000Y-10306000D01*
X12460000Y-9908000D02*
X12490000Y-9938000D01*
X12490000Y-9908000D02*
X12460000Y-9938000D01*
X12522000Y-10073000D02*
X12552000Y-10103000D01*
X12552000Y-10073000D02*
X12522000Y-10103000D01*
X12529000Y-10217000D02*
X12559000Y-10247000D01*
X12559000Y-10217000D02*
X12529000Y-10247000D01*
X12599000Y-10340000D02*
X12629000Y-10370000D01*
X12629000Y-10340000D02*
X12599000Y-10370000D01*
X12606000Y-9906000D02*
X12636000Y-9936000D01*
X12636000Y-9906000D02*
X12606000Y-9936000D01*
X12635000Y-9485000D02*
X12665000Y-9515000D01*
X12665000Y-9485000D02*
X12635000Y-9515000D01*
X12668898Y-10036183D02*
X12698898Y-10066183D01*
X12698898Y-10036183D02*
X12668898Y-10066183D01*
X12677000Y-10176000D02*
X12707000Y-10206000D01*
X12707000Y-10176000D02*
X12677000Y-10206000D01*
X12685000Y-9820000D02*
X12715000Y-9850000D01*
X12715000Y-9820000D02*
X12685000Y-9850000D01*
X12721000Y-9501000D02*
X12751000Y-9531000D01*
X12751000Y-9501000D02*
X12721000Y-9531000D01*
X12735000Y-10925000D02*
X12765000Y-10955000D01*
X12765000Y-10925000D02*
X12735000Y-10955000D01*
X12739000Y-7038000D02*
X12769000Y-7068000D01*
X12769000Y-7038000D02*
X12739000Y-7068000D01*
X12744452Y-8117548D02*
X12774452Y-8147548D01*
X12774452Y-8117548D02*
X12744452Y-8147548D01*
X12798000Y-9824000D02*
X12828000Y-9854000D01*
X12828000Y-9824000D02*
X12798000Y-9854000D01*
X12801000Y-10253000D02*
X12831000Y-10283000D01*
X12831000Y-10253000D02*
X12801000Y-10283000D01*
X12817000Y-10011000D02*
X12847000Y-10041000D01*
X12847000Y-10011000D02*
X12817000Y-10041000D01*
X12857589Y-8004411D02*
X12887589Y-8034411D01*
X12887589Y-8004411D02*
X12857589Y-8034411D01*
X12895000Y-10925000D02*
X12925000Y-10955000D01*
X12925000Y-10925000D02*
X12895000Y-10955000D01*
X12896452Y-8154548D02*
X12926452Y-8184548D01*
X12926452Y-8154548D02*
X12896452Y-8184548D01*
X12899000Y-9488000D02*
X12929000Y-9518000D01*
X12929000Y-9488000D02*
X12899000Y-9518000D01*
X12955000Y-10476250D02*
X12985000Y-10506250D01*
X12985000Y-10476250D02*
X12955000Y-10506250D01*
X12970726Y-7891274D02*
X13000726Y-7921274D01*
X13000726Y-7891274D02*
X12970726Y-7921274D01*
X12995000Y-8445000D02*
X13025000Y-8475000D01*
X13025000Y-8445000D02*
X12995000Y-8475000D01*
X13009589Y-8041411D02*
X13039589Y-8071411D01*
X13039589Y-8041411D02*
X13009589Y-8071411D01*
X13027000Y-11396000D02*
X13057000Y-11426000D01*
X13057000Y-11396000D02*
X13027000Y-11426000D01*
X13035000Y-6858000D02*
X13065000Y-6888000D01*
X13065000Y-6858000D02*
X13035000Y-6888000D01*
X13035000Y-9415000D02*
X13065000Y-9445000D01*
X13065000Y-9415000D02*
X13035000Y-9445000D01*
X13061000Y-10876000D02*
X13091000Y-10906000D01*
X13091000Y-10876000D02*
X13061000Y-10906000D01*
X13063000Y-9116000D02*
X13093000Y-9146000D01*
X13093000Y-9116000D02*
X13063000Y-9146000D01*
X13064000Y-11257000D02*
X13094000Y-11287000D01*
X13094000Y-11257000D02*
X13064000Y-11287000D01*
X13083863Y-7778137D02*
X13113863Y-7808137D01*
X13113863Y-7778137D02*
X13083863Y-7808137D01*
X13122500Y-9575000D02*
X13152500Y-9605000D01*
X13152500Y-9575000D02*
X13122500Y-9605000D01*
X13122726Y-7928274D02*
X13152726Y-7958274D01*
X13152726Y-7928274D02*
X13122726Y-7958274D01*
X13146500Y-9236500D02*
X13176500Y-9266500D01*
X13176500Y-9236500D02*
X13146500Y-9266500D01*
X13171426Y-10003427D02*
X13201426Y-10033427D01*
X13201426Y-10003427D02*
X13171426Y-10033427D01*
X13197000Y-7665000D02*
X13227000Y-7695000D01*
X13227000Y-7665000D02*
X13197000Y-7695000D01*
X13235863Y-7815137D02*
X13265863Y-7845137D01*
X13265863Y-7815137D02*
X13235863Y-7845137D01*
X13236000Y-11275000D02*
X13266000Y-11305000D01*
X13266000Y-11275000D02*
X13236000Y-11305000D01*
X13259000Y-7200000D02*
X13289000Y-7230000D01*
X13289000Y-7200000D02*
X13259000Y-7230000D01*
X13282000Y-10819000D02*
X13312000Y-10849000D01*
X13312000Y-10819000D02*
X13282000Y-10849000D01*
X13284000Y-10720000D02*
X13314000Y-10750000D01*
X13314000Y-10720000D02*
X13284000Y-10750000D01*
X13285000Y-9405000D02*
X13315000Y-9435000D01*
X13315000Y-9405000D02*
X13285000Y-9435000D01*
X13349000Y-7702000D02*
X13379000Y-7732000D01*
X13379000Y-7702000D02*
X13349000Y-7732000D01*
X13415000Y-11006000D02*
X13445000Y-11036000D01*
X13445000Y-11006000D02*
X13415000Y-11036000D01*
X13451000Y-7062000D02*
X13481000Y-7092000D01*
X13481000Y-7062000D02*
X13451000Y-7092000D01*
X13453000Y-7349000D02*
X13483000Y-7379000D01*
X13483000Y-7349000D02*
X13453000Y-7379000D01*
X13480000Y-6890000D02*
X13510000Y-6920000D01*
X13510000Y-6890000D02*
X13480000Y-6920000D01*
X13552000Y-11392000D02*
X13582000Y-11422000D01*
X13582000Y-11392000D02*
X13552000Y-11422000D01*
X13553000Y-10983000D02*
X13583000Y-11013000D01*
X13583000Y-10983000D02*
X13553000Y-11013000D01*
X13575000Y-9705000D02*
X13605000Y-9735000D01*
X13605000Y-9705000D02*
X13575000Y-9735000D01*
X13575000Y-9835000D02*
X13605000Y-9865000D01*
X13605000Y-9835000D02*
X13575000Y-9865000D01*
X13580000Y-10204000D02*
X13610000Y-10234000D01*
X13610000Y-10204000D02*
X13580000Y-10234000D01*
X13585000Y-9585000D02*
X13615000Y-9615000D01*
X13615000Y-9585000D02*
X13585000Y-9615000D01*
X13724000Y-7560000D02*
X13754000Y-7590000D01*
X13754000Y-7560000D02*
X13724000Y-7590000D01*
X13765000Y-6825000D02*
X13795000Y-6855000D01*
X13795000Y-6825000D02*
X13765000Y-6855000D01*
X13905000Y-11645000D02*
X13935000Y-11675000D01*
X13935000Y-11645000D02*
X13905000Y-11675000D01*
X13941000Y-10599000D02*
X13971000Y-10629000D01*
X13971000Y-10599000D02*
X13941000Y-10629000D01*
X13959000Y-7553000D02*
X13989000Y-7583000D01*
X13989000Y-7553000D02*
X13959000Y-7583000D01*
X14218000Y-10308000D02*
X14248000Y-10338000D01*
X14248000Y-10308000D02*
X14218000Y-10338000D01*
X14315000Y-11645000D02*
X14345000Y-11675000D01*
X14345000Y-11645000D02*
X14315000Y-11675000D01*
X14575000Y-11295000D02*
X14605000Y-11325000D01*
X14605000Y-11295000D02*
X14575000Y-11325000D01*
X14576000Y-6959000D02*
X14606000Y-6989000D01*
X14606000Y-6959000D02*
X14576000Y-6989000D01*
X14578000Y-7114000D02*
X14608000Y-7144000D01*
X14608000Y-7114000D02*
X14578000Y-7144000D01*
X14595000Y-11685000D02*
X14625000Y-11715000D01*
X14625000Y-11685000D02*
X14595000Y-11715000D01*
X14632000Y-7733000D02*
X14662000Y-7763000D01*
X14662000Y-7733000D02*
X14632000Y-7763000D01*
X14685000Y-11295000D02*
X14715000Y-11325000D01*
X14715000Y-11295000D02*
X14685000Y-11325000D01*
X14705000Y-11725000D02*
X14735000Y-11755000D01*
X14735000Y-11725000D02*
X14705000Y-11755000D01*
X14795000Y-11295000D02*
X14825000Y-11325000D01*
X14825000Y-11295000D02*
X14795000Y-11325000D01*
X14815000Y-11685000D02*
X14845000Y-11715000D01*
X14845000Y-11685000D02*
X14815000Y-11715000D01*
X14925000Y-11725000D02*
X14955000Y-11755000D01*
X14955000Y-11725000D02*
X14925000Y-11755000D01*
X14952000Y-7980000D02*
X14982000Y-8010000D01*
X14982000Y-7980000D02*
X14952000Y-8010000D01*
X14972000Y-10115000D02*
X15002000Y-10145000D01*
X15002000Y-10115000D02*
X14972000Y-10145000D01*
X14997000Y-7112500D02*
X15027000Y-7142500D01*
X15027000Y-7112500D02*
X14997000Y-7142500D01*
X15152500Y-7100500D02*
X15182500Y-7130500D01*
X15182500Y-7100500D02*
X15152500Y-7130500D01*
X15153000Y-7701000D02*
X15183000Y-7731000D01*
X15183000Y-7701000D02*
X15153000Y-7731000D01*
X15185000Y-11405000D02*
X15215000Y-11435000D01*
X15215000Y-11405000D02*
X15185000Y-11435000D01*
X15185000Y-11505000D02*
X15215000Y-11535000D01*
X15215000Y-11505000D02*
X15185000Y-11535000D01*
X15282000Y-7388000D02*
X15312000Y-7418000D01*
X15312000Y-7388000D02*
X15282000Y-7418000D01*
X15282500Y-7096000D02*
X15312500Y-7126000D01*
X15312500Y-7096000D02*
X15282500Y-7126000D01*
X15315000Y-11325000D02*
X15345000Y-11355000D01*
X15345000Y-11325000D02*
X15315000Y-11355000D01*
X15315000Y-11685000D02*
X15345000Y-11715000D01*
X15345000Y-11685000D02*
X15315000Y-11715000D01*
X15325000Y-8435000D02*
X15355000Y-8465000D01*
X15355000Y-8435000D02*
X15325000Y-8465000D01*
X15411000Y-7430000D02*
X15441000Y-7460000D01*
X15441000Y-7430000D02*
X15411000Y-7460000D01*
X15412000Y-7310000D02*
X15442000Y-7340000D01*
X15442000Y-7310000D02*
X15412000Y-7340000D01*
X15425000Y-9325000D02*
X15455000Y-9355000D01*
X15455000Y-9325000D02*
X15425000Y-9355000D01*
X15518000Y-6901000D02*
X15548000Y-6931000D01*
X15548000Y-6901000D02*
X15518000Y-6931000D01*
X15565000Y-11305000D02*
X15595000Y-11335000D01*
X15595000Y-11305000D02*
X15565000Y-11335000D01*
X15675000Y-11305000D02*
X15705000Y-11335000D01*
X15705000Y-11305000D02*
X15675000Y-11335000D01*
X15865000Y-9909000D02*
X15895000Y-9939000D01*
X15895000Y-9909000D02*
X15865000Y-9939000D01*
X15865000Y-11295000D02*
X15895000Y-11325000D01*
X15895000Y-11295000D02*
X15865000Y-11325000D01*
X15995000Y-11425000D02*
X16025000Y-11455000D01*
X16025000Y-11425000D02*
X15995000Y-11455000D01*
X16138000Y-10063000D02*
X16168000Y-10093000D01*
X16168000Y-10063000D02*
X16138000Y-10093000D01*
X16138000Y-10220000D02*
X16168000Y-10250000D01*
X16168000Y-10220000D02*
X16138000Y-10250000D01*
X16416000Y-11456000D02*
X16446000Y-11486000D01*
X16446000Y-11456000D02*
X16416000Y-11486000D01*
X16454000Y-11032000D02*
X16484000Y-11062000D01*
X16484000Y-11032000D02*
X16454000Y-11062000D01*
X16458000Y-10670000D02*
X16488000Y-10700000D01*
X16488000Y-10670000D02*
X16458000Y-10700000D01*
X16535000Y-6385000D02*
X16565000Y-6415000D01*
X16565000Y-6385000D02*
X16535000Y-6415000D01*
X16548000Y-10599000D02*
X16578000Y-10629000D01*
X16578000Y-10599000D02*
X16548000Y-10629000D01*
X16575000Y-10125000D02*
X16605000Y-10155000D01*
X16605000Y-10125000D02*
X16575000Y-10155000D01*
X16730147Y-10110147D02*
X16760147Y-10140147D01*
X16760147Y-10110147D02*
X16730147Y-10140147D01*
X16771000Y-10883000D02*
X16801000Y-10913000D01*
X16801000Y-10883000D02*
X16771000Y-10913000D01*
X16833000Y-10177000D02*
X16863000Y-10207000D01*
X16863000Y-10177000D02*
X16833000Y-10207000D01*
X16892000Y-6934000D02*
X16922000Y-6964000D01*
X16922000Y-6934000D02*
X16892000Y-6964000D01*
X16923000Y-10653000D02*
X16953000Y-10683000D01*
X16953000Y-10653000D02*
X16923000Y-10683000D01*
X16924000Y-7118000D02*
X16954000Y-7148000D01*
X16954000Y-7118000D02*
X16924000Y-7148000D01*
X17005000Y-11105000D02*
X17035000Y-11135000D01*
X17035000Y-11105000D02*
X17005000Y-11135000D01*
X17030000Y-6798000D02*
X17060000Y-6828000D01*
X17060000Y-6798000D02*
X17030000Y-6828000D01*
X17119000Y-9917000D02*
X17149000Y-9947000D01*
X17149000Y-9917000D02*
X17119000Y-9947000D01*
X17171000Y-11189000D02*
X17201000Y-11219000D01*
X17201000Y-11189000D02*
X17171000Y-11219000D01*
X17174000Y-11666000D02*
X17204000Y-11696000D01*
X17204000Y-11666000D02*
X17174000Y-11696000D01*
X17380000Y-10232000D02*
X17410000Y-10262000D01*
X17410000Y-10232000D02*
X17380000Y-10262000D01*
X17416000Y-7273000D02*
X17446000Y-7303000D01*
X17446000Y-7273000D02*
X17416000Y-7303000D01*
X17429000Y-10040000D02*
X17459000Y-10070000D01*
X17459000Y-10040000D02*
X17429000Y-10070000D01*
X17490000Y-11037000D02*
X17520000Y-11067000D01*
X17520000Y-11037000D02*
X17490000Y-11067000D01*
X17509000Y-7141000D02*
X17539000Y-7171000D01*
X17539000Y-7141000D02*
X17509000Y-7171000D01*
X17519250Y-8538750D02*
X17549250Y-8568750D01*
X17549250Y-8538750D02*
X17519250Y-8568750D01*
X17619000Y-7134000D02*
X17649000Y-7164000D01*
X17649000Y-7134000D02*
X17619000Y-7164000D01*
X17625000Y-10055000D02*
X17655000Y-10085000D01*
X17655000Y-10055000D02*
X17625000Y-10085000D01*
X17716000Y-10239000D02*
X17746000Y-10269000D01*
X17746000Y-10239000D02*
X17716000Y-10269000D01*
X17716000Y-10693000D02*
X17746000Y-10723000D01*
X17746000Y-10693000D02*
X17716000Y-10723000D01*
X17725000Y-9275000D02*
X17755000Y-9305000D01*
X17755000Y-9275000D02*
X17725000Y-9305000D01*
X17731000Y-9580000D02*
X17761000Y-9610000D01*
X17761000Y-9580000D02*
X17731000Y-9610000D01*
X17955000Y-10795000D02*
X17985000Y-10825000D01*
X17985000Y-10795000D02*
X17955000Y-10825000D01*
X17963000Y-10353000D02*
X17993000Y-10383000D01*
X17993000Y-10353000D02*
X17963000Y-10383000D01*
X18133688Y-6703764D02*
X18163688Y-6733764D01*
X18163688Y-6703764D02*
X18133688Y-6733764D01*
X18161119Y-6563195D02*
X18191119Y-6593195D01*
X18191119Y-6563195D02*
X18161119Y-6593195D01*
X18165000Y-10835000D02*
X18195000Y-10865000D01*
X18195000Y-10835000D02*
X18165000Y-10865000D01*
X18224000Y-9947000D02*
X18254000Y-9977000D01*
X18254000Y-9947000D02*
X18224000Y-9977000D01*
X18225000Y-10535000D02*
X18255000Y-10565000D01*
X18255000Y-10535000D02*
X18225000Y-10565000D01*
X18246825Y-6816901D02*
X18276825Y-6846901D01*
X18276825Y-6816901D02*
X18246825Y-6846901D01*
X18274256Y-6676332D02*
X18304256Y-6706332D01*
X18304256Y-6676332D02*
X18274256Y-6706332D01*
X18292250Y-8538750D02*
X18322250Y-8568750D01*
X18322250Y-8538750D02*
X18292250Y-8568750D01*
X18323000Y-10770000D02*
X18353000Y-10800000D01*
X18353000Y-10770000D02*
X18323000Y-10800000D01*
X18325000Y-10445000D02*
X18355000Y-10475000D01*
X18355000Y-10445000D02*
X18325000Y-10475000D01*
X18357000Y-10665000D02*
X18387000Y-10695000D01*
X18387000Y-10665000D02*
X18357000Y-10695000D01*
X18359962Y-6930038D02*
X18389962Y-6960038D01*
X18389962Y-6930038D02*
X18359962Y-6960038D01*
X18387393Y-6789469D02*
X18417393Y-6819469D01*
X18417393Y-6789469D02*
X18387393Y-6819469D01*
X18425000Y-10535000D02*
X18455000Y-10565000D01*
X18455000Y-10535000D02*
X18425000Y-10565000D01*
X18473099Y-7043175D02*
X18503099Y-7073175D01*
X18503099Y-7043175D02*
X18473099Y-7073175D01*
X18500530Y-6902606D02*
X18530530Y-6932606D01*
X18530530Y-6902606D02*
X18500530Y-6932606D01*
X18522000Y-10254000D02*
X18552000Y-10284000D01*
X18552000Y-10254000D02*
X18522000Y-10284000D01*
X18525000Y-10445000D02*
X18555000Y-10475000D01*
X18555000Y-10445000D02*
X18525000Y-10475000D01*
X18586236Y-7156312D02*
X18616236Y-7186312D01*
X18616236Y-7156312D02*
X18586236Y-7186312D01*
X18613668Y-7015743D02*
X18643668Y-7045743D01*
X18643668Y-7015743D02*
X18613668Y-7045743D01*
X18905000Y-7575000D02*
X18935000Y-7605000D01*
X18935000Y-7575000D02*
X18905000Y-7605000D01*
X18908000Y-7688000D02*
X18938000Y-7718000D01*
X18938000Y-7688000D02*
X18908000Y-7718000D01*
X18915000Y-10177500D02*
X18945000Y-10207500D01*
X18945000Y-10177500D02*
X18915000Y-10207500D01*
X18925000Y-9835000D02*
X18955000Y-9865000D01*
X18955000Y-9835000D02*
X18925000Y-9865000D01*
X19085000Y-6915000D02*
X19115000Y-6945000D01*
X19115000Y-6915000D02*
X19085000Y-6945000D01*
X19125000Y-10575000D02*
X19155000Y-10605000D01*
X19155000Y-10575000D02*
X19125000Y-10605000D01*
X19135000Y-10825000D02*
X19165000Y-10855000D01*
X19165000Y-10825000D02*
X19135000Y-10855000D01*
X19205000Y-11355000D02*
X19235000Y-11385000D01*
X19235000Y-11355000D02*
X19205000Y-11385000D01*
X19215000Y-11536000D02*
X19245000Y-11566000D01*
X19245000Y-11536000D02*
X19215000Y-11566000D01*
X19275000Y-6215000D02*
X19305000Y-6245000D01*
X19305000Y-6215000D02*
X19275000Y-6245000D01*
X19295000Y-11015000D02*
X19325000Y-11045000D01*
X19325000Y-11015000D02*
X19295000Y-11045000D01*
X19295000Y-11165000D02*
X19325000Y-11195000D01*
X19325000Y-11165000D02*
X19295000Y-11195000D01*
X19331000Y-11645000D02*
X19361000Y-11675000D01*
X19361000Y-11645000D02*
X19331000Y-11675000D01*
X19338000Y-9609000D02*
X19368000Y-9639000D01*
X19368000Y-9609000D02*
X19338000Y-9639000D01*
X19495000Y-6215000D02*
X19525000Y-6245000D01*
X19525000Y-6215000D02*
X19495000Y-6245000D01*
X19535000Y-10425000D02*
X19565000Y-10455000D01*
X19565000Y-10425000D02*
X19535000Y-10455000D01*
X19545000Y-7575000D02*
X19575000Y-7605000D01*
X19575000Y-7575000D02*
X19545000Y-7605000D01*
X19545000Y-7689000D02*
X19575000Y-7719000D01*
X19575000Y-7689000D02*
X19545000Y-7719000D01*
X19655500Y-10425000D02*
X19685500Y-10455000D01*
X19685500Y-10425000D02*
X19655500Y-10455000D01*
X19695000Y-6215000D02*
X19725000Y-6245000D01*
X19725000Y-6215000D02*
X19695000Y-6245000D01*
X19725000Y-10839000D02*
X19755000Y-10869000D01*
X19755000Y-10839000D02*
X19725000Y-10869000D01*
X19725000Y-11195000D02*
X19755000Y-11225000D01*
X19755000Y-11195000D02*
X19725000Y-11225000D01*
X19776000Y-10425000D02*
X19806000Y-10455000D01*
X19806000Y-10425000D02*
X19776000Y-10455000D01*
X19835000Y-6905000D02*
X19865000Y-6935000D01*
X19865000Y-6905000D02*
X19835000Y-6935000D01*
X19855000Y-9625000D02*
X19885000Y-9655000D01*
X19885000Y-9625000D02*
X19855000Y-9655000D01*
X19855000Y-10345000D02*
X19885000Y-10375000D01*
X19885000Y-10345000D02*
X19855000Y-10375000D01*
X19855000Y-10915000D02*
X19885000Y-10945000D01*
X19885000Y-10915000D02*
X19855000Y-10945000D01*
X19855000Y-11015000D02*
X19885000Y-11045000D01*
X19885000Y-11015000D02*
X19855000Y-11045000D01*
X19855000Y-11125000D02*
X19885000Y-11155000D01*
X19885000Y-11125000D02*
X19855000Y-11155000D01*
X19917000Y-7798000D02*
X19947000Y-7828000D01*
X19947000Y-7798000D02*
X19917000Y-7828000D01*
X20295000Y-7345000D02*
X20325000Y-7375000D01*
X20325000Y-7345000D02*
X20295000Y-7375000D01*
X20318000Y-10536000D02*
X20348000Y-10566000D01*
X20348000Y-10536000D02*
X20318000Y-10566000D01*
X20376000Y-11195000D02*
X20406000Y-11225000D01*
X20406000Y-11195000D02*
X20376000Y-11225000D01*
X20487000Y-10826000D02*
X20517000Y-10856000D01*
X20517000Y-10826000D02*
X20487000Y-10856000D01*
X20505000Y-8005000D02*
X20535000Y-8035000D01*
X20535000Y-8005000D02*
X20505000Y-8035000D01*
X20505000Y-9623750D02*
X20535000Y-9653750D01*
X20535000Y-9623750D02*
X20505000Y-9653750D01*
X20505000Y-9753750D02*
X20535000Y-9783750D01*
X20535000Y-9753750D02*
X20505000Y-9783750D01*
X20505000Y-9883750D02*
X20535000Y-9913750D01*
X20535000Y-9883750D02*
X20505000Y-9913750D01*
X20560000Y-9184000D02*
X20590000Y-9214000D01*
X20590000Y-9184000D02*
X20560000Y-9214000D01*
X20585000Y-10163750D02*
X20615000Y-10193750D01*
X20615000Y-10163750D02*
X20585000Y-10193750D01*
X20610000Y-9623750D02*
X20640000Y-9653750D01*
X20640000Y-9623750D02*
X20610000Y-9653750D01*
X20610000Y-9883750D02*
X20640000Y-9913750D01*
X20640000Y-9883750D02*
X20610000Y-9913750D01*
X20647500Y-10453750D02*
X20677500Y-10483750D01*
X20677500Y-10453750D02*
X20647500Y-10483750D01*
X20655000Y-10829000D02*
X20685000Y-10859000D01*
X20685000Y-10829000D02*
X20655000Y-10859000D01*
X20715000Y-9343750D02*
X20745000Y-9373750D01*
X20745000Y-9343750D02*
X20715000Y-9373750D01*
X20715000Y-9623750D02*
X20745000Y-9653750D01*
X20745000Y-9623750D02*
X20715000Y-9653750D01*
X20715000Y-9883750D02*
X20745000Y-9913750D01*
X20745000Y-9883750D02*
X20715000Y-9913750D01*
X20717642Y-9185772D02*
X20747642Y-9215772D01*
X20747642Y-9185772D02*
X20717642Y-9215772D01*
X20753000Y-7816000D02*
X20783000Y-7846000D01*
X20783000Y-7816000D02*
X20753000Y-7846000D01*
X20799000Y-8146000D02*
X20829000Y-8176000D01*
X20829000Y-8146000D02*
X20799000Y-8176000D01*
X20820000Y-9623750D02*
X20850000Y-9653750D01*
X20850000Y-9623750D02*
X20820000Y-9653750D01*
X20820000Y-9883750D02*
X20850000Y-9913750D01*
X20850000Y-9883750D02*
X20820000Y-9913750D01*
X20821000Y-10829000D02*
X20851000Y-10859000D01*
X20851000Y-10829000D02*
X20821000Y-10859000D01*
X20842500Y-10209353D02*
X20872500Y-10239353D01*
X20872500Y-10209353D02*
X20842500Y-10239353D01*
X20844003Y-7817002D02*
X20874003Y-7847002D01*
X20874003Y-7817002D02*
X20844003Y-7847002D01*
X20865000Y-7505000D02*
X20895000Y-7535000D01*
X20895000Y-7505000D02*
X20865000Y-7535000D01*
X20905000Y-10333750D02*
X20935000Y-10363750D01*
X20935000Y-10333750D02*
X20905000Y-10363750D01*
X20925000Y-9623750D02*
X20955000Y-9653750D01*
X20955000Y-9623750D02*
X20925000Y-9653750D01*
X20925000Y-9753750D02*
X20955000Y-9783750D01*
X20955000Y-9753750D02*
X20925000Y-9783750D01*
X20925000Y-9883750D02*
X20955000Y-9913750D01*
X20955000Y-9883750D02*
X20925000Y-9913750D01*
X20977000Y-10834000D02*
X21007000Y-10864000D01*
X21007000Y-10834000D02*
X20977000Y-10864000D01*
X21027500Y-10393750D02*
X21057500Y-10423750D01*
X21057500Y-10393750D02*
X21027500Y-10423750D01*
X21115000Y-7645000D02*
X21145000Y-7675000D01*
X21145000Y-7645000D02*
X21115000Y-7675000D01*
X21129000Y-7804000D02*
X21159000Y-7834000D01*
X21159000Y-7804000D02*
X21129000Y-7834000D01*
X21130000Y-10072000D02*
X21160000Y-10102000D01*
X21160000Y-10072000D02*
X21130000Y-10102000D01*
X21139000Y-10699000D02*
X21169000Y-10729000D01*
X21169000Y-10699000D02*
X21139000Y-10729000D01*
X21431000Y-7805000D02*
X21461000Y-7835000D01*
X21461000Y-7805000D02*
X21431000Y-7835000D01*
X21521538Y-7683462D02*
X21551538Y-7713462D01*
X21551538Y-7683462D02*
X21521538Y-7713462D01*
X21525000Y-10435000D02*
X21555000Y-10465000D01*
X21555000Y-10435000D02*
X21525000Y-10465000D01*
X21535000Y-6225000D02*
X21565000Y-6255000D01*
X21565000Y-6225000D02*
X21535000Y-6255000D01*
X21537000Y-9625000D02*
X21567000Y-9655000D01*
X21567000Y-9625000D02*
X21537000Y-9655000D01*
X21645000Y-6375000D02*
X21675000Y-6405000D01*
X21675000Y-6375000D02*
X21645000Y-6405000D01*
X21645038Y-7806962D02*
X21675038Y-7836962D01*
X21675038Y-7806962D02*
X21645038Y-7836962D01*
X21828000Y-7805000D02*
X21858000Y-7835000D01*
X21858000Y-7805000D02*
X21828000Y-7835000D01*
X22015000Y-7805000D02*
X22045000Y-7835000D01*
X22045000Y-7805000D02*
X22015000Y-7835000D01*
X22140000Y-10325000D02*
X22170000Y-10355000D01*
X22170000Y-10325000D02*
X22140000Y-10355000D01*
X22205000Y-7805000D02*
X22235000Y-7835000D01*
X22235000Y-7805000D02*
X22205000Y-7835000D01*
X22394538Y-7805000D02*
X22424538Y-7835000D01*
X22424538Y-7805000D02*
X22394538Y-7835000D01*
X22543000Y-7805000D02*
X22573000Y-7835000D01*
X22573000Y-7805000D02*
X22543000Y-7835000D01*
X22685000Y-7665000D02*
X22715000Y-7695000D01*
X22715000Y-7665000D02*
X22685000Y-7695000D01*
X22775000Y-7573750D02*
X22805000Y-7603750D01*
X22805000Y-7573750D02*
X22775000Y-7603750D01*
X17690000Y-11204000D02*
G75*
G02*
X17655000Y-11204000I-17500J0D01*
G01*
X17655000Y-11204000D02*
G75*
G02*
X17690000Y-11204000I17500J0D01*
G01*
X17690000Y-11339000D02*
G75*
G02*
X17655000Y-11339000I-17500J0D01*
G01*
X17655000Y-11339000D02*
G75*
G02*
X17690000Y-11339000I17500J0D01*
G01*
X17775000Y-11204000D02*
G75*
G02*
X17740000Y-11204000I-17500J0D01*
G01*
X17740000Y-11204000D02*
G75*
G02*
X17775000Y-11204000I17500J0D01*
G01*
X17775000Y-11339000D02*
G75*
G02*
X17740000Y-11339000I-17500J0D01*
G01*
X17740000Y-11339000D02*
G75*
G02*
X17775000Y-11339000I17500J0D01*
G01*
X17860000Y-11204000D02*
G75*
G02*
X17825000Y-11204000I-17500J0D01*
G01*
X17825000Y-11204000D02*
G75*
G02*
X17860000Y-11204000I17500J0D01*
G01*
X17860000Y-11339000D02*
G75*
G02*
X17825000Y-11339000I-17500J0D01*
G01*
X17825000Y-11339000D02*
G75*
G02*
X17860000Y-11339000I17500J0D01*
G01*
X17945000Y-11204000D02*
G75*
G02*
X17910000Y-11204000I-17500J0D01*
G01*
X17910000Y-11204000D02*
G75*
G02*
X17945000Y-11204000I17500J0D01*
G01*
X17945000Y-11339000D02*
G75*
G02*
X17910000Y-11339000I-17500J0D01*
G01*
X17910000Y-11339000D02*
G75*
G02*
X17945000Y-11339000I17500J0D01*
G01*
X18030000Y-11204000D02*
G75*
G02*
X17995000Y-11204000I-17500J0D01*
G01*
X17995000Y-11204000D02*
G75*
G02*
X18030000Y-11204000I17500J0D01*
G01*
X18030000Y-11339000D02*
G75*
G02*
X17995000Y-11339000I-17500J0D01*
G01*
X17995000Y-11339000D02*
G75*
G02*
X18030000Y-11339000I17500J0D01*
G01*
X18115000Y-11204000D02*
G75*
G02*
X18080000Y-11204000I-17500J0D01*
G01*
X18080000Y-11204000D02*
G75*
G02*
X18115000Y-11204000I17500J0D01*
G01*
X18115000Y-11339000D02*
G75*
G02*
X18080000Y-11339000I-17500J0D01*
G01*
X18080000Y-11339000D02*
G75*
G02*
X18115000Y-11339000I17500J0D01*
G01*
X18200000Y-11204000D02*
G75*
G02*
X18165000Y-11204000I-17500J0D01*
G01*
X18165000Y-11204000D02*
G75*
G02*
X18200000Y-11204000I17500J0D01*
G01*
X18200000Y-11339000D02*
G75*
G02*
X18165000Y-11339000I-17500J0D01*
G01*
X18165000Y-11339000D02*
G75*
G02*
X18200000Y-11339000I17500J0D01*
G01*
X18285000Y-11204000D02*
G75*
G02*
X18250000Y-11204000I-17500J0D01*
G01*
X18250000Y-11204000D02*
G75*
G02*
X18285000Y-11204000I17500J0D01*
G01*
X18285000Y-11339000D02*
G75*
G02*
X18250000Y-11339000I-17500J0D01*
G01*
X18250000Y-11339000D02*
G75*
G02*
X18285000Y-11339000I17500J0D01*
G01*
X7730000Y-6595000D02*
X7730000Y-6645000D01*
X7705000Y-6620000D02*
X7755000Y-6620000D01*
X7730000Y-11355000D02*
X7730000Y-11405000D01*
X7705000Y-11380000D02*
X7755000Y-11380000D01*
X7800294Y-6425294D02*
X7800294Y-6475294D01*
X7775294Y-6450294D02*
X7825294Y-6450294D01*
X7800294Y-6764706D02*
X7800294Y-6814706D01*
X7775294Y-6789706D02*
X7825294Y-6789706D01*
X7800294Y-11185294D02*
X7800294Y-11235294D01*
X7775294Y-11210294D02*
X7825294Y-11210294D01*
X7800294Y-11524706D02*
X7800294Y-11574706D01*
X7775294Y-11549706D02*
X7825294Y-11549706D01*
X7970000Y-6355000D02*
X7970000Y-6405000D01*
X7945000Y-6380000D02*
X7995000Y-6380000D01*
X7970000Y-6835000D02*
X7970000Y-6885000D01*
X7945000Y-6860000D02*
X7995000Y-6860000D01*
X7970000Y-11115000D02*
X7970000Y-11165000D01*
X7945000Y-11140000D02*
X7995000Y-11140000D01*
X7970000Y-11595000D02*
X7970000Y-11645000D01*
X7945000Y-11620000D02*
X7995000Y-11620000D01*
X8139706Y-6425294D02*
X8139706Y-6475294D01*
X8114706Y-6450294D02*
X8164706Y-6450294D01*
X8139706Y-6764706D02*
X8139706Y-6814706D01*
X8114706Y-6789706D02*
X8164706Y-6789706D01*
X8139706Y-11185294D02*
X8139706Y-11235294D01*
X8114706Y-11210294D02*
X8164706Y-11210294D01*
X8139706Y-11524706D02*
X8139706Y-11574706D01*
X8114706Y-11549706D02*
X8164706Y-11549706D01*
X8210000Y-6595000D02*
X8210000Y-6645000D01*
X8185000Y-6620000D02*
X8235000Y-6620000D01*
X8210000Y-11355000D02*
X8210000Y-11405000D01*
X8185000Y-11380000D02*
X8235000Y-11380000D01*
X22190000Y-6595000D02*
X22190000Y-6645000D01*
X22165000Y-6620000D02*
X22215000Y-6620000D01*
X22190000Y-11355000D02*
X22190000Y-11405000D01*
X22165000Y-11380000D02*
X22215000Y-11380000D01*
X22260294Y-6425294D02*
X22260294Y-6475294D01*
X22235294Y-6450294D02*
X22285294Y-6450294D01*
X22260294Y-6764706D02*
X22260294Y-6814706D01*
X22235294Y-6789706D02*
X22285294Y-6789706D01*
X22260294Y-11185294D02*
X22260294Y-11235294D01*
X22235294Y-11210294D02*
X22285294Y-11210294D01*
X22260294Y-11524706D02*
X22260294Y-11574706D01*
X22235294Y-11549706D02*
X22285294Y-11549706D01*
X22430000Y-6355000D02*
X22430000Y-6405000D01*
X22405000Y-6380000D02*
X22455000Y-6380000D01*
X22430000Y-6835000D02*
X22430000Y-6885000D01*
X22405000Y-6860000D02*
X22455000Y-6860000D01*
X22430000Y-11115000D02*
X22430000Y-11165000D01*
X22405000Y-11140000D02*
X22455000Y-11140000D01*
X22430000Y-11595000D02*
X22430000Y-11645000D01*
X22405000Y-11620000D02*
X22455000Y-11620000D01*
X22599706Y-6425294D02*
X22599706Y-6475294D01*
X22574706Y-6450294D02*
X22624706Y-6450294D01*
X22599706Y-6764706D02*
X22599706Y-6814706D01*
X22574706Y-6789706D02*
X22624706Y-6789706D01*
X22599706Y-11185294D02*
X22599706Y-11235294D01*
X22574706Y-11210294D02*
X22624706Y-11210294D01*
X22599706Y-11524706D02*
X22599706Y-11574706D01*
X22574706Y-11549706D02*
X22624706Y-11549706D01*
X22670000Y-6595000D02*
X22670000Y-6645000D01*
X22645000Y-6620000D02*
X22695000Y-6620000D01*
X22670000Y-11355000D02*
X22670000Y-11405000D01*
X22645000Y-11380000D02*
X22695000Y-11380000D01*
X17558713Y-11323213D02*
X17558713Y-11280787D01*
X17516287Y-11280787D01*
X17516287Y-11323213D01*
X17558713Y-11323213D01*
X17507500Y-11227000D02*
X17507500Y-11377000D01*
X17567500Y-11377000D02*
G75*
G02*
X17507500Y-11377000I-30000J0D01*
G01*
X17567500Y-11377000D02*
X17567500Y-11227000D01*
X17567500Y-11227000D02*
G75*
G03*
X17507500Y-11227000I-30000J0D01*
G01*
X17558713Y-11661213D02*
X17558713Y-11618787D01*
X17516287Y-11618787D01*
X17516287Y-11661213D01*
X17558713Y-11661213D01*
X17507500Y-11600000D02*
X17507500Y-11680000D01*
X17567500Y-11680000D02*
G75*
G02*
X17507500Y-11680000I-30000J0D01*
G01*
X17567500Y-11680000D02*
X17567500Y-11600000D01*
X17567500Y-11600000D02*
G75*
G03*
X17507500Y-11600000I-30000J0D01*
G01*
X18423713Y-11323213D02*
X18423713Y-11280787D01*
X18381287Y-11280787D01*
X18381287Y-11323213D01*
X18423713Y-11323213D01*
X18372500Y-11227000D02*
X18372500Y-11377000D01*
X18432500Y-11377000D02*
G75*
G02*
X18372500Y-11377000I-30000J0D01*
G01*
X18432500Y-11377000D02*
X18432500Y-11227000D01*
X18432500Y-11227000D02*
G75*
G03*
X18372500Y-11227000I-30000J0D01*
G01*
X18423713Y-11661213D02*
X18423713Y-11618787D01*
X18381287Y-11618787D01*
X18381287Y-11661213D01*
X18423713Y-11661213D01*
X18372500Y-11600000D02*
X18372500Y-11680000D01*
X18432500Y-11680000D02*
G75*
G02*
X18372500Y-11680000I-30000J0D01*
G01*
X18432500Y-11680000D02*
X18432500Y-11600000D01*
X18432500Y-11600000D02*
G75*
G03*
X18372500Y-11600000I-30000J0D01*
G01*
X14950000Y-9800000D02*
X15000000Y-9750000D01*
X14950000Y-9700000D01*
X14900000Y-9750000D01*
X14950000Y-9800000D01*
X14950000Y-11250000D02*
X15000000Y-11200000D01*
X14950000Y-11150000D01*
X14900000Y-11200000D01*
X14950000Y-11250000D01*
X15200000Y-11250000D02*
X15250000Y-11200000D01*
X15200000Y-11150000D01*
X15150000Y-11200000D01*
X15200000Y-11250000D01*
X15450000Y-9800000D02*
X15500000Y-9750000D01*
X15450000Y-9700000D01*
X15400000Y-9750000D01*
X15450000Y-9800000D01*
X15450000Y-11250000D02*
X15500000Y-11200000D01*
X15450000Y-11150000D01*
X15400000Y-11200000D01*
X15450000Y-11250000D01*
D12*
X8993930Y-10441500D02*
X9110930Y-10558500D01*
X9110930Y-10441500D02*
X8993930Y-10558500D01*
X9110930Y-10500000D02*
G75*
G02*
X8993930Y-10500000I-58500J0D01*
G01*
X8993930Y-10500000D02*
G75*
G02*
X9110930Y-10500000I58500J0D01*
G01*
D13*
X8086510Y-8698795D02*
X8221510Y-8833795D01*
X8221510Y-8698795D02*
X8086510Y-8833795D01*
X8154010Y-8698795D02*
X8154010Y-8833795D01*
X8086510Y-8766295D02*
X8221510Y-8766295D01*
X8118241Y-8437467D02*
X8253241Y-8572467D01*
X8253241Y-8437467D02*
X8118241Y-8572467D01*
X8185741Y-8437467D02*
X8185741Y-8572467D01*
X8118241Y-8504967D02*
X8253241Y-8504967D01*
X8179859Y-8944936D02*
X8314859Y-9079936D01*
X8314859Y-8944936D02*
X8179859Y-9079936D01*
X8247359Y-8944936D02*
X8247359Y-9079936D01*
X8179859Y-9012436D02*
X8314859Y-9012436D01*
X8267782Y-8220819D02*
X8402783Y-8355819D01*
X8402783Y-8220819D02*
X8267782Y-8355819D01*
X8335282Y-8220819D02*
X8335282Y-8355819D01*
X8267782Y-8288319D02*
X8402783Y-8288319D01*
X8376902Y-9119501D02*
X8511902Y-9254501D01*
X8511902Y-9119501D02*
X8376902Y-9254501D01*
X8444402Y-9119501D02*
X8444402Y-9254501D01*
X8376902Y-9187001D02*
X8511902Y-9187001D01*
X8500876Y-8098482D02*
X8635876Y-8233482D01*
X8635876Y-8098482D02*
X8500876Y-8233482D01*
X8568376Y-8098482D02*
X8568376Y-8233482D01*
X8500876Y-8165982D02*
X8635876Y-8165982D01*
X8632500Y-9182500D02*
X8767500Y-9317500D01*
X8767500Y-9182500D02*
X8632500Y-9317500D01*
X8700000Y-9182500D02*
X8700000Y-9317500D01*
X8632500Y-9250000D02*
X8767500Y-9250000D01*
X8764124Y-8098482D02*
X8899124Y-8233482D01*
X8899124Y-8098482D02*
X8764124Y-8233482D01*
X8831624Y-8098482D02*
X8831624Y-8233482D01*
X8764124Y-8165982D02*
X8899124Y-8165982D01*
X8888098Y-9119501D02*
X9023098Y-9254501D01*
X9023098Y-9119501D02*
X8888098Y-9254501D01*
X8955598Y-9119501D02*
X8955598Y-9254501D01*
X8888098Y-9187001D02*
X9023098Y-9187001D01*
X8997218Y-8220819D02*
X9132218Y-8355819D01*
X9132218Y-8220819D02*
X8997218Y-8355819D01*
X9064718Y-8220819D02*
X9064718Y-8355819D01*
X8997218Y-8288319D02*
X9132218Y-8288319D01*
X9085141Y-8944936D02*
X9220141Y-9079936D01*
X9220141Y-8944936D02*
X9085141Y-9079936D01*
X9152641Y-8944936D02*
X9152641Y-9079936D01*
X9085141Y-9012436D02*
X9220141Y-9012436D01*
X9146759Y-8437467D02*
X9281759Y-8572467D01*
X9281759Y-8437467D02*
X9146759Y-8572467D01*
X9214259Y-8437467D02*
X9214259Y-8572467D01*
X9146759Y-8504967D02*
X9281759Y-8504967D01*
X9178490Y-8698795D02*
X9313490Y-8833795D01*
X9313490Y-8698795D02*
X9178490Y-8833795D01*
X9245990Y-8698795D02*
X9245990Y-8833795D01*
X9178490Y-8766295D02*
X9313490Y-8766295D01*
X10286510Y-8698795D02*
X10421510Y-8833795D01*
X10421510Y-8698795D02*
X10286510Y-8833795D01*
X10354010Y-8698795D02*
X10354010Y-8833795D01*
X10286510Y-8766295D02*
X10421510Y-8766295D01*
X10318241Y-8437467D02*
X10453241Y-8572467D01*
X10453241Y-8437467D02*
X10318241Y-8572467D01*
X10385741Y-8437467D02*
X10385741Y-8572467D01*
X10318241Y-8504967D02*
X10453241Y-8504967D01*
X10379859Y-8944936D02*
X10514859Y-9079936D01*
X10514859Y-8944936D02*
X10379859Y-9079936D01*
X10447359Y-8944936D02*
X10447359Y-9079936D01*
X10379859Y-9012436D02*
X10514859Y-9012436D01*
X10467783Y-8220819D02*
X10602783Y-8355819D01*
X10602783Y-8220819D02*
X10467783Y-8355819D01*
X10535283Y-8220819D02*
X10535283Y-8355819D01*
X10467783Y-8288319D02*
X10602783Y-8288319D01*
X10576902Y-9119501D02*
X10711902Y-9254501D01*
X10711902Y-9119501D02*
X10576902Y-9254501D01*
X10644402Y-9119501D02*
X10644402Y-9254501D01*
X10576902Y-9187001D02*
X10711902Y-9187001D01*
X10700876Y-8098482D02*
X10835876Y-8233482D01*
X10835876Y-8098482D02*
X10700876Y-8233482D01*
X10768376Y-8098482D02*
X10768376Y-8233482D01*
X10700876Y-8165982D02*
X10835876Y-8165982D01*
X10832500Y-9182500D02*
X10967500Y-9317500D01*
X10967500Y-9182500D02*
X10832500Y-9317500D01*
X10900000Y-9182500D02*
X10900000Y-9317500D01*
X10832500Y-9250000D02*
X10967500Y-9250000D01*
X10964124Y-8098482D02*
X11099124Y-8233482D01*
X11099124Y-8098482D02*
X10964124Y-8233482D01*
X11031624Y-8098482D02*
X11031624Y-8233482D01*
X10964124Y-8165982D02*
X11099124Y-8165982D01*
X11088098Y-9119501D02*
X11223098Y-9254501D01*
X11223098Y-9119501D02*
X11088098Y-9254501D01*
X11155598Y-9119501D02*
X11155598Y-9254501D01*
X11088098Y-9187001D02*
X11223098Y-9187001D01*
X11197217Y-8220819D02*
X11332217Y-8355819D01*
X11332217Y-8220819D02*
X11197217Y-8355819D01*
X11264717Y-8220819D02*
X11264717Y-8355819D01*
X11197217Y-8288319D02*
X11332217Y-8288319D01*
X11285141Y-8944936D02*
X11420141Y-9079936D01*
X11420141Y-8944936D02*
X11285141Y-9079936D01*
X11352641Y-8944936D02*
X11352641Y-9079936D01*
X11285141Y-9012436D02*
X11420141Y-9012436D01*
X11346759Y-8437467D02*
X11481759Y-8572467D01*
X11481759Y-8437467D02*
X11346759Y-8572467D01*
X11414259Y-8437467D02*
X11414259Y-8572467D01*
X11346759Y-8504967D02*
X11481759Y-8504967D01*
X11378490Y-8698795D02*
X11513490Y-8833795D01*
X11513490Y-8698795D02*
X11378490Y-8833795D01*
X11445990Y-8698795D02*
X11445990Y-8833795D01*
X11378490Y-8766295D02*
X11513490Y-8766295D01*
X12273750Y-8632500D02*
X12408750Y-8767500D01*
X12408750Y-8632500D02*
X12273750Y-8767500D01*
X12341250Y-8632500D02*
X12341250Y-8767500D01*
X12273750Y-8700000D02*
X12408750Y-8700000D01*
X12591250Y-8632500D02*
X12726250Y-8767500D01*
X12726250Y-8632500D02*
X12591250Y-8767500D01*
X12658750Y-8632500D02*
X12658750Y-8767500D01*
X12591250Y-8700000D02*
X12726250Y-8700000D01*
X13486510Y-8698795D02*
X13621510Y-8833795D01*
X13621510Y-8698795D02*
X13486510Y-8833795D01*
X13554010Y-8698795D02*
X13554010Y-8833795D01*
X13486510Y-8766295D02*
X13621510Y-8766295D01*
X13518241Y-8437467D02*
X13653241Y-8572467D01*
X13653241Y-8437467D02*
X13518241Y-8572467D01*
X13585741Y-8437467D02*
X13585741Y-8572467D01*
X13518241Y-8504967D02*
X13653241Y-8504967D01*
X13579859Y-8944936D02*
X13714859Y-9079936D01*
X13714859Y-8944936D02*
X13579859Y-9079936D01*
X13647359Y-8944936D02*
X13647359Y-9079936D01*
X13579859Y-9012436D02*
X13714859Y-9012436D01*
X13667782Y-8220819D02*
X13802782Y-8355819D01*
X13802782Y-8220819D02*
X13667782Y-8355819D01*
X13735282Y-8220819D02*
X13735282Y-8355819D01*
X13667782Y-8288319D02*
X13802782Y-8288319D01*
X13776902Y-9119501D02*
X13911902Y-9254501D01*
X13911902Y-9119501D02*
X13776902Y-9254501D01*
X13844402Y-9119501D02*
X13844402Y-9254501D01*
X13776902Y-9187001D02*
X13911902Y-9187001D01*
X13900876Y-8098482D02*
X14035876Y-8233482D01*
X14035876Y-8098482D02*
X13900876Y-8233482D01*
X13968376Y-8098482D02*
X13968376Y-8233482D01*
X13900876Y-8165982D02*
X14035876Y-8165982D01*
X14032500Y-9182500D02*
X14167500Y-9317500D01*
X14167500Y-9182500D02*
X14032500Y-9317500D01*
X14100000Y-9182500D02*
X14100000Y-9317500D01*
X14032500Y-9250000D02*
X14167500Y-9250000D01*
X14164124Y-8098482D02*
X14299124Y-8233482D01*
X14299124Y-8098482D02*
X14164124Y-8233482D01*
X14231624Y-8098482D02*
X14231624Y-8233482D01*
X14164124Y-8165982D02*
X14299124Y-8165982D01*
X14288098Y-9119501D02*
X14423098Y-9254501D01*
X14423098Y-9119501D02*
X14288098Y-9254501D01*
X14355598Y-9119501D02*
X14355598Y-9254501D01*
X14288098Y-9187001D02*
X14423098Y-9187001D01*
X14397217Y-8220819D02*
X14532217Y-8355819D01*
X14532217Y-8220819D02*
X14397217Y-8355819D01*
X14464717Y-8220819D02*
X14464717Y-8355819D01*
X14397217Y-8288319D02*
X14532217Y-8288319D01*
X14485141Y-8944936D02*
X14620141Y-9079936D01*
X14620141Y-8944936D02*
X14485141Y-9079936D01*
X14552641Y-8944936D02*
X14552641Y-9079936D01*
X14485141Y-9012436D02*
X14620141Y-9012436D01*
X14546759Y-8437467D02*
X14681759Y-8572467D01*
X14681759Y-8437467D02*
X14546759Y-8572467D01*
X14614259Y-8437467D02*
X14614259Y-8572467D01*
X14546759Y-8504967D02*
X14681759Y-8504967D01*
X14578490Y-8698795D02*
X14713490Y-8833795D01*
X14713490Y-8698795D02*
X14578490Y-8833795D01*
X14645990Y-8698795D02*
X14645990Y-8833795D01*
X14578490Y-8766295D02*
X14713490Y-8766295D01*
X15686510Y-8698795D02*
X15821510Y-8833795D01*
X15821510Y-8698795D02*
X15686510Y-8833795D01*
X15754010Y-8698795D02*
X15754010Y-8833795D01*
X15686510Y-8766295D02*
X15821510Y-8766295D01*
X15718241Y-8437467D02*
X15853241Y-8572467D01*
X15853241Y-8437467D02*
X15718241Y-8572467D01*
X15785741Y-8437467D02*
X15785741Y-8572467D01*
X15718241Y-8504967D02*
X15853241Y-8504967D01*
X15779859Y-8944936D02*
X15914859Y-9079936D01*
X15914859Y-8944936D02*
X15779859Y-9079936D01*
X15847359Y-8944936D02*
X15847359Y-9079936D01*
X15779859Y-9012436D02*
X15914859Y-9012436D01*
X15867782Y-8220819D02*
X16002782Y-8355819D01*
X16002782Y-8220819D02*
X15867782Y-8355819D01*
X15935282Y-8220819D02*
X15935282Y-8355819D01*
X15867782Y-8288319D02*
X16002782Y-8288319D01*
X15976902Y-9119501D02*
X16111902Y-9254501D01*
X16111902Y-9119501D02*
X15976902Y-9254501D01*
X16044402Y-9119501D02*
X16044402Y-9254501D01*
X15976902Y-9187001D02*
X16111902Y-9187001D01*
X16100876Y-8098482D02*
X16235876Y-8233482D01*
X16235876Y-8098482D02*
X16100876Y-8233482D01*
X16168376Y-8098482D02*
X16168376Y-8233482D01*
X16100876Y-8165982D02*
X16235876Y-8165982D01*
X16232500Y-9182500D02*
X16367500Y-9317500D01*
X16367500Y-9182500D02*
X16232500Y-9317500D01*
X16300000Y-9182500D02*
X16300000Y-9317500D01*
X16232500Y-9250000D02*
X16367500Y-9250000D01*
X16364124Y-8098482D02*
X16499124Y-8233482D01*
X16499124Y-8098482D02*
X16364124Y-8233482D01*
X16431624Y-8098482D02*
X16431624Y-8233482D01*
X16364124Y-8165982D02*
X16499124Y-8165982D01*
X16488098Y-9119501D02*
X16623098Y-9254501D01*
X16623098Y-9119501D02*
X16488098Y-9254501D01*
X16555598Y-9119501D02*
X16555598Y-9254501D01*
X16488098Y-9187001D02*
X16623098Y-9187001D01*
X16597217Y-8220819D02*
X16732217Y-8355819D01*
X16732217Y-8220819D02*
X16597217Y-8355819D01*
X16664717Y-8220819D02*
X16664717Y-8355819D01*
X16597217Y-8288319D02*
X16732217Y-8288319D01*
X16685141Y-8944936D02*
X16820141Y-9079936D01*
X16820141Y-8944936D02*
X16685141Y-9079936D01*
X16752641Y-8944936D02*
X16752641Y-9079936D01*
X16685141Y-9012436D02*
X16820141Y-9012436D01*
X16746759Y-8437467D02*
X16881759Y-8572467D01*
X16881759Y-8437467D02*
X16746759Y-8572467D01*
X16814259Y-8437467D02*
X16814259Y-8572467D01*
X16746759Y-8504967D02*
X16881759Y-8504967D01*
X16778490Y-8698795D02*
X16913490Y-8833795D01*
X16913490Y-8698795D02*
X16778490Y-8833795D01*
X16845990Y-8698795D02*
X16845990Y-8833795D01*
X16778490Y-8766295D02*
X16913490Y-8766295D01*
X17673750Y-8632500D02*
X17808750Y-8767500D01*
X17808750Y-8632500D02*
X17673750Y-8767500D01*
X17741250Y-8632500D02*
X17741250Y-8767500D01*
X17673750Y-8700000D02*
X17808750Y-8700000D01*
X17991250Y-8632500D02*
X18126250Y-8767500D01*
X18126250Y-8632500D02*
X17991250Y-8767500D01*
X18058750Y-8632500D02*
X18058750Y-8767500D01*
X17991250Y-8700000D02*
X18126250Y-8700000D01*
X18886510Y-8698795D02*
X19021510Y-8833795D01*
X19021510Y-8698795D02*
X18886510Y-8833795D01*
X18954010Y-8698795D02*
X18954010Y-8833795D01*
X18886510Y-8766295D02*
X19021510Y-8766295D01*
X18918241Y-8437467D02*
X19053241Y-8572467D01*
X19053241Y-8437467D02*
X18918241Y-8572467D01*
X18985741Y-8437467D02*
X18985741Y-8572467D01*
X18918241Y-8504967D02*
X19053241Y-8504967D01*
X18979859Y-8944936D02*
X19114859Y-9079936D01*
X19114859Y-8944936D02*
X18979859Y-9079936D01*
X19047359Y-8944936D02*
X19047359Y-9079936D01*
X18979859Y-9012436D02*
X19114859Y-9012436D01*
X19067783Y-8220819D02*
X19202783Y-8355819D01*
X19202783Y-8220819D02*
X19067783Y-8355819D01*
X19135283Y-8220819D02*
X19135283Y-8355819D01*
X19067783Y-8288319D02*
X19202783Y-8288319D01*
X19176902Y-9119501D02*
X19311902Y-9254501D01*
X19311902Y-9119501D02*
X19176902Y-9254501D01*
X19244402Y-9119501D02*
X19244402Y-9254501D01*
X19176902Y-9187001D02*
X19311902Y-9187001D01*
X19300876Y-8098482D02*
X19435876Y-8233482D01*
X19435876Y-8098482D02*
X19300876Y-8233482D01*
X19368376Y-8098482D02*
X19368376Y-8233482D01*
X19300876Y-8165982D02*
X19435876Y-8165982D01*
X19432500Y-9182500D02*
X19567500Y-9317500D01*
X19567500Y-9182500D02*
X19432500Y-9317500D01*
X19500000Y-9182500D02*
X19500000Y-9317500D01*
X19432500Y-9250000D02*
X19567500Y-9250000D01*
X19564124Y-8098482D02*
X19699124Y-8233482D01*
X19699124Y-8098482D02*
X19564124Y-8233482D01*
X19631624Y-8098482D02*
X19631624Y-8233482D01*
X19564124Y-8165982D02*
X19699124Y-8165982D01*
X19688098Y-9119501D02*
X19823098Y-9254501D01*
X19823098Y-9119501D02*
X19688098Y-9254501D01*
X19755598Y-9119501D02*
X19755598Y-9254501D01*
X19688098Y-9187001D02*
X19823098Y-9187001D01*
X19797218Y-8220819D02*
X19932218Y-8355819D01*
X19932218Y-8220819D02*
X19797218Y-8355819D01*
X19864718Y-8220819D02*
X19864718Y-8355819D01*
X19797218Y-8288319D02*
X19932218Y-8288319D01*
X19885141Y-8944936D02*
X20020141Y-9079936D01*
X20020141Y-8944936D02*
X19885141Y-9079936D01*
X19952641Y-8944936D02*
X19952641Y-9079936D01*
X19885141Y-9012436D02*
X20020141Y-9012436D01*
X19946759Y-8437467D02*
X20081759Y-8572467D01*
X20081759Y-8437467D02*
X19946759Y-8572467D01*
X20014259Y-8437467D02*
X20014259Y-8572467D01*
X19946759Y-8504967D02*
X20081759Y-8504967D01*
X19978490Y-8698795D02*
X20113490Y-8833795D01*
X20113490Y-8698795D02*
X19978490Y-8833795D01*
X20045990Y-8698795D02*
X20045990Y-8833795D01*
X19978490Y-8766295D02*
X20113490Y-8766295D01*
X21086510Y-8698795D02*
X21221510Y-8833795D01*
X21221510Y-8698795D02*
X21086510Y-8833795D01*
X21154010Y-8698795D02*
X21154010Y-8833795D01*
X21086510Y-8766295D02*
X21221510Y-8766295D01*
X21118241Y-8437467D02*
X21253241Y-8572467D01*
X21253241Y-8437467D02*
X21118241Y-8572467D01*
X21185741Y-8437467D02*
X21185741Y-8572467D01*
X21118241Y-8504967D02*
X21253241Y-8504967D01*
X21179859Y-8944936D02*
X21314859Y-9079936D01*
X21314859Y-8944936D02*
X21179859Y-9079936D01*
X21247359Y-8944936D02*
X21247359Y-9079936D01*
X21179859Y-9012436D02*
X21314859Y-9012436D01*
X21267783Y-8220819D02*
X21402783Y-8355819D01*
X21402783Y-8220819D02*
X21267783Y-8355819D01*
X21335283Y-8220819D02*
X21335283Y-8355819D01*
X21267783Y-8288319D02*
X21402783Y-8288319D01*
X21376902Y-9119501D02*
X21511902Y-9254501D01*
X21511902Y-9119501D02*
X21376902Y-9254501D01*
X21444402Y-9119501D02*
X21444402Y-9254501D01*
X21376902Y-9187001D02*
X21511902Y-9187001D01*
X21500876Y-8098482D02*
X21635876Y-8233482D01*
X21635876Y-8098482D02*
X21500876Y-8233482D01*
X21568376Y-8098482D02*
X21568376Y-8233482D01*
X21500876Y-8165982D02*
X21635876Y-8165982D01*
X21632500Y-9182500D02*
X21767500Y-9317500D01*
X21767500Y-9182500D02*
X21632500Y-9317500D01*
X21700000Y-9182500D02*
X21700000Y-9317500D01*
X21632500Y-9250000D02*
X21767500Y-9250000D01*
X21764124Y-8098482D02*
X21899124Y-8233482D01*
X21899124Y-8098482D02*
X21764124Y-8233482D01*
X21831624Y-8098482D02*
X21831624Y-8233482D01*
X21764124Y-8165982D02*
X21899124Y-8165982D01*
X21888098Y-9119501D02*
X22023098Y-9254501D01*
X22023098Y-9119501D02*
X21888098Y-9254501D01*
X21955598Y-9119501D02*
X21955598Y-9254501D01*
X21888098Y-9187001D02*
X22023098Y-9187001D01*
X21997218Y-8220819D02*
X22132218Y-8355819D01*
X22132218Y-8220819D02*
X21997218Y-8355819D01*
X22064718Y-8220819D02*
X22064718Y-8355819D01*
X21997218Y-8288319D02*
X22132218Y-8288319D01*
X22085141Y-8944936D02*
X22220141Y-9079936D01*
X22220141Y-8944936D02*
X22085141Y-9079936D01*
X22152641Y-8944936D02*
X22152641Y-9079936D01*
X22085141Y-9012436D02*
X22220141Y-9012436D01*
X22146759Y-8437467D02*
X22281759Y-8572467D01*
X22281759Y-8437467D02*
X22146759Y-8572467D01*
X22214259Y-8437467D02*
X22214259Y-8572467D01*
X22146759Y-8504967D02*
X22281759Y-8504967D01*
X22178490Y-8698795D02*
X22313490Y-8833795D01*
X22313490Y-8698795D02*
X22178490Y-8833795D01*
X22245990Y-8698795D02*
X22245990Y-8833795D01*
X22178490Y-8766295D02*
X22313490Y-8766295D01*
D14*
X10977430Y-10425000D02*
X11127430Y-10575000D01*
X11127430Y-10425000D02*
X10977430Y-10575000D01*
X11105464Y-10553034D02*
X11105464Y-10446967D01*
X10999397Y-10446967D01*
X10999397Y-10553034D01*
X11105464Y-10553034D01*
D15*
X14525000Y-10345000D02*
X14735000Y-10555000D01*
X14735000Y-10345000D02*
X14525000Y-10555000D01*
X14630000Y-10555000D02*
X14735000Y-10450000D01*
X14630000Y-10345000D01*
X14525000Y-10450000D01*
X14630000Y-10555000D01*
X15665000Y-10345000D02*
X15875000Y-10555000D01*
X15875000Y-10345000D02*
X15665000Y-10555000D01*
X15770000Y-10555000D02*
X15875000Y-10450000D01*
X15770000Y-10345000D01*
X15665000Y-10450000D01*
X15770000Y-10555000D01*
D16*
X7970000Y-6460000D02*
X7970000Y-6780000D01*
X7810000Y-6620000D02*
X8130000Y-6620000D01*
X8130000Y-6620000D02*
G75*
G02*
X7810000Y-6620000I-160000J0D01*
G01*
X7810000Y-6620000D02*
G75*
G02*
X8130000Y-6620000I160000J0D01*
G01*
X7970000Y-11220000D02*
X7970000Y-11540000D01*
X7810000Y-11380000D02*
X8130000Y-11380000D01*
X8130000Y-11380000D02*
G75*
G02*
X7810000Y-11380000I-160000J0D01*
G01*
X7810000Y-11380000D02*
G75*
G02*
X8130000Y-11380000I160000J0D01*
G01*
X22430000Y-6460000D02*
X22430000Y-6780000D01*
X22270000Y-6620000D02*
X22590000Y-6620000D01*
X22590000Y-6620000D02*
G75*
G02*
X22270000Y-6620000I-160000J0D01*
G01*
X22270000Y-6620000D02*
G75*
G02*
X22590000Y-6620000I160000J0D01*
G01*
X22430000Y-11220000D02*
X22430000Y-11540000D01*
X22270000Y-11380000D02*
X22590000Y-11380000D01*
X22590000Y-11380000D02*
G75*
G02*
X22270000Y-11380000I-160000J0D01*
G01*
X22270000Y-11380000D02*
G75*
G02*
X22590000Y-11380000I160000J0D01*
G01*
D11*
X7755777Y-12166484D02*
X7755777Y-11966484D01*
X7755777Y-11966484D02*
X7803396Y-11966484D01*
X7803396Y-11966484D02*
X7831967Y-11976008D01*
X7831967Y-11976008D02*
X7851015Y-11995055D01*
X7851015Y-11995055D02*
X7860539Y-12014103D01*
X7860539Y-12014103D02*
X7870062Y-12052198D01*
X7870062Y-12052198D02*
X7870062Y-12080769D01*
X7870062Y-12080769D02*
X7860539Y-12118865D01*
X7860539Y-12118865D02*
X7851015Y-12137912D01*
X7851015Y-12137912D02*
X7831967Y-12156960D01*
X7831967Y-12156960D02*
X7803396Y-12166484D01*
X7803396Y-12166484D02*
X7755777Y-12166484D01*
X7955777Y-12166484D02*
X7955777Y-12033150D01*
X7955777Y-12071246D02*
X7965301Y-12052198D01*
X7965301Y-12052198D02*
X7974824Y-12042674D01*
X7974824Y-12042674D02*
X7993872Y-12033150D01*
X7993872Y-12033150D02*
X8012920Y-12033150D01*
X8079586Y-12166484D02*
X8079586Y-12033150D01*
X8079586Y-11966484D02*
X8070062Y-11976008D01*
X8070062Y-11976008D02*
X8079586Y-11985531D01*
X8079586Y-11985531D02*
X8089110Y-11976008D01*
X8089110Y-11976008D02*
X8079586Y-11966484D01*
X8079586Y-11966484D02*
X8079586Y-11985531D01*
X8203396Y-12166484D02*
X8184348Y-12156960D01*
X8184348Y-12156960D02*
X8174824Y-12137912D01*
X8174824Y-12137912D02*
X8174824Y-11966484D01*
X8308158Y-12166484D02*
X8289110Y-12156960D01*
X8289110Y-12156960D02*
X8279586Y-12137912D01*
X8279586Y-12137912D02*
X8279586Y-11966484D01*
X8536729Y-12166484D02*
X8536729Y-11966484D01*
X8536729Y-11966484D02*
X8603396Y-12109341D01*
X8603396Y-12109341D02*
X8670063Y-11966484D01*
X8670063Y-11966484D02*
X8670063Y-12166484D01*
X8851015Y-12166484D02*
X8851015Y-12061722D01*
X8851015Y-12061722D02*
X8841491Y-12042674D01*
X8841491Y-12042674D02*
X8822444Y-12033150D01*
X8822444Y-12033150D02*
X8784348Y-12033150D01*
X8784348Y-12033150D02*
X8765301Y-12042674D01*
X8851015Y-12156960D02*
X8831967Y-12166484D01*
X8831967Y-12166484D02*
X8784348Y-12166484D01*
X8784348Y-12166484D02*
X8765301Y-12156960D01*
X8765301Y-12156960D02*
X8755777Y-12137912D01*
X8755777Y-12137912D02*
X8755777Y-12118865D01*
X8755777Y-12118865D02*
X8765301Y-12099817D01*
X8765301Y-12099817D02*
X8784348Y-12090293D01*
X8784348Y-12090293D02*
X8831967Y-12090293D01*
X8831967Y-12090293D02*
X8851015Y-12080769D01*
X8946253Y-12033150D02*
X8946253Y-12233150D01*
X8946253Y-12042674D02*
X8965301Y-12033150D01*
X8965301Y-12033150D02*
X9003396Y-12033150D01*
X9003396Y-12033150D02*
X9022444Y-12042674D01*
X9022444Y-12042674D02*
X9031967Y-12052198D01*
X9031967Y-12052198D02*
X9041491Y-12071246D01*
X9041491Y-12071246D02*
X9041491Y-12128388D01*
X9041491Y-12128388D02*
X9031967Y-12147436D01*
X9031967Y-12147436D02*
X9022444Y-12156960D01*
X9022444Y-12156960D02*
X9003396Y-12166484D01*
X9003396Y-12166484D02*
X8965301Y-12166484D01*
X8965301Y-12166484D02*
X8946253Y-12156960D01*
X9127205Y-12147436D02*
X9136729Y-12156960D01*
X9136729Y-12156960D02*
X9127205Y-12166484D01*
X9127205Y-12166484D02*
X9117682Y-12156960D01*
X9117682Y-12156960D02*
X9127205Y-12147436D01*
X9127205Y-12147436D02*
X9127205Y-12166484D01*
X9127205Y-12042674D02*
X9136729Y-12052198D01*
X9136729Y-12052198D02*
X9127205Y-12061722D01*
X9127205Y-12061722D02*
X9117682Y-12052198D01*
X9117682Y-12052198D02*
X9127205Y-12042674D01*
X9127205Y-12042674D02*
X9127205Y-12061722D01*
D10*
X7465000Y-12480000D02*
X7495000Y-12510000D01*
X7495000Y-12480000D02*
X7465000Y-12510000D01*
D11*
X7793872Y-12386484D02*
X7812920Y-12386484D01*
X7812920Y-12386484D02*
X7831967Y-12396008D01*
X7831967Y-12396008D02*
X7841491Y-12405531D01*
X7841491Y-12405531D02*
X7851015Y-12424579D01*
X7851015Y-12424579D02*
X7860539Y-12462674D01*
X7860539Y-12462674D02*
X7860539Y-12510293D01*
X7860539Y-12510293D02*
X7851015Y-12548388D01*
X7851015Y-12548388D02*
X7841491Y-12567436D01*
X7841491Y-12567436D02*
X7831967Y-12576960D01*
X7831967Y-12576960D02*
X7812920Y-12586484D01*
X7812920Y-12586484D02*
X7793872Y-12586484D01*
X7793872Y-12586484D02*
X7774824Y-12576960D01*
X7774824Y-12576960D02*
X7765301Y-12567436D01*
X7765301Y-12567436D02*
X7755777Y-12548388D01*
X7755777Y-12548388D02*
X7746253Y-12510293D01*
X7746253Y-12510293D02*
X7746253Y-12462674D01*
X7746253Y-12462674D02*
X7755777Y-12424579D01*
X7755777Y-12424579D02*
X7765301Y-12405531D01*
X7765301Y-12405531D02*
X7774824Y-12396008D01*
X7774824Y-12396008D02*
X7793872Y-12386484D01*
X7946253Y-12567436D02*
X7955777Y-12576960D01*
X7955777Y-12576960D02*
X7946253Y-12586484D01*
X7946253Y-12586484D02*
X7936729Y-12576960D01*
X7936729Y-12576960D02*
X7946253Y-12567436D01*
X7946253Y-12567436D02*
X7946253Y-12586484D01*
X8022443Y-12386484D02*
X8146253Y-12386484D01*
X8146253Y-12386484D02*
X8079586Y-12462674D01*
X8079586Y-12462674D02*
X8108158Y-12462674D01*
X8108158Y-12462674D02*
X8127205Y-12472198D01*
X8127205Y-12472198D02*
X8136729Y-12481722D01*
X8136729Y-12481722D02*
X8146253Y-12500769D01*
X8146253Y-12500769D02*
X8146253Y-12548388D01*
X8146253Y-12548388D02*
X8136729Y-12567436D01*
X8136729Y-12567436D02*
X8127205Y-12576960D01*
X8127205Y-12576960D02*
X8108158Y-12586484D01*
X8108158Y-12586484D02*
X8051015Y-12586484D01*
X8051015Y-12586484D02*
X8031967Y-12576960D01*
X8031967Y-12576960D02*
X8022443Y-12567436D01*
X8270062Y-12386484D02*
X8289110Y-12386484D01*
X8289110Y-12386484D02*
X8308158Y-12396008D01*
X8308158Y-12396008D02*
X8317682Y-12405531D01*
X8317682Y-12405531D02*
X8327205Y-12424579D01*
X8327205Y-12424579D02*
X8336729Y-12462674D01*
X8336729Y-12462674D02*
X8336729Y-12510293D01*
X8336729Y-12510293D02*
X8327205Y-12548388D01*
X8327205Y-12548388D02*
X8317682Y-12567436D01*
X8317682Y-12567436D02*
X8308158Y-12576960D01*
X8308158Y-12576960D02*
X8289110Y-12586484D01*
X8289110Y-12586484D02*
X8270062Y-12586484D01*
X8270062Y-12586484D02*
X8251015Y-12576960D01*
X8251015Y-12576960D02*
X8241491Y-12567436D01*
X8241491Y-12567436D02*
X8231967Y-12548388D01*
X8231967Y-12548388D02*
X8222443Y-12510293D01*
X8222443Y-12510293D02*
X8222443Y-12462674D01*
X8222443Y-12462674D02*
X8231967Y-12424579D01*
X8231967Y-12424579D02*
X8241491Y-12405531D01*
X8241491Y-12405531D02*
X8251015Y-12396008D01*
X8251015Y-12396008D02*
X8270062Y-12386484D01*
X8460539Y-12386484D02*
X8479586Y-12386484D01*
X8479586Y-12386484D02*
X8498634Y-12396008D01*
X8498634Y-12396008D02*
X8508158Y-12405531D01*
X8508158Y-12405531D02*
X8517682Y-12424579D01*
X8517682Y-12424579D02*
X8527205Y-12462674D01*
X8527205Y-12462674D02*
X8527205Y-12510293D01*
X8527205Y-12510293D02*
X8517682Y-12548388D01*
X8517682Y-12548388D02*
X8508158Y-12567436D01*
X8508158Y-12567436D02*
X8498634Y-12576960D01*
X8498634Y-12576960D02*
X8479586Y-12586484D01*
X8479586Y-12586484D02*
X8460539Y-12586484D01*
X8460539Y-12586484D02*
X8441491Y-12576960D01*
X8441491Y-12576960D02*
X8431967Y-12567436D01*
X8431967Y-12567436D02*
X8422444Y-12548388D01*
X8422444Y-12548388D02*
X8412920Y-12510293D01*
X8412920Y-12510293D02*
X8412920Y-12462674D01*
X8412920Y-12462674D02*
X8422444Y-12424579D01*
X8422444Y-12424579D02*
X8431967Y-12405531D01*
X8431967Y-12405531D02*
X8441491Y-12396008D01*
X8441491Y-12396008D02*
X8460539Y-12386484D01*
X8612920Y-12586484D02*
X8612920Y-12453150D01*
X8612920Y-12472198D02*
X8622444Y-12462674D01*
X8622444Y-12462674D02*
X8641491Y-12453150D01*
X8641491Y-12453150D02*
X8670063Y-12453150D01*
X8670063Y-12453150D02*
X8689110Y-12462674D01*
X8689110Y-12462674D02*
X8698634Y-12481722D01*
X8698634Y-12481722D02*
X8698634Y-12586484D01*
X8698634Y-12481722D02*
X8708158Y-12462674D01*
X8708158Y-12462674D02*
X8727205Y-12453150D01*
X8727205Y-12453150D02*
X8755777Y-12453150D01*
X8755777Y-12453150D02*
X8774825Y-12462674D01*
X8774825Y-12462674D02*
X8784348Y-12481722D01*
X8784348Y-12481722D02*
X8784348Y-12586484D01*
X8879586Y-12586484D02*
X8879586Y-12453150D01*
X8879586Y-12472198D02*
X8889110Y-12462674D01*
X8889110Y-12462674D02*
X8908158Y-12453150D01*
X8908158Y-12453150D02*
X8936729Y-12453150D01*
X8936729Y-12453150D02*
X8955777Y-12462674D01*
X8955777Y-12462674D02*
X8965301Y-12481722D01*
X8965301Y-12481722D02*
X8965301Y-12586484D01*
X8965301Y-12481722D02*
X8974825Y-12462674D01*
X8974825Y-12462674D02*
X8993872Y-12453150D01*
X8993872Y-12453150D02*
X9022444Y-12453150D01*
X9022444Y-12453150D02*
X9041491Y-12462674D01*
X9041491Y-12462674D02*
X9051015Y-12481722D01*
X9051015Y-12481722D02*
X9051015Y-12586484D01*
X9441491Y-12376960D02*
X9270063Y-12634103D01*
X9698634Y-12386484D02*
X9717682Y-12386484D01*
X9717682Y-12386484D02*
X9736729Y-12396008D01*
X9736729Y-12396008D02*
X9746253Y-12405531D01*
X9746253Y-12405531D02*
X9755777Y-12424579D01*
X9755777Y-12424579D02*
X9765301Y-12462674D01*
X9765301Y-12462674D02*
X9765301Y-12510293D01*
X9765301Y-12510293D02*
X9755777Y-12548388D01*
X9755777Y-12548388D02*
X9746253Y-12567436D01*
X9746253Y-12567436D02*
X9736729Y-12576960D01*
X9736729Y-12576960D02*
X9717682Y-12586484D01*
X9717682Y-12586484D02*
X9698634Y-12586484D01*
X9698634Y-12586484D02*
X9679587Y-12576960D01*
X9679587Y-12576960D02*
X9670063Y-12567436D01*
X9670063Y-12567436D02*
X9660539Y-12548388D01*
X9660539Y-12548388D02*
X9651015Y-12510293D01*
X9651015Y-12510293D02*
X9651015Y-12462674D01*
X9651015Y-12462674D02*
X9660539Y-12424579D01*
X9660539Y-12424579D02*
X9670063Y-12405531D01*
X9670063Y-12405531D02*
X9679587Y-12396008D01*
X9679587Y-12396008D02*
X9698634Y-12386484D01*
X9851015Y-12567436D02*
X9860539Y-12576960D01*
X9860539Y-12576960D02*
X9851015Y-12586484D01*
X9851015Y-12586484D02*
X9841491Y-12576960D01*
X9841491Y-12576960D02*
X9851015Y-12567436D01*
X9851015Y-12567436D02*
X9851015Y-12586484D01*
X9984348Y-12386484D02*
X10003396Y-12386484D01*
X10003396Y-12386484D02*
X10022444Y-12396008D01*
X10022444Y-12396008D02*
X10031968Y-12405531D01*
X10031968Y-12405531D02*
X10041491Y-12424579D01*
X10041491Y-12424579D02*
X10051015Y-12462674D01*
X10051015Y-12462674D02*
X10051015Y-12510293D01*
X10051015Y-12510293D02*
X10041491Y-12548388D01*
X10041491Y-12548388D02*
X10031968Y-12567436D01*
X10031968Y-12567436D02*
X10022444Y-12576960D01*
X10022444Y-12576960D02*
X10003396Y-12586484D01*
X10003396Y-12586484D02*
X9984348Y-12586484D01*
X9984348Y-12586484D02*
X9965301Y-12576960D01*
X9965301Y-12576960D02*
X9955777Y-12567436D01*
X9955777Y-12567436D02*
X9946253Y-12548388D01*
X9946253Y-12548388D02*
X9936729Y-12510293D01*
X9936729Y-12510293D02*
X9936729Y-12462674D01*
X9936729Y-12462674D02*
X9946253Y-12424579D01*
X9946253Y-12424579D02*
X9955777Y-12405531D01*
X9955777Y-12405531D02*
X9965301Y-12396008D01*
X9965301Y-12396008D02*
X9984348Y-12386484D01*
X10241491Y-12586484D02*
X10127206Y-12586484D01*
X10184348Y-12586484D02*
X10184348Y-12386484D01*
X10184348Y-12386484D02*
X10165301Y-12415055D01*
X10165301Y-12415055D02*
X10146253Y-12434103D01*
X10146253Y-12434103D02*
X10127206Y-12443627D01*
X10431968Y-12586484D02*
X10317682Y-12586484D01*
X10374825Y-12586484D02*
X10374825Y-12386484D01*
X10374825Y-12386484D02*
X10355777Y-12415055D01*
X10355777Y-12415055D02*
X10336729Y-12434103D01*
X10336729Y-12434103D02*
X10317682Y-12443627D01*
X10546253Y-12472198D02*
X10527206Y-12462674D01*
X10527206Y-12462674D02*
X10517682Y-12453150D01*
X10517682Y-12453150D02*
X10508158Y-12434103D01*
X10508158Y-12434103D02*
X10508158Y-12424579D01*
X10508158Y-12424579D02*
X10517682Y-12405531D01*
X10517682Y-12405531D02*
X10527206Y-12396008D01*
X10527206Y-12396008D02*
X10546253Y-12386484D01*
X10546253Y-12386484D02*
X10584349Y-12386484D01*
X10584349Y-12386484D02*
X10603396Y-12396008D01*
X10603396Y-12396008D02*
X10612920Y-12405531D01*
X10612920Y-12405531D02*
X10622444Y-12424579D01*
X10622444Y-12424579D02*
X10622444Y-12434103D01*
X10622444Y-12434103D02*
X10612920Y-12453150D01*
X10612920Y-12453150D02*
X10603396Y-12462674D01*
X10603396Y-12462674D02*
X10584349Y-12472198D01*
X10584349Y-12472198D02*
X10546253Y-12472198D01*
X10546253Y-12472198D02*
X10527206Y-12481722D01*
X10527206Y-12481722D02*
X10517682Y-12491246D01*
X10517682Y-12491246D02*
X10508158Y-12510293D01*
X10508158Y-12510293D02*
X10508158Y-12548388D01*
X10508158Y-12548388D02*
X10517682Y-12567436D01*
X10517682Y-12567436D02*
X10527206Y-12576960D01*
X10527206Y-12576960D02*
X10546253Y-12586484D01*
X10546253Y-12586484D02*
X10584349Y-12586484D01*
X10584349Y-12586484D02*
X10603396Y-12576960D01*
X10603396Y-12576960D02*
X10612920Y-12567436D01*
X10612920Y-12567436D02*
X10622444Y-12548388D01*
X10622444Y-12548388D02*
X10622444Y-12510293D01*
X10622444Y-12510293D02*
X10612920Y-12491246D01*
X10612920Y-12491246D02*
X10603396Y-12481722D01*
X10603396Y-12481722D02*
X10584349Y-12472198D01*
X10698634Y-12386484D02*
X10698634Y-12424579D01*
X10774825Y-12386484D02*
X10774825Y-12424579D01*
X11070063Y-12662674D02*
X11060539Y-12653150D01*
X11060539Y-12653150D02*
X11041491Y-12624579D01*
X11041491Y-12624579D02*
X11031968Y-12605531D01*
X11031968Y-12605531D02*
X11022444Y-12576960D01*
X11022444Y-12576960D02*
X11012920Y-12529341D01*
X11012920Y-12529341D02*
X11012920Y-12491246D01*
X11012920Y-12491246D02*
X11022444Y-12443627D01*
X11022444Y-12443627D02*
X11031968Y-12415055D01*
X11031968Y-12415055D02*
X11041491Y-12396008D01*
X11041491Y-12396008D02*
X11060539Y-12367436D01*
X11060539Y-12367436D02*
X11070063Y-12357912D01*
X11136730Y-12405531D02*
X11146253Y-12396008D01*
X11146253Y-12396008D02*
X11165301Y-12386484D01*
X11165301Y-12386484D02*
X11212920Y-12386484D01*
X11212920Y-12386484D02*
X11231968Y-12396008D01*
X11231968Y-12396008D02*
X11241491Y-12405531D01*
X11241491Y-12405531D02*
X11251015Y-12424579D01*
X11251015Y-12424579D02*
X11251015Y-12443627D01*
X11251015Y-12443627D02*
X11241491Y-12472198D01*
X11241491Y-12472198D02*
X11127206Y-12586484D01*
X11127206Y-12586484D02*
X11251015Y-12586484D01*
X11422444Y-12386484D02*
X11384348Y-12386484D01*
X11384348Y-12386484D02*
X11365301Y-12396008D01*
X11365301Y-12396008D02*
X11355777Y-12405531D01*
X11355777Y-12405531D02*
X11336729Y-12434103D01*
X11336729Y-12434103D02*
X11327206Y-12472198D01*
X11327206Y-12472198D02*
X11327206Y-12548388D01*
X11327206Y-12548388D02*
X11336729Y-12567436D01*
X11336729Y-12567436D02*
X11346253Y-12576960D01*
X11346253Y-12576960D02*
X11365301Y-12586484D01*
X11365301Y-12586484D02*
X11403396Y-12586484D01*
X11403396Y-12586484D02*
X11422444Y-12576960D01*
X11422444Y-12576960D02*
X11431968Y-12567436D01*
X11431968Y-12567436D02*
X11441491Y-12548388D01*
X11441491Y-12548388D02*
X11441491Y-12500769D01*
X11441491Y-12500769D02*
X11431968Y-12481722D01*
X11431968Y-12481722D02*
X11422444Y-12472198D01*
X11422444Y-12472198D02*
X11403396Y-12462674D01*
X11403396Y-12462674D02*
X11365301Y-12462674D01*
X11365301Y-12462674D02*
X11346253Y-12472198D01*
X11346253Y-12472198D02*
X11336729Y-12481722D01*
X11336729Y-12481722D02*
X11327206Y-12500769D01*
X11508158Y-12386484D02*
X11641491Y-12386484D01*
X11641491Y-12386484D02*
X11555777Y-12586484D01*
X11870063Y-12586484D02*
X11870063Y-12386484D01*
X11955777Y-12586484D02*
X11955777Y-12481722D01*
X11955777Y-12481722D02*
X11946253Y-12462674D01*
X11946253Y-12462674D02*
X11927206Y-12453150D01*
X11927206Y-12453150D02*
X11898634Y-12453150D01*
X11898634Y-12453150D02*
X11879587Y-12462674D01*
X11879587Y-12462674D02*
X11870063Y-12472198D01*
X12079587Y-12586484D02*
X12060539Y-12576960D01*
X12060539Y-12576960D02*
X12051015Y-12567436D01*
X12051015Y-12567436D02*
X12041491Y-12548388D01*
X12041491Y-12548388D02*
X12041491Y-12491246D01*
X12041491Y-12491246D02*
X12051015Y-12472198D01*
X12051015Y-12472198D02*
X12060539Y-12462674D01*
X12060539Y-12462674D02*
X12079587Y-12453150D01*
X12079587Y-12453150D02*
X12108158Y-12453150D01*
X12108158Y-12453150D02*
X12127206Y-12462674D01*
X12127206Y-12462674D02*
X12136730Y-12472198D01*
X12136730Y-12472198D02*
X12146253Y-12491246D01*
X12146253Y-12491246D02*
X12146253Y-12548388D01*
X12146253Y-12548388D02*
X12136730Y-12567436D01*
X12136730Y-12567436D02*
X12127206Y-12576960D01*
X12127206Y-12576960D02*
X12108158Y-12586484D01*
X12108158Y-12586484D02*
X12079587Y-12586484D01*
X12260539Y-12586484D02*
X12241491Y-12576960D01*
X12241491Y-12576960D02*
X12231968Y-12557912D01*
X12231968Y-12557912D02*
X12231968Y-12386484D01*
X12412920Y-12576960D02*
X12393872Y-12586484D01*
X12393872Y-12586484D02*
X12355777Y-12586484D01*
X12355777Y-12586484D02*
X12336730Y-12576960D01*
X12336730Y-12576960D02*
X12327206Y-12557912D01*
X12327206Y-12557912D02*
X12327206Y-12481722D01*
X12327206Y-12481722D02*
X12336730Y-12462674D01*
X12336730Y-12462674D02*
X12355777Y-12453150D01*
X12355777Y-12453150D02*
X12393872Y-12453150D01*
X12393872Y-12453150D02*
X12412920Y-12462674D01*
X12412920Y-12462674D02*
X12422444Y-12481722D01*
X12422444Y-12481722D02*
X12422444Y-12500769D01*
X12422444Y-12500769D02*
X12327206Y-12519817D01*
X12498634Y-12576960D02*
X12517682Y-12586484D01*
X12517682Y-12586484D02*
X12555777Y-12586484D01*
X12555777Y-12586484D02*
X12574825Y-12576960D01*
X12574825Y-12576960D02*
X12584349Y-12557912D01*
X12584349Y-12557912D02*
X12584349Y-12548388D01*
X12584349Y-12548388D02*
X12574825Y-12529341D01*
X12574825Y-12529341D02*
X12555777Y-12519817D01*
X12555777Y-12519817D02*
X12527206Y-12519817D01*
X12527206Y-12519817D02*
X12508158Y-12510293D01*
X12508158Y-12510293D02*
X12498634Y-12491246D01*
X12498634Y-12491246D02*
X12498634Y-12481722D01*
X12498634Y-12481722D02*
X12508158Y-12462674D01*
X12508158Y-12462674D02*
X12527206Y-12453150D01*
X12527206Y-12453150D02*
X12555777Y-12453150D01*
X12555777Y-12453150D02*
X12574825Y-12462674D01*
X12651015Y-12662674D02*
X12660539Y-12653150D01*
X12660539Y-12653150D02*
X12679587Y-12624579D01*
X12679587Y-12624579D02*
X12689111Y-12605531D01*
X12689111Y-12605531D02*
X12698634Y-12576960D01*
X12698634Y-12576960D02*
X12708158Y-12529341D01*
X12708158Y-12529341D02*
X12708158Y-12491246D01*
X12708158Y-12491246D02*
X12698634Y-12443627D01*
X12698634Y-12443627D02*
X12689111Y-12415055D01*
X12689111Y-12415055D02*
X12679587Y-12396008D01*
X12679587Y-12396008D02*
X12660539Y-12367436D01*
X12660539Y-12367436D02*
X12651015Y-12357912D01*
D10*
X7495000Y-12759000D02*
G75*
G02*
X7460000Y-12759000I-17500J0D01*
G01*
X7460000Y-12759000D02*
G75*
G02*
X7495000Y-12759000I17500J0D01*
G01*
D11*
X7793872Y-12650484D02*
X7812920Y-12650484D01*
X7812920Y-12650484D02*
X7831967Y-12660008D01*
X7831967Y-12660008D02*
X7841491Y-12669531D01*
X7841491Y-12669531D02*
X7851015Y-12688579D01*
X7851015Y-12688579D02*
X7860539Y-12726674D01*
X7860539Y-12726674D02*
X7860539Y-12774293D01*
X7860539Y-12774293D02*
X7851015Y-12812388D01*
X7851015Y-12812388D02*
X7841491Y-12831436D01*
X7841491Y-12831436D02*
X7831967Y-12840960D01*
X7831967Y-12840960D02*
X7812920Y-12850484D01*
X7812920Y-12850484D02*
X7793872Y-12850484D01*
X7793872Y-12850484D02*
X7774824Y-12840960D01*
X7774824Y-12840960D02*
X7765301Y-12831436D01*
X7765301Y-12831436D02*
X7755777Y-12812388D01*
X7755777Y-12812388D02*
X7746253Y-12774293D01*
X7746253Y-12774293D02*
X7746253Y-12726674D01*
X7746253Y-12726674D02*
X7755777Y-12688579D01*
X7755777Y-12688579D02*
X7765301Y-12669531D01*
X7765301Y-12669531D02*
X7774824Y-12660008D01*
X7774824Y-12660008D02*
X7793872Y-12650484D01*
X7946253Y-12831436D02*
X7955777Y-12840960D01*
X7955777Y-12840960D02*
X7946253Y-12850484D01*
X7946253Y-12850484D02*
X7936729Y-12840960D01*
X7936729Y-12840960D02*
X7946253Y-12831436D01*
X7946253Y-12831436D02*
X7946253Y-12850484D01*
X8022443Y-12650484D02*
X8146253Y-12650484D01*
X8146253Y-12650484D02*
X8079586Y-12726674D01*
X8079586Y-12726674D02*
X8108158Y-12726674D01*
X8108158Y-12726674D02*
X8127205Y-12736198D01*
X8127205Y-12736198D02*
X8136729Y-12745722D01*
X8136729Y-12745722D02*
X8146253Y-12764769D01*
X8146253Y-12764769D02*
X8146253Y-12812388D01*
X8146253Y-12812388D02*
X8136729Y-12831436D01*
X8136729Y-12831436D02*
X8127205Y-12840960D01*
X8127205Y-12840960D02*
X8108158Y-12850484D01*
X8108158Y-12850484D02*
X8051015Y-12850484D01*
X8051015Y-12850484D02*
X8031967Y-12840960D01*
X8031967Y-12840960D02*
X8022443Y-12831436D01*
X8327205Y-12650484D02*
X8231967Y-12650484D01*
X8231967Y-12650484D02*
X8222443Y-12745722D01*
X8222443Y-12745722D02*
X8231967Y-12736198D01*
X8231967Y-12736198D02*
X8251015Y-12726674D01*
X8251015Y-12726674D02*
X8298634Y-12726674D01*
X8298634Y-12726674D02*
X8317682Y-12736198D01*
X8317682Y-12736198D02*
X8327205Y-12745722D01*
X8327205Y-12745722D02*
X8336729Y-12764769D01*
X8336729Y-12764769D02*
X8336729Y-12812388D01*
X8336729Y-12812388D02*
X8327205Y-12831436D01*
X8327205Y-12831436D02*
X8317682Y-12840960D01*
X8317682Y-12840960D02*
X8298634Y-12850484D01*
X8298634Y-12850484D02*
X8251015Y-12850484D01*
X8251015Y-12850484D02*
X8231967Y-12840960D01*
X8231967Y-12840960D02*
X8222443Y-12831436D01*
X8460539Y-12650484D02*
X8479586Y-12650484D01*
X8479586Y-12650484D02*
X8498634Y-12660008D01*
X8498634Y-12660008D02*
X8508158Y-12669531D01*
X8508158Y-12669531D02*
X8517682Y-12688579D01*
X8517682Y-12688579D02*
X8527205Y-12726674D01*
X8527205Y-12726674D02*
X8527205Y-12774293D01*
X8527205Y-12774293D02*
X8517682Y-12812388D01*
X8517682Y-12812388D02*
X8508158Y-12831436D01*
X8508158Y-12831436D02*
X8498634Y-12840960D01*
X8498634Y-12840960D02*
X8479586Y-12850484D01*
X8479586Y-12850484D02*
X8460539Y-12850484D01*
X8460539Y-12850484D02*
X8441491Y-12840960D01*
X8441491Y-12840960D02*
X8431967Y-12831436D01*
X8431967Y-12831436D02*
X8422444Y-12812388D01*
X8422444Y-12812388D02*
X8412920Y-12774293D01*
X8412920Y-12774293D02*
X8412920Y-12726674D01*
X8412920Y-12726674D02*
X8422444Y-12688579D01*
X8422444Y-12688579D02*
X8431967Y-12669531D01*
X8431967Y-12669531D02*
X8441491Y-12660008D01*
X8441491Y-12660008D02*
X8460539Y-12650484D01*
X8612920Y-12850484D02*
X8612920Y-12717150D01*
X8612920Y-12736198D02*
X8622444Y-12726674D01*
X8622444Y-12726674D02*
X8641491Y-12717150D01*
X8641491Y-12717150D02*
X8670063Y-12717150D01*
X8670063Y-12717150D02*
X8689110Y-12726674D01*
X8689110Y-12726674D02*
X8698634Y-12745722D01*
X8698634Y-12745722D02*
X8698634Y-12850484D01*
X8698634Y-12745722D02*
X8708158Y-12726674D01*
X8708158Y-12726674D02*
X8727205Y-12717150D01*
X8727205Y-12717150D02*
X8755777Y-12717150D01*
X8755777Y-12717150D02*
X8774825Y-12726674D01*
X8774825Y-12726674D02*
X8784348Y-12745722D01*
X8784348Y-12745722D02*
X8784348Y-12850484D01*
X8879586Y-12850484D02*
X8879586Y-12717150D01*
X8879586Y-12736198D02*
X8889110Y-12726674D01*
X8889110Y-12726674D02*
X8908158Y-12717150D01*
X8908158Y-12717150D02*
X8936729Y-12717150D01*
X8936729Y-12717150D02*
X8955777Y-12726674D01*
X8955777Y-12726674D02*
X8965301Y-12745722D01*
X8965301Y-12745722D02*
X8965301Y-12850484D01*
X8965301Y-12745722D02*
X8974825Y-12726674D01*
X8974825Y-12726674D02*
X8993872Y-12717150D01*
X8993872Y-12717150D02*
X9022444Y-12717150D01*
X9022444Y-12717150D02*
X9041491Y-12726674D01*
X9041491Y-12726674D02*
X9051015Y-12745722D01*
X9051015Y-12745722D02*
X9051015Y-12850484D01*
X9441491Y-12640960D02*
X9270063Y-12898103D01*
X9698634Y-12650484D02*
X9717682Y-12650484D01*
X9717682Y-12650484D02*
X9736729Y-12660008D01*
X9736729Y-12660008D02*
X9746253Y-12669531D01*
X9746253Y-12669531D02*
X9755777Y-12688579D01*
X9755777Y-12688579D02*
X9765301Y-12726674D01*
X9765301Y-12726674D02*
X9765301Y-12774293D01*
X9765301Y-12774293D02*
X9755777Y-12812388D01*
X9755777Y-12812388D02*
X9746253Y-12831436D01*
X9746253Y-12831436D02*
X9736729Y-12840960D01*
X9736729Y-12840960D02*
X9717682Y-12850484D01*
X9717682Y-12850484D02*
X9698634Y-12850484D01*
X9698634Y-12850484D02*
X9679587Y-12840960D01*
X9679587Y-12840960D02*
X9670063Y-12831436D01*
X9670063Y-12831436D02*
X9660539Y-12812388D01*
X9660539Y-12812388D02*
X9651015Y-12774293D01*
X9651015Y-12774293D02*
X9651015Y-12726674D01*
X9651015Y-12726674D02*
X9660539Y-12688579D01*
X9660539Y-12688579D02*
X9670063Y-12669531D01*
X9670063Y-12669531D02*
X9679587Y-12660008D01*
X9679587Y-12660008D02*
X9698634Y-12650484D01*
X9851015Y-12831436D02*
X9860539Y-12840960D01*
X9860539Y-12840960D02*
X9851015Y-12850484D01*
X9851015Y-12850484D02*
X9841491Y-12840960D01*
X9841491Y-12840960D02*
X9851015Y-12831436D01*
X9851015Y-12831436D02*
X9851015Y-12850484D01*
X9984348Y-12650484D02*
X10003396Y-12650484D01*
X10003396Y-12650484D02*
X10022444Y-12660008D01*
X10022444Y-12660008D02*
X10031968Y-12669531D01*
X10031968Y-12669531D02*
X10041491Y-12688579D01*
X10041491Y-12688579D02*
X10051015Y-12726674D01*
X10051015Y-12726674D02*
X10051015Y-12774293D01*
X10051015Y-12774293D02*
X10041491Y-12812388D01*
X10041491Y-12812388D02*
X10031968Y-12831436D01*
X10031968Y-12831436D02*
X10022444Y-12840960D01*
X10022444Y-12840960D02*
X10003396Y-12850484D01*
X10003396Y-12850484D02*
X9984348Y-12850484D01*
X9984348Y-12850484D02*
X9965301Y-12840960D01*
X9965301Y-12840960D02*
X9955777Y-12831436D01*
X9955777Y-12831436D02*
X9946253Y-12812388D01*
X9946253Y-12812388D02*
X9936729Y-12774293D01*
X9936729Y-12774293D02*
X9936729Y-12726674D01*
X9936729Y-12726674D02*
X9946253Y-12688579D01*
X9946253Y-12688579D02*
X9955777Y-12669531D01*
X9955777Y-12669531D02*
X9965301Y-12660008D01*
X9965301Y-12660008D02*
X9984348Y-12650484D01*
X10241491Y-12850484D02*
X10127206Y-12850484D01*
X10184348Y-12850484D02*
X10184348Y-12650484D01*
X10184348Y-12650484D02*
X10165301Y-12679055D01*
X10165301Y-12679055D02*
X10146253Y-12698103D01*
X10146253Y-12698103D02*
X10127206Y-12707627D01*
X10308158Y-12650484D02*
X10431968Y-12650484D01*
X10431968Y-12650484D02*
X10365301Y-12726674D01*
X10365301Y-12726674D02*
X10393872Y-12726674D01*
X10393872Y-12726674D02*
X10412920Y-12736198D01*
X10412920Y-12736198D02*
X10422444Y-12745722D01*
X10422444Y-12745722D02*
X10431968Y-12764769D01*
X10431968Y-12764769D02*
X10431968Y-12812388D01*
X10431968Y-12812388D02*
X10422444Y-12831436D01*
X10422444Y-12831436D02*
X10412920Y-12840960D01*
X10412920Y-12840960D02*
X10393872Y-12850484D01*
X10393872Y-12850484D02*
X10336729Y-12850484D01*
X10336729Y-12850484D02*
X10317682Y-12840960D01*
X10317682Y-12840960D02*
X10308158Y-12831436D01*
X10546253Y-12736198D02*
X10527206Y-12726674D01*
X10527206Y-12726674D02*
X10517682Y-12717150D01*
X10517682Y-12717150D02*
X10508158Y-12698103D01*
X10508158Y-12698103D02*
X10508158Y-12688579D01*
X10508158Y-12688579D02*
X10517682Y-12669531D01*
X10517682Y-12669531D02*
X10527206Y-12660008D01*
X10527206Y-12660008D02*
X10546253Y-12650484D01*
X10546253Y-12650484D02*
X10584349Y-12650484D01*
X10584349Y-12650484D02*
X10603396Y-12660008D01*
X10603396Y-12660008D02*
X10612920Y-12669531D01*
X10612920Y-12669531D02*
X10622444Y-12688579D01*
X10622444Y-12688579D02*
X10622444Y-12698103D01*
X10622444Y-12698103D02*
X10612920Y-12717150D01*
X10612920Y-12717150D02*
X10603396Y-12726674D01*
X10603396Y-12726674D02*
X10584349Y-12736198D01*
X10584349Y-12736198D02*
X10546253Y-12736198D01*
X10546253Y-12736198D02*
X10527206Y-12745722D01*
X10527206Y-12745722D02*
X10517682Y-12755246D01*
X10517682Y-12755246D02*
X10508158Y-12774293D01*
X10508158Y-12774293D02*
X10508158Y-12812388D01*
X10508158Y-12812388D02*
X10517682Y-12831436D01*
X10517682Y-12831436D02*
X10527206Y-12840960D01*
X10527206Y-12840960D02*
X10546253Y-12850484D01*
X10546253Y-12850484D02*
X10584349Y-12850484D01*
X10584349Y-12850484D02*
X10603396Y-12840960D01*
X10603396Y-12840960D02*
X10612920Y-12831436D01*
X10612920Y-12831436D02*
X10622444Y-12812388D01*
X10622444Y-12812388D02*
X10622444Y-12774293D01*
X10622444Y-12774293D02*
X10612920Y-12755246D01*
X10612920Y-12755246D02*
X10603396Y-12745722D01*
X10603396Y-12745722D02*
X10584349Y-12736198D01*
X10698634Y-12650484D02*
X10698634Y-12688579D01*
X10774825Y-12650484D02*
X10774825Y-12688579D01*
X11070063Y-12926674D02*
X11060539Y-12917150D01*
X11060539Y-12917150D02*
X11041491Y-12888579D01*
X11041491Y-12888579D02*
X11031968Y-12869531D01*
X11031968Y-12869531D02*
X11022444Y-12840960D01*
X11022444Y-12840960D02*
X11012920Y-12793341D01*
X11012920Y-12793341D02*
X11012920Y-12755246D01*
X11012920Y-12755246D02*
X11022444Y-12707627D01*
X11022444Y-12707627D02*
X11031968Y-12679055D01*
X11031968Y-12679055D02*
X11041491Y-12660008D01*
X11041491Y-12660008D02*
X11060539Y-12631436D01*
X11060539Y-12631436D02*
X11070063Y-12621912D01*
X11251015Y-12850484D02*
X11136730Y-12850484D01*
X11193872Y-12850484D02*
X11193872Y-12650484D01*
X11193872Y-12650484D02*
X11174825Y-12679055D01*
X11174825Y-12679055D02*
X11155777Y-12698103D01*
X11155777Y-12698103D02*
X11136730Y-12707627D01*
X11422444Y-12650484D02*
X11384348Y-12650484D01*
X11384348Y-12650484D02*
X11365301Y-12660008D01*
X11365301Y-12660008D02*
X11355777Y-12669531D01*
X11355777Y-12669531D02*
X11336729Y-12698103D01*
X11336729Y-12698103D02*
X11327206Y-12736198D01*
X11327206Y-12736198D02*
X11327206Y-12812388D01*
X11327206Y-12812388D02*
X11336729Y-12831436D01*
X11336729Y-12831436D02*
X11346253Y-12840960D01*
X11346253Y-12840960D02*
X11365301Y-12850484D01*
X11365301Y-12850484D02*
X11403396Y-12850484D01*
X11403396Y-12850484D02*
X11422444Y-12840960D01*
X11422444Y-12840960D02*
X11431968Y-12831436D01*
X11431968Y-12831436D02*
X11441491Y-12812388D01*
X11441491Y-12812388D02*
X11441491Y-12764769D01*
X11441491Y-12764769D02*
X11431968Y-12745722D01*
X11431968Y-12745722D02*
X11422444Y-12736198D01*
X11422444Y-12736198D02*
X11403396Y-12726674D01*
X11403396Y-12726674D02*
X11365301Y-12726674D01*
X11365301Y-12726674D02*
X11346253Y-12736198D01*
X11346253Y-12736198D02*
X11336729Y-12745722D01*
X11336729Y-12745722D02*
X11327206Y-12764769D01*
X11679587Y-12850484D02*
X11679587Y-12650484D01*
X11765301Y-12850484D02*
X11765301Y-12745722D01*
X11765301Y-12745722D02*
X11755777Y-12726674D01*
X11755777Y-12726674D02*
X11736730Y-12717150D01*
X11736730Y-12717150D02*
X11708158Y-12717150D01*
X11708158Y-12717150D02*
X11689110Y-12726674D01*
X11689110Y-12726674D02*
X11679587Y-12736198D01*
X11889110Y-12850484D02*
X11870063Y-12840960D01*
X11870063Y-12840960D02*
X11860539Y-12831436D01*
X11860539Y-12831436D02*
X11851015Y-12812388D01*
X11851015Y-12812388D02*
X11851015Y-12755246D01*
X11851015Y-12755246D02*
X11860539Y-12736198D01*
X11860539Y-12736198D02*
X11870063Y-12726674D01*
X11870063Y-12726674D02*
X11889110Y-12717150D01*
X11889110Y-12717150D02*
X11917682Y-12717150D01*
X11917682Y-12717150D02*
X11936730Y-12726674D01*
X11936730Y-12726674D02*
X11946253Y-12736198D01*
X11946253Y-12736198D02*
X11955777Y-12755246D01*
X11955777Y-12755246D02*
X11955777Y-12812388D01*
X11955777Y-12812388D02*
X11946253Y-12831436D01*
X11946253Y-12831436D02*
X11936730Y-12840960D01*
X11936730Y-12840960D02*
X11917682Y-12850484D01*
X11917682Y-12850484D02*
X11889110Y-12850484D01*
X12070063Y-12850484D02*
X12051015Y-12840960D01*
X12051015Y-12840960D02*
X12041491Y-12821912D01*
X12041491Y-12821912D02*
X12041491Y-12650484D01*
X12222444Y-12840960D02*
X12203396Y-12850484D01*
X12203396Y-12850484D02*
X12165301Y-12850484D01*
X12165301Y-12850484D02*
X12146253Y-12840960D01*
X12146253Y-12840960D02*
X12136730Y-12821912D01*
X12136730Y-12821912D02*
X12136730Y-12745722D01*
X12136730Y-12745722D02*
X12146253Y-12726674D01*
X12146253Y-12726674D02*
X12165301Y-12717150D01*
X12165301Y-12717150D02*
X12203396Y-12717150D01*
X12203396Y-12717150D02*
X12222444Y-12726674D01*
X12222444Y-12726674D02*
X12231968Y-12745722D01*
X12231968Y-12745722D02*
X12231968Y-12764769D01*
X12231968Y-12764769D02*
X12136730Y-12783817D01*
X12308158Y-12840960D02*
X12327206Y-12850484D01*
X12327206Y-12850484D02*
X12365301Y-12850484D01*
X12365301Y-12850484D02*
X12384349Y-12840960D01*
X12384349Y-12840960D02*
X12393872Y-12821912D01*
X12393872Y-12821912D02*
X12393872Y-12812388D01*
X12393872Y-12812388D02*
X12384349Y-12793341D01*
X12384349Y-12793341D02*
X12365301Y-12783817D01*
X12365301Y-12783817D02*
X12336730Y-12783817D01*
X12336730Y-12783817D02*
X12317682Y-12774293D01*
X12317682Y-12774293D02*
X12308158Y-12755246D01*
X12308158Y-12755246D02*
X12308158Y-12745722D01*
X12308158Y-12745722D02*
X12317682Y-12726674D01*
X12317682Y-12726674D02*
X12336730Y-12717150D01*
X12336730Y-12717150D02*
X12365301Y-12717150D01*
X12365301Y-12717150D02*
X12384349Y-12726674D01*
X12460539Y-12926674D02*
X12470063Y-12917150D01*
X12470063Y-12917150D02*
X12489111Y-12888579D01*
X12489111Y-12888579D02*
X12498634Y-12869531D01*
X12498634Y-12869531D02*
X12508158Y-12840960D01*
X12508158Y-12840960D02*
X12517682Y-12793341D01*
X12517682Y-12793341D02*
X12517682Y-12755246D01*
X12517682Y-12755246D02*
X12508158Y-12707627D01*
X12508158Y-12707627D02*
X12498634Y-12679055D01*
X12498634Y-12679055D02*
X12489111Y-12660008D01*
X12489111Y-12660008D02*
X12470063Y-12631436D01*
X12470063Y-12631436D02*
X12460539Y-12621912D01*
D10*
X7470000Y-12998000D02*
X7470000Y-13048000D01*
X7445000Y-13023000D02*
X7495000Y-13023000D01*
D11*
X7793872Y-12914484D02*
X7812920Y-12914484D01*
X7812920Y-12914484D02*
X7831967Y-12924008D01*
X7831967Y-12924008D02*
X7841491Y-12933531D01*
X7841491Y-12933531D02*
X7851015Y-12952579D01*
X7851015Y-12952579D02*
X7860539Y-12990674D01*
X7860539Y-12990674D02*
X7860539Y-13038293D01*
X7860539Y-13038293D02*
X7851015Y-13076388D01*
X7851015Y-13076388D02*
X7841491Y-13095436D01*
X7841491Y-13095436D02*
X7831967Y-13104960D01*
X7831967Y-13104960D02*
X7812920Y-13114484D01*
X7812920Y-13114484D02*
X7793872Y-13114484D01*
X7793872Y-13114484D02*
X7774824Y-13104960D01*
X7774824Y-13104960D02*
X7765301Y-13095436D01*
X7765301Y-13095436D02*
X7755777Y-13076388D01*
X7755777Y-13076388D02*
X7746253Y-13038293D01*
X7746253Y-13038293D02*
X7746253Y-12990674D01*
X7746253Y-12990674D02*
X7755777Y-12952579D01*
X7755777Y-12952579D02*
X7765301Y-12933531D01*
X7765301Y-12933531D02*
X7774824Y-12924008D01*
X7774824Y-12924008D02*
X7793872Y-12914484D01*
X7946253Y-13095436D02*
X7955777Y-13104960D01*
X7955777Y-13104960D02*
X7946253Y-13114484D01*
X7946253Y-13114484D02*
X7936729Y-13104960D01*
X7936729Y-13104960D02*
X7946253Y-13095436D01*
X7946253Y-13095436D02*
X7946253Y-13114484D01*
X8136729Y-12914484D02*
X8041491Y-12914484D01*
X8041491Y-12914484D02*
X8031967Y-13009722D01*
X8031967Y-13009722D02*
X8041491Y-13000198D01*
X8041491Y-13000198D02*
X8060539Y-12990674D01*
X8060539Y-12990674D02*
X8108158Y-12990674D01*
X8108158Y-12990674D02*
X8127205Y-13000198D01*
X8127205Y-13000198D02*
X8136729Y-13009722D01*
X8136729Y-13009722D02*
X8146253Y-13028769D01*
X8146253Y-13028769D02*
X8146253Y-13076388D01*
X8146253Y-13076388D02*
X8136729Y-13095436D01*
X8136729Y-13095436D02*
X8127205Y-13104960D01*
X8127205Y-13104960D02*
X8108158Y-13114484D01*
X8108158Y-13114484D02*
X8060539Y-13114484D01*
X8060539Y-13114484D02*
X8041491Y-13104960D01*
X8041491Y-13104960D02*
X8031967Y-13095436D01*
X8270062Y-12914484D02*
X8289110Y-12914484D01*
X8289110Y-12914484D02*
X8308158Y-12924008D01*
X8308158Y-12924008D02*
X8317682Y-12933531D01*
X8317682Y-12933531D02*
X8327205Y-12952579D01*
X8327205Y-12952579D02*
X8336729Y-12990674D01*
X8336729Y-12990674D02*
X8336729Y-13038293D01*
X8336729Y-13038293D02*
X8327205Y-13076388D01*
X8327205Y-13076388D02*
X8317682Y-13095436D01*
X8317682Y-13095436D02*
X8308158Y-13104960D01*
X8308158Y-13104960D02*
X8289110Y-13114484D01*
X8289110Y-13114484D02*
X8270062Y-13114484D01*
X8270062Y-13114484D02*
X8251015Y-13104960D01*
X8251015Y-13104960D02*
X8241491Y-13095436D01*
X8241491Y-13095436D02*
X8231967Y-13076388D01*
X8231967Y-13076388D02*
X8222443Y-13038293D01*
X8222443Y-13038293D02*
X8222443Y-12990674D01*
X8222443Y-12990674D02*
X8231967Y-12952579D01*
X8231967Y-12952579D02*
X8241491Y-12933531D01*
X8241491Y-12933531D02*
X8251015Y-12924008D01*
X8251015Y-12924008D02*
X8270062Y-12914484D01*
X8460539Y-12914484D02*
X8479586Y-12914484D01*
X8479586Y-12914484D02*
X8498634Y-12924008D01*
X8498634Y-12924008D02*
X8508158Y-12933531D01*
X8508158Y-12933531D02*
X8517682Y-12952579D01*
X8517682Y-12952579D02*
X8527205Y-12990674D01*
X8527205Y-12990674D02*
X8527205Y-13038293D01*
X8527205Y-13038293D02*
X8517682Y-13076388D01*
X8517682Y-13076388D02*
X8508158Y-13095436D01*
X8508158Y-13095436D02*
X8498634Y-13104960D01*
X8498634Y-13104960D02*
X8479586Y-13114484D01*
X8479586Y-13114484D02*
X8460539Y-13114484D01*
X8460539Y-13114484D02*
X8441491Y-13104960D01*
X8441491Y-13104960D02*
X8431967Y-13095436D01*
X8431967Y-13095436D02*
X8422444Y-13076388D01*
X8422444Y-13076388D02*
X8412920Y-13038293D01*
X8412920Y-13038293D02*
X8412920Y-12990674D01*
X8412920Y-12990674D02*
X8422444Y-12952579D01*
X8422444Y-12952579D02*
X8431967Y-12933531D01*
X8431967Y-12933531D02*
X8441491Y-12924008D01*
X8441491Y-12924008D02*
X8460539Y-12914484D01*
X8612920Y-13114484D02*
X8612920Y-12981150D01*
X8612920Y-13000198D02*
X8622444Y-12990674D01*
X8622444Y-12990674D02*
X8641491Y-12981150D01*
X8641491Y-12981150D02*
X8670063Y-12981150D01*
X8670063Y-12981150D02*
X8689110Y-12990674D01*
X8689110Y-12990674D02*
X8698634Y-13009722D01*
X8698634Y-13009722D02*
X8698634Y-13114484D01*
X8698634Y-13009722D02*
X8708158Y-12990674D01*
X8708158Y-12990674D02*
X8727205Y-12981150D01*
X8727205Y-12981150D02*
X8755777Y-12981150D01*
X8755777Y-12981150D02*
X8774825Y-12990674D01*
X8774825Y-12990674D02*
X8784348Y-13009722D01*
X8784348Y-13009722D02*
X8784348Y-13114484D01*
X8879586Y-13114484D02*
X8879586Y-12981150D01*
X8879586Y-13000198D02*
X8889110Y-12990674D01*
X8889110Y-12990674D02*
X8908158Y-12981150D01*
X8908158Y-12981150D02*
X8936729Y-12981150D01*
X8936729Y-12981150D02*
X8955777Y-12990674D01*
X8955777Y-12990674D02*
X8965301Y-13009722D01*
X8965301Y-13009722D02*
X8965301Y-13114484D01*
X8965301Y-13009722D02*
X8974825Y-12990674D01*
X8974825Y-12990674D02*
X8993872Y-12981150D01*
X8993872Y-12981150D02*
X9022444Y-12981150D01*
X9022444Y-12981150D02*
X9041491Y-12990674D01*
X9041491Y-12990674D02*
X9051015Y-13009722D01*
X9051015Y-13009722D02*
X9051015Y-13114484D01*
X9441491Y-12904960D02*
X9270063Y-13162103D01*
X9698634Y-12914484D02*
X9717682Y-12914484D01*
X9717682Y-12914484D02*
X9736729Y-12924008D01*
X9736729Y-12924008D02*
X9746253Y-12933531D01*
X9746253Y-12933531D02*
X9755777Y-12952579D01*
X9755777Y-12952579D02*
X9765301Y-12990674D01*
X9765301Y-12990674D02*
X9765301Y-13038293D01*
X9765301Y-13038293D02*
X9755777Y-13076388D01*
X9755777Y-13076388D02*
X9746253Y-13095436D01*
X9746253Y-13095436D02*
X9736729Y-13104960D01*
X9736729Y-13104960D02*
X9717682Y-13114484D01*
X9717682Y-13114484D02*
X9698634Y-13114484D01*
X9698634Y-13114484D02*
X9679587Y-13104960D01*
X9679587Y-13104960D02*
X9670063Y-13095436D01*
X9670063Y-13095436D02*
X9660539Y-13076388D01*
X9660539Y-13076388D02*
X9651015Y-13038293D01*
X9651015Y-13038293D02*
X9651015Y-12990674D01*
X9651015Y-12990674D02*
X9660539Y-12952579D01*
X9660539Y-12952579D02*
X9670063Y-12933531D01*
X9670063Y-12933531D02*
X9679587Y-12924008D01*
X9679587Y-12924008D02*
X9698634Y-12914484D01*
X9851015Y-13095436D02*
X9860539Y-13104960D01*
X9860539Y-13104960D02*
X9851015Y-13114484D01*
X9851015Y-13114484D02*
X9841491Y-13104960D01*
X9841491Y-13104960D02*
X9851015Y-13095436D01*
X9851015Y-13095436D02*
X9851015Y-13114484D01*
X9984348Y-12914484D02*
X10003396Y-12914484D01*
X10003396Y-12914484D02*
X10022444Y-12924008D01*
X10022444Y-12924008D02*
X10031968Y-12933531D01*
X10031968Y-12933531D02*
X10041491Y-12952579D01*
X10041491Y-12952579D02*
X10051015Y-12990674D01*
X10051015Y-12990674D02*
X10051015Y-13038293D01*
X10051015Y-13038293D02*
X10041491Y-13076388D01*
X10041491Y-13076388D02*
X10031968Y-13095436D01*
X10031968Y-13095436D02*
X10022444Y-13104960D01*
X10022444Y-13104960D02*
X10003396Y-13114484D01*
X10003396Y-13114484D02*
X9984348Y-13114484D01*
X9984348Y-13114484D02*
X9965301Y-13104960D01*
X9965301Y-13104960D02*
X9955777Y-13095436D01*
X9955777Y-13095436D02*
X9946253Y-13076388D01*
X9946253Y-13076388D02*
X9936729Y-13038293D01*
X9936729Y-13038293D02*
X9936729Y-12990674D01*
X9936729Y-12990674D02*
X9946253Y-12952579D01*
X9946253Y-12952579D02*
X9955777Y-12933531D01*
X9955777Y-12933531D02*
X9965301Y-12924008D01*
X9965301Y-12924008D02*
X9984348Y-12914484D01*
X10241491Y-13114484D02*
X10127206Y-13114484D01*
X10184348Y-13114484D02*
X10184348Y-12914484D01*
X10184348Y-12914484D02*
X10165301Y-12943055D01*
X10165301Y-12943055D02*
X10146253Y-12962103D01*
X10146253Y-12962103D02*
X10127206Y-12971627D01*
X10336729Y-13114484D02*
X10374825Y-13114484D01*
X10374825Y-13114484D02*
X10393872Y-13104960D01*
X10393872Y-13104960D02*
X10403396Y-13095436D01*
X10403396Y-13095436D02*
X10422444Y-13066865D01*
X10422444Y-13066865D02*
X10431968Y-13028769D01*
X10431968Y-13028769D02*
X10431968Y-12952579D01*
X10431968Y-12952579D02*
X10422444Y-12933531D01*
X10422444Y-12933531D02*
X10412920Y-12924008D01*
X10412920Y-12924008D02*
X10393872Y-12914484D01*
X10393872Y-12914484D02*
X10355777Y-12914484D01*
X10355777Y-12914484D02*
X10336729Y-12924008D01*
X10336729Y-12924008D02*
X10327206Y-12933531D01*
X10327206Y-12933531D02*
X10317682Y-12952579D01*
X10317682Y-12952579D02*
X10317682Y-13000198D01*
X10317682Y-13000198D02*
X10327206Y-13019246D01*
X10327206Y-13019246D02*
X10336729Y-13028769D01*
X10336729Y-13028769D02*
X10355777Y-13038293D01*
X10355777Y-13038293D02*
X10393872Y-13038293D01*
X10393872Y-13038293D02*
X10412920Y-13028769D01*
X10412920Y-13028769D02*
X10422444Y-13019246D01*
X10422444Y-13019246D02*
X10431968Y-13000198D01*
X10498634Y-12914484D02*
X10631968Y-12914484D01*
X10631968Y-12914484D02*
X10546253Y-13114484D01*
X10698634Y-12914484D02*
X10698634Y-12952579D01*
X10774825Y-12914484D02*
X10774825Y-12952579D01*
X11070063Y-13190674D02*
X11060539Y-13181150D01*
X11060539Y-13181150D02*
X11041491Y-13152579D01*
X11041491Y-13152579D02*
X11031968Y-13133531D01*
X11031968Y-13133531D02*
X11022444Y-13104960D01*
X11022444Y-13104960D02*
X11012920Y-13057341D01*
X11012920Y-13057341D02*
X11012920Y-13019246D01*
X11012920Y-13019246D02*
X11022444Y-12971627D01*
X11022444Y-12971627D02*
X11031968Y-12943055D01*
X11031968Y-12943055D02*
X11041491Y-12924008D01*
X11041491Y-12924008D02*
X11060539Y-12895436D01*
X11060539Y-12895436D02*
X11070063Y-12885912D01*
X11127206Y-12914484D02*
X11251015Y-12914484D01*
X11251015Y-12914484D02*
X11184349Y-12990674D01*
X11184349Y-12990674D02*
X11212920Y-12990674D01*
X11212920Y-12990674D02*
X11231968Y-13000198D01*
X11231968Y-13000198D02*
X11241491Y-13009722D01*
X11241491Y-13009722D02*
X11251015Y-13028769D01*
X11251015Y-13028769D02*
X11251015Y-13076388D01*
X11251015Y-13076388D02*
X11241491Y-13095436D01*
X11241491Y-13095436D02*
X11231968Y-13104960D01*
X11231968Y-13104960D02*
X11212920Y-13114484D01*
X11212920Y-13114484D02*
X11155777Y-13114484D01*
X11155777Y-13114484D02*
X11136730Y-13104960D01*
X11136730Y-13104960D02*
X11127206Y-13095436D01*
X11327206Y-12933531D02*
X11336729Y-12924008D01*
X11336729Y-12924008D02*
X11355777Y-12914484D01*
X11355777Y-12914484D02*
X11403396Y-12914484D01*
X11403396Y-12914484D02*
X11422444Y-12924008D01*
X11422444Y-12924008D02*
X11431968Y-12933531D01*
X11431968Y-12933531D02*
X11441491Y-12952579D01*
X11441491Y-12952579D02*
X11441491Y-12971627D01*
X11441491Y-12971627D02*
X11431968Y-13000198D01*
X11431968Y-13000198D02*
X11317682Y-13114484D01*
X11317682Y-13114484D02*
X11441491Y-13114484D01*
X11679587Y-13114484D02*
X11679587Y-12914484D01*
X11765301Y-13114484D02*
X11765301Y-13009722D01*
X11765301Y-13009722D02*
X11755777Y-12990674D01*
X11755777Y-12990674D02*
X11736730Y-12981150D01*
X11736730Y-12981150D02*
X11708158Y-12981150D01*
X11708158Y-12981150D02*
X11689110Y-12990674D01*
X11689110Y-12990674D02*
X11679587Y-13000198D01*
X11889110Y-13114484D02*
X11870063Y-13104960D01*
X11870063Y-13104960D02*
X11860539Y-13095436D01*
X11860539Y-13095436D02*
X11851015Y-13076388D01*
X11851015Y-13076388D02*
X11851015Y-13019246D01*
X11851015Y-13019246D02*
X11860539Y-13000198D01*
X11860539Y-13000198D02*
X11870063Y-12990674D01*
X11870063Y-12990674D02*
X11889110Y-12981150D01*
X11889110Y-12981150D02*
X11917682Y-12981150D01*
X11917682Y-12981150D02*
X11936730Y-12990674D01*
X11936730Y-12990674D02*
X11946253Y-13000198D01*
X11946253Y-13000198D02*
X11955777Y-13019246D01*
X11955777Y-13019246D02*
X11955777Y-13076388D01*
X11955777Y-13076388D02*
X11946253Y-13095436D01*
X11946253Y-13095436D02*
X11936730Y-13104960D01*
X11936730Y-13104960D02*
X11917682Y-13114484D01*
X11917682Y-13114484D02*
X11889110Y-13114484D01*
X12070063Y-13114484D02*
X12051015Y-13104960D01*
X12051015Y-13104960D02*
X12041491Y-13085912D01*
X12041491Y-13085912D02*
X12041491Y-12914484D01*
X12222444Y-13104960D02*
X12203396Y-13114484D01*
X12203396Y-13114484D02*
X12165301Y-13114484D01*
X12165301Y-13114484D02*
X12146253Y-13104960D01*
X12146253Y-13104960D02*
X12136730Y-13085912D01*
X12136730Y-13085912D02*
X12136730Y-13009722D01*
X12136730Y-13009722D02*
X12146253Y-12990674D01*
X12146253Y-12990674D02*
X12165301Y-12981150D01*
X12165301Y-12981150D02*
X12203396Y-12981150D01*
X12203396Y-12981150D02*
X12222444Y-12990674D01*
X12222444Y-12990674D02*
X12231968Y-13009722D01*
X12231968Y-13009722D02*
X12231968Y-13028769D01*
X12231968Y-13028769D02*
X12136730Y-13047817D01*
X12308158Y-13104960D02*
X12327206Y-13114484D01*
X12327206Y-13114484D02*
X12365301Y-13114484D01*
X12365301Y-13114484D02*
X12384349Y-13104960D01*
X12384349Y-13104960D02*
X12393872Y-13085912D01*
X12393872Y-13085912D02*
X12393872Y-13076388D01*
X12393872Y-13076388D02*
X12384349Y-13057341D01*
X12384349Y-13057341D02*
X12365301Y-13047817D01*
X12365301Y-13047817D02*
X12336730Y-13047817D01*
X12336730Y-13047817D02*
X12317682Y-13038293D01*
X12317682Y-13038293D02*
X12308158Y-13019246D01*
X12308158Y-13019246D02*
X12308158Y-13009722D01*
X12308158Y-13009722D02*
X12317682Y-12990674D01*
X12317682Y-12990674D02*
X12336730Y-12981150D01*
X12336730Y-12981150D02*
X12365301Y-12981150D01*
X12365301Y-12981150D02*
X12384349Y-12990674D01*
X12460539Y-13190674D02*
X12470063Y-13181150D01*
X12470063Y-13181150D02*
X12489111Y-13152579D01*
X12489111Y-13152579D02*
X12498634Y-13133531D01*
X12498634Y-13133531D02*
X12508158Y-13104960D01*
X12508158Y-13104960D02*
X12517682Y-13057341D01*
X12517682Y-13057341D02*
X12517682Y-13019246D01*
X12517682Y-13019246D02*
X12508158Y-12971627D01*
X12508158Y-12971627D02*
X12498634Y-12943055D01*
X12498634Y-12943055D02*
X12489111Y-12924008D01*
X12489111Y-12924008D02*
X12470063Y-12895436D01*
X12470063Y-12895436D02*
X12460539Y-12885912D01*
D10*
X7486213Y-13308213D02*
X7486213Y-13265787D01*
X7443787Y-13265787D01*
X7443787Y-13308213D01*
X7486213Y-13308213D01*
D11*
X7793872Y-13178484D02*
X7812920Y-13178484D01*
X7812920Y-13178484D02*
X7831967Y-13188008D01*
X7831967Y-13188008D02*
X7841491Y-13197531D01*
X7841491Y-13197531D02*
X7851015Y-13216579D01*
X7851015Y-13216579D02*
X7860539Y-13254674D01*
X7860539Y-13254674D02*
X7860539Y-13302293D01*
X7860539Y-13302293D02*
X7851015Y-13340388D01*
X7851015Y-13340388D02*
X7841491Y-13359436D01*
X7841491Y-13359436D02*
X7831967Y-13368960D01*
X7831967Y-13368960D02*
X7812920Y-13378484D01*
X7812920Y-13378484D02*
X7793872Y-13378484D01*
X7793872Y-13378484D02*
X7774824Y-13368960D01*
X7774824Y-13368960D02*
X7765301Y-13359436D01*
X7765301Y-13359436D02*
X7755777Y-13340388D01*
X7755777Y-13340388D02*
X7746253Y-13302293D01*
X7746253Y-13302293D02*
X7746253Y-13254674D01*
X7746253Y-13254674D02*
X7755777Y-13216579D01*
X7755777Y-13216579D02*
X7765301Y-13197531D01*
X7765301Y-13197531D02*
X7774824Y-13188008D01*
X7774824Y-13188008D02*
X7793872Y-13178484D01*
X7946253Y-13359436D02*
X7955777Y-13368960D01*
X7955777Y-13368960D02*
X7946253Y-13378484D01*
X7946253Y-13378484D02*
X7936729Y-13368960D01*
X7936729Y-13368960D02*
X7946253Y-13359436D01*
X7946253Y-13359436D02*
X7946253Y-13378484D01*
X8127205Y-13178484D02*
X8089110Y-13178484D01*
X8089110Y-13178484D02*
X8070062Y-13188008D01*
X8070062Y-13188008D02*
X8060539Y-13197531D01*
X8060539Y-13197531D02*
X8041491Y-13226103D01*
X8041491Y-13226103D02*
X8031967Y-13264198D01*
X8031967Y-13264198D02*
X8031967Y-13340388D01*
X8031967Y-13340388D02*
X8041491Y-13359436D01*
X8041491Y-13359436D02*
X8051015Y-13368960D01*
X8051015Y-13368960D02*
X8070062Y-13378484D01*
X8070062Y-13378484D02*
X8108158Y-13378484D01*
X8108158Y-13378484D02*
X8127205Y-13368960D01*
X8127205Y-13368960D02*
X8136729Y-13359436D01*
X8136729Y-13359436D02*
X8146253Y-13340388D01*
X8146253Y-13340388D02*
X8146253Y-13292769D01*
X8146253Y-13292769D02*
X8136729Y-13273722D01*
X8136729Y-13273722D02*
X8127205Y-13264198D01*
X8127205Y-13264198D02*
X8108158Y-13254674D01*
X8108158Y-13254674D02*
X8070062Y-13254674D01*
X8070062Y-13254674D02*
X8051015Y-13264198D01*
X8051015Y-13264198D02*
X8041491Y-13273722D01*
X8041491Y-13273722D02*
X8031967Y-13292769D01*
X8270062Y-13178484D02*
X8289110Y-13178484D01*
X8289110Y-13178484D02*
X8308158Y-13188008D01*
X8308158Y-13188008D02*
X8317682Y-13197531D01*
X8317682Y-13197531D02*
X8327205Y-13216579D01*
X8327205Y-13216579D02*
X8336729Y-13254674D01*
X8336729Y-13254674D02*
X8336729Y-13302293D01*
X8336729Y-13302293D02*
X8327205Y-13340388D01*
X8327205Y-13340388D02*
X8317682Y-13359436D01*
X8317682Y-13359436D02*
X8308158Y-13368960D01*
X8308158Y-13368960D02*
X8289110Y-13378484D01*
X8289110Y-13378484D02*
X8270062Y-13378484D01*
X8270062Y-13378484D02*
X8251015Y-13368960D01*
X8251015Y-13368960D02*
X8241491Y-13359436D01*
X8241491Y-13359436D02*
X8231967Y-13340388D01*
X8231967Y-13340388D02*
X8222443Y-13302293D01*
X8222443Y-13302293D02*
X8222443Y-13254674D01*
X8222443Y-13254674D02*
X8231967Y-13216579D01*
X8231967Y-13216579D02*
X8241491Y-13197531D01*
X8241491Y-13197531D02*
X8251015Y-13188008D01*
X8251015Y-13188008D02*
X8270062Y-13178484D01*
X8460539Y-13178484D02*
X8479586Y-13178484D01*
X8479586Y-13178484D02*
X8498634Y-13188008D01*
X8498634Y-13188008D02*
X8508158Y-13197531D01*
X8508158Y-13197531D02*
X8517682Y-13216579D01*
X8517682Y-13216579D02*
X8527205Y-13254674D01*
X8527205Y-13254674D02*
X8527205Y-13302293D01*
X8527205Y-13302293D02*
X8517682Y-13340388D01*
X8517682Y-13340388D02*
X8508158Y-13359436D01*
X8508158Y-13359436D02*
X8498634Y-13368960D01*
X8498634Y-13368960D02*
X8479586Y-13378484D01*
X8479586Y-13378484D02*
X8460539Y-13378484D01*
X8460539Y-13378484D02*
X8441491Y-13368960D01*
X8441491Y-13368960D02*
X8431967Y-13359436D01*
X8431967Y-13359436D02*
X8422444Y-13340388D01*
X8422444Y-13340388D02*
X8412920Y-13302293D01*
X8412920Y-13302293D02*
X8412920Y-13254674D01*
X8412920Y-13254674D02*
X8422444Y-13216579D01*
X8422444Y-13216579D02*
X8431967Y-13197531D01*
X8431967Y-13197531D02*
X8441491Y-13188008D01*
X8441491Y-13188008D02*
X8460539Y-13178484D01*
X8612920Y-13378484D02*
X8612920Y-13245150D01*
X8612920Y-13264198D02*
X8622444Y-13254674D01*
X8622444Y-13254674D02*
X8641491Y-13245150D01*
X8641491Y-13245150D02*
X8670063Y-13245150D01*
X8670063Y-13245150D02*
X8689110Y-13254674D01*
X8689110Y-13254674D02*
X8698634Y-13273722D01*
X8698634Y-13273722D02*
X8698634Y-13378484D01*
X8698634Y-13273722D02*
X8708158Y-13254674D01*
X8708158Y-13254674D02*
X8727205Y-13245150D01*
X8727205Y-13245150D02*
X8755777Y-13245150D01*
X8755777Y-13245150D02*
X8774825Y-13254674D01*
X8774825Y-13254674D02*
X8784348Y-13273722D01*
X8784348Y-13273722D02*
X8784348Y-13378484D01*
X8879586Y-13378484D02*
X8879586Y-13245150D01*
X8879586Y-13264198D02*
X8889110Y-13254674D01*
X8889110Y-13254674D02*
X8908158Y-13245150D01*
X8908158Y-13245150D02*
X8936729Y-13245150D01*
X8936729Y-13245150D02*
X8955777Y-13254674D01*
X8955777Y-13254674D02*
X8965301Y-13273722D01*
X8965301Y-13273722D02*
X8965301Y-13378484D01*
X8965301Y-13273722D02*
X8974825Y-13254674D01*
X8974825Y-13254674D02*
X8993872Y-13245150D01*
X8993872Y-13245150D02*
X9022444Y-13245150D01*
X9022444Y-13245150D02*
X9041491Y-13254674D01*
X9041491Y-13254674D02*
X9051015Y-13273722D01*
X9051015Y-13273722D02*
X9051015Y-13378484D01*
X9441491Y-13168960D02*
X9270063Y-13426103D01*
X9698634Y-13178484D02*
X9717682Y-13178484D01*
X9717682Y-13178484D02*
X9736729Y-13188008D01*
X9736729Y-13188008D02*
X9746253Y-13197531D01*
X9746253Y-13197531D02*
X9755777Y-13216579D01*
X9755777Y-13216579D02*
X9765301Y-13254674D01*
X9765301Y-13254674D02*
X9765301Y-13302293D01*
X9765301Y-13302293D02*
X9755777Y-13340388D01*
X9755777Y-13340388D02*
X9746253Y-13359436D01*
X9746253Y-13359436D02*
X9736729Y-13368960D01*
X9736729Y-13368960D02*
X9717682Y-13378484D01*
X9717682Y-13378484D02*
X9698634Y-13378484D01*
X9698634Y-13378484D02*
X9679587Y-13368960D01*
X9679587Y-13368960D02*
X9670063Y-13359436D01*
X9670063Y-13359436D02*
X9660539Y-13340388D01*
X9660539Y-13340388D02*
X9651015Y-13302293D01*
X9651015Y-13302293D02*
X9651015Y-13254674D01*
X9651015Y-13254674D02*
X9660539Y-13216579D01*
X9660539Y-13216579D02*
X9670063Y-13197531D01*
X9670063Y-13197531D02*
X9679587Y-13188008D01*
X9679587Y-13188008D02*
X9698634Y-13178484D01*
X9851015Y-13359436D02*
X9860539Y-13368960D01*
X9860539Y-13368960D02*
X9851015Y-13378484D01*
X9851015Y-13378484D02*
X9841491Y-13368960D01*
X9841491Y-13368960D02*
X9851015Y-13359436D01*
X9851015Y-13359436D02*
X9851015Y-13378484D01*
X9984348Y-13178484D02*
X10003396Y-13178484D01*
X10003396Y-13178484D02*
X10022444Y-13188008D01*
X10022444Y-13188008D02*
X10031968Y-13197531D01*
X10031968Y-13197531D02*
X10041491Y-13216579D01*
X10041491Y-13216579D02*
X10051015Y-13254674D01*
X10051015Y-13254674D02*
X10051015Y-13302293D01*
X10051015Y-13302293D02*
X10041491Y-13340388D01*
X10041491Y-13340388D02*
X10031968Y-13359436D01*
X10031968Y-13359436D02*
X10022444Y-13368960D01*
X10022444Y-13368960D02*
X10003396Y-13378484D01*
X10003396Y-13378484D02*
X9984348Y-13378484D01*
X9984348Y-13378484D02*
X9965301Y-13368960D01*
X9965301Y-13368960D02*
X9955777Y-13359436D01*
X9955777Y-13359436D02*
X9946253Y-13340388D01*
X9946253Y-13340388D02*
X9936729Y-13302293D01*
X9936729Y-13302293D02*
X9936729Y-13254674D01*
X9936729Y-13254674D02*
X9946253Y-13216579D01*
X9946253Y-13216579D02*
X9955777Y-13197531D01*
X9955777Y-13197531D02*
X9965301Y-13188008D01*
X9965301Y-13188008D02*
X9984348Y-13178484D01*
X10127206Y-13197531D02*
X10136729Y-13188008D01*
X10136729Y-13188008D02*
X10155777Y-13178484D01*
X10155777Y-13178484D02*
X10203396Y-13178484D01*
X10203396Y-13178484D02*
X10222444Y-13188008D01*
X10222444Y-13188008D02*
X10231968Y-13197531D01*
X10231968Y-13197531D02*
X10241491Y-13216579D01*
X10241491Y-13216579D02*
X10241491Y-13235627D01*
X10241491Y-13235627D02*
X10231968Y-13264198D01*
X10231968Y-13264198D02*
X10117682Y-13378484D01*
X10117682Y-13378484D02*
X10241491Y-13378484D01*
X10308158Y-13178484D02*
X10431968Y-13178484D01*
X10431968Y-13178484D02*
X10365301Y-13254674D01*
X10365301Y-13254674D02*
X10393872Y-13254674D01*
X10393872Y-13254674D02*
X10412920Y-13264198D01*
X10412920Y-13264198D02*
X10422444Y-13273722D01*
X10422444Y-13273722D02*
X10431968Y-13292769D01*
X10431968Y-13292769D02*
X10431968Y-13340388D01*
X10431968Y-13340388D02*
X10422444Y-13359436D01*
X10422444Y-13359436D02*
X10412920Y-13368960D01*
X10412920Y-13368960D02*
X10393872Y-13378484D01*
X10393872Y-13378484D02*
X10336729Y-13378484D01*
X10336729Y-13378484D02*
X10317682Y-13368960D01*
X10317682Y-13368960D02*
X10308158Y-13359436D01*
X10603396Y-13178484D02*
X10565301Y-13178484D01*
X10565301Y-13178484D02*
X10546253Y-13188008D01*
X10546253Y-13188008D02*
X10536729Y-13197531D01*
X10536729Y-13197531D02*
X10517682Y-13226103D01*
X10517682Y-13226103D02*
X10508158Y-13264198D01*
X10508158Y-13264198D02*
X10508158Y-13340388D01*
X10508158Y-13340388D02*
X10517682Y-13359436D01*
X10517682Y-13359436D02*
X10527206Y-13368960D01*
X10527206Y-13368960D02*
X10546253Y-13378484D01*
X10546253Y-13378484D02*
X10584349Y-13378484D01*
X10584349Y-13378484D02*
X10603396Y-13368960D01*
X10603396Y-13368960D02*
X10612920Y-13359436D01*
X10612920Y-13359436D02*
X10622444Y-13340388D01*
X10622444Y-13340388D02*
X10622444Y-13292769D01*
X10622444Y-13292769D02*
X10612920Y-13273722D01*
X10612920Y-13273722D02*
X10603396Y-13264198D01*
X10603396Y-13264198D02*
X10584349Y-13254674D01*
X10584349Y-13254674D02*
X10546253Y-13254674D01*
X10546253Y-13254674D02*
X10527206Y-13264198D01*
X10527206Y-13264198D02*
X10517682Y-13273722D01*
X10517682Y-13273722D02*
X10508158Y-13292769D01*
X10698634Y-13178484D02*
X10698634Y-13216579D01*
X10774825Y-13178484D02*
X10774825Y-13216579D01*
X11070063Y-13454674D02*
X11060539Y-13445150D01*
X11060539Y-13445150D02*
X11041491Y-13416579D01*
X11041491Y-13416579D02*
X11031968Y-13397531D01*
X11031968Y-13397531D02*
X11022444Y-13368960D01*
X11022444Y-13368960D02*
X11012920Y-13321341D01*
X11012920Y-13321341D02*
X11012920Y-13283246D01*
X11012920Y-13283246D02*
X11022444Y-13235627D01*
X11022444Y-13235627D02*
X11031968Y-13207055D01*
X11031968Y-13207055D02*
X11041491Y-13188008D01*
X11041491Y-13188008D02*
X11060539Y-13159436D01*
X11060539Y-13159436D02*
X11070063Y-13149912D01*
X11184349Y-13178484D02*
X11203396Y-13178484D01*
X11203396Y-13178484D02*
X11222444Y-13188008D01*
X11222444Y-13188008D02*
X11231968Y-13197531D01*
X11231968Y-13197531D02*
X11241491Y-13216579D01*
X11241491Y-13216579D02*
X11251015Y-13254674D01*
X11251015Y-13254674D02*
X11251015Y-13302293D01*
X11251015Y-13302293D02*
X11241491Y-13340388D01*
X11241491Y-13340388D02*
X11231968Y-13359436D01*
X11231968Y-13359436D02*
X11222444Y-13368960D01*
X11222444Y-13368960D02*
X11203396Y-13378484D01*
X11203396Y-13378484D02*
X11184349Y-13378484D01*
X11184349Y-13378484D02*
X11165301Y-13368960D01*
X11165301Y-13368960D02*
X11155777Y-13359436D01*
X11155777Y-13359436D02*
X11146253Y-13340388D01*
X11146253Y-13340388D02*
X11136730Y-13302293D01*
X11136730Y-13302293D02*
X11136730Y-13254674D01*
X11136730Y-13254674D02*
X11146253Y-13216579D01*
X11146253Y-13216579D02*
X11155777Y-13197531D01*
X11155777Y-13197531D02*
X11165301Y-13188008D01*
X11165301Y-13188008D02*
X11184349Y-13178484D01*
X11489110Y-13378484D02*
X11489110Y-13178484D01*
X11574825Y-13378484D02*
X11574825Y-13273722D01*
X11574825Y-13273722D02*
X11565301Y-13254674D01*
X11565301Y-13254674D02*
X11546253Y-13245150D01*
X11546253Y-13245150D02*
X11517682Y-13245150D01*
X11517682Y-13245150D02*
X11498634Y-13254674D01*
X11498634Y-13254674D02*
X11489110Y-13264198D01*
X11698634Y-13378484D02*
X11679587Y-13368960D01*
X11679587Y-13368960D02*
X11670063Y-13359436D01*
X11670063Y-13359436D02*
X11660539Y-13340388D01*
X11660539Y-13340388D02*
X11660539Y-13283246D01*
X11660539Y-13283246D02*
X11670063Y-13264198D01*
X11670063Y-13264198D02*
X11679587Y-13254674D01*
X11679587Y-13254674D02*
X11698634Y-13245150D01*
X11698634Y-13245150D02*
X11727206Y-13245150D01*
X11727206Y-13245150D02*
X11746253Y-13254674D01*
X11746253Y-13254674D02*
X11755777Y-13264198D01*
X11755777Y-13264198D02*
X11765301Y-13283246D01*
X11765301Y-13283246D02*
X11765301Y-13340388D01*
X11765301Y-13340388D02*
X11755777Y-13359436D01*
X11755777Y-13359436D02*
X11746253Y-13368960D01*
X11746253Y-13368960D02*
X11727206Y-13378484D01*
X11727206Y-13378484D02*
X11698634Y-13378484D01*
X11879587Y-13378484D02*
X11860539Y-13368960D01*
X11860539Y-13368960D02*
X11851015Y-13349912D01*
X11851015Y-13349912D02*
X11851015Y-13178484D01*
X12031968Y-13368960D02*
X12012920Y-13378484D01*
X12012920Y-13378484D02*
X11974825Y-13378484D01*
X11974825Y-13378484D02*
X11955777Y-13368960D01*
X11955777Y-13368960D02*
X11946253Y-13349912D01*
X11946253Y-13349912D02*
X11946253Y-13273722D01*
X11946253Y-13273722D02*
X11955777Y-13254674D01*
X11955777Y-13254674D02*
X11974825Y-13245150D01*
X11974825Y-13245150D02*
X12012920Y-13245150D01*
X12012920Y-13245150D02*
X12031968Y-13254674D01*
X12031968Y-13254674D02*
X12041491Y-13273722D01*
X12041491Y-13273722D02*
X12041491Y-13292769D01*
X12041491Y-13292769D02*
X11946253Y-13311817D01*
X12117682Y-13368960D02*
X12136730Y-13378484D01*
X12136730Y-13378484D02*
X12174825Y-13378484D01*
X12174825Y-13378484D02*
X12193872Y-13368960D01*
X12193872Y-13368960D02*
X12203396Y-13349912D01*
X12203396Y-13349912D02*
X12203396Y-13340388D01*
X12203396Y-13340388D02*
X12193872Y-13321341D01*
X12193872Y-13321341D02*
X12174825Y-13311817D01*
X12174825Y-13311817D02*
X12146253Y-13311817D01*
X12146253Y-13311817D02*
X12127206Y-13302293D01*
X12127206Y-13302293D02*
X12117682Y-13283246D01*
X12117682Y-13283246D02*
X12117682Y-13273722D01*
X12117682Y-13273722D02*
X12127206Y-13254674D01*
X12127206Y-13254674D02*
X12146253Y-13245150D01*
X12146253Y-13245150D02*
X12174825Y-13245150D01*
X12174825Y-13245150D02*
X12193872Y-13254674D01*
X12441492Y-13302293D02*
X12593873Y-13302293D01*
X12517682Y-13378484D02*
X12517682Y-13226103D01*
X12927206Y-13245150D02*
X12927206Y-13378484D01*
X12879587Y-13168960D02*
X12831968Y-13311817D01*
X12831968Y-13311817D02*
X12955777Y-13311817D01*
X13174825Y-13368960D02*
X13193873Y-13378484D01*
X13193873Y-13378484D02*
X13231968Y-13378484D01*
X13231968Y-13378484D02*
X13251015Y-13368960D01*
X13251015Y-13368960D02*
X13260539Y-13349912D01*
X13260539Y-13349912D02*
X13260539Y-13340388D01*
X13260539Y-13340388D02*
X13251015Y-13321341D01*
X13251015Y-13321341D02*
X13231968Y-13311817D01*
X13231968Y-13311817D02*
X13203396Y-13311817D01*
X13203396Y-13311817D02*
X13184349Y-13302293D01*
X13184349Y-13302293D02*
X13174825Y-13283246D01*
X13174825Y-13283246D02*
X13174825Y-13273722D01*
X13174825Y-13273722D02*
X13184349Y-13254674D01*
X13184349Y-13254674D02*
X13203396Y-13245150D01*
X13203396Y-13245150D02*
X13231968Y-13245150D01*
X13231968Y-13245150D02*
X13251015Y-13254674D01*
X13374825Y-13378484D02*
X13355777Y-13368960D01*
X13355777Y-13368960D02*
X13346254Y-13349912D01*
X13346254Y-13349912D02*
X13346254Y-13178484D01*
X13479587Y-13378484D02*
X13460539Y-13368960D01*
X13460539Y-13368960D02*
X13451015Y-13359436D01*
X13451015Y-13359436D02*
X13441492Y-13340388D01*
X13441492Y-13340388D02*
X13441492Y-13283246D01*
X13441492Y-13283246D02*
X13451015Y-13264198D01*
X13451015Y-13264198D02*
X13460539Y-13254674D01*
X13460539Y-13254674D02*
X13479587Y-13245150D01*
X13479587Y-13245150D02*
X13508158Y-13245150D01*
X13508158Y-13245150D02*
X13527206Y-13254674D01*
X13527206Y-13254674D02*
X13536730Y-13264198D01*
X13536730Y-13264198D02*
X13546254Y-13283246D01*
X13546254Y-13283246D02*
X13546254Y-13340388D01*
X13546254Y-13340388D02*
X13536730Y-13359436D01*
X13536730Y-13359436D02*
X13527206Y-13368960D01*
X13527206Y-13368960D02*
X13508158Y-13378484D01*
X13508158Y-13378484D02*
X13479587Y-13378484D01*
X13603396Y-13245150D02*
X13679587Y-13245150D01*
X13631968Y-13178484D02*
X13631968Y-13349912D01*
X13631968Y-13349912D02*
X13641492Y-13368960D01*
X13641492Y-13368960D02*
X13660539Y-13378484D01*
X13660539Y-13378484D02*
X13679587Y-13378484D01*
X13736730Y-13368960D02*
X13755777Y-13378484D01*
X13755777Y-13378484D02*
X13793873Y-13378484D01*
X13793873Y-13378484D02*
X13812920Y-13368960D01*
X13812920Y-13368960D02*
X13822444Y-13349912D01*
X13822444Y-13349912D02*
X13822444Y-13340388D01*
X13822444Y-13340388D02*
X13812920Y-13321341D01*
X13812920Y-13321341D02*
X13793873Y-13311817D01*
X13793873Y-13311817D02*
X13765301Y-13311817D01*
X13765301Y-13311817D02*
X13746254Y-13302293D01*
X13746254Y-13302293D02*
X13736730Y-13283246D01*
X13736730Y-13283246D02*
X13736730Y-13273722D01*
X13736730Y-13273722D02*
X13746254Y-13254674D01*
X13746254Y-13254674D02*
X13765301Y-13245150D01*
X13765301Y-13245150D02*
X13793873Y-13245150D01*
X13793873Y-13245150D02*
X13812920Y-13254674D01*
X13889111Y-13454674D02*
X13898635Y-13445150D01*
X13898635Y-13445150D02*
X13917682Y-13416579D01*
X13917682Y-13416579D02*
X13927206Y-13397531D01*
X13927206Y-13397531D02*
X13936730Y-13368960D01*
X13936730Y-13368960D02*
X13946254Y-13321341D01*
X13946254Y-13321341D02*
X13946254Y-13283246D01*
X13946254Y-13283246D02*
X13936730Y-13235627D01*
X13936730Y-13235627D02*
X13927206Y-13207055D01*
X13927206Y-13207055D02*
X13917682Y-13188008D01*
X13917682Y-13188008D02*
X13898635Y-13159436D01*
X13898635Y-13159436D02*
X13889111Y-13149912D01*
D10*
X7445000Y-13601000D02*
X7495000Y-13551000D01*
X7445000Y-13501000D01*
X7395000Y-13551000D01*
X7445000Y-13601000D01*
D11*
X7860539Y-13642484D02*
X7746253Y-13642484D01*
X7803396Y-13642484D02*
X7803396Y-13442484D01*
X7803396Y-13442484D02*
X7784348Y-13471055D01*
X7784348Y-13471055D02*
X7765301Y-13490103D01*
X7765301Y-13490103D02*
X7746253Y-13499627D01*
X7946253Y-13623436D02*
X7955777Y-13632960D01*
X7955777Y-13632960D02*
X7946253Y-13642484D01*
X7946253Y-13642484D02*
X7936729Y-13632960D01*
X7936729Y-13632960D02*
X7946253Y-13623436D01*
X7946253Y-13623436D02*
X7946253Y-13642484D01*
X8079586Y-13442484D02*
X8098634Y-13442484D01*
X8098634Y-13442484D02*
X8117682Y-13452008D01*
X8117682Y-13452008D02*
X8127205Y-13461531D01*
X8127205Y-13461531D02*
X8136729Y-13480579D01*
X8136729Y-13480579D02*
X8146253Y-13518674D01*
X8146253Y-13518674D02*
X8146253Y-13566293D01*
X8146253Y-13566293D02*
X8136729Y-13604388D01*
X8136729Y-13604388D02*
X8127205Y-13623436D01*
X8127205Y-13623436D02*
X8117682Y-13632960D01*
X8117682Y-13632960D02*
X8098634Y-13642484D01*
X8098634Y-13642484D02*
X8079586Y-13642484D01*
X8079586Y-13642484D02*
X8060539Y-13632960D01*
X8060539Y-13632960D02*
X8051015Y-13623436D01*
X8051015Y-13623436D02*
X8041491Y-13604388D01*
X8041491Y-13604388D02*
X8031967Y-13566293D01*
X8031967Y-13566293D02*
X8031967Y-13518674D01*
X8031967Y-13518674D02*
X8041491Y-13480579D01*
X8041491Y-13480579D02*
X8051015Y-13461531D01*
X8051015Y-13461531D02*
X8060539Y-13452008D01*
X8060539Y-13452008D02*
X8079586Y-13442484D01*
X8270062Y-13442484D02*
X8289110Y-13442484D01*
X8289110Y-13442484D02*
X8308158Y-13452008D01*
X8308158Y-13452008D02*
X8317682Y-13461531D01*
X8317682Y-13461531D02*
X8327205Y-13480579D01*
X8327205Y-13480579D02*
X8336729Y-13518674D01*
X8336729Y-13518674D02*
X8336729Y-13566293D01*
X8336729Y-13566293D02*
X8327205Y-13604388D01*
X8327205Y-13604388D02*
X8317682Y-13623436D01*
X8317682Y-13623436D02*
X8308158Y-13632960D01*
X8308158Y-13632960D02*
X8289110Y-13642484D01*
X8289110Y-13642484D02*
X8270062Y-13642484D01*
X8270062Y-13642484D02*
X8251015Y-13632960D01*
X8251015Y-13632960D02*
X8241491Y-13623436D01*
X8241491Y-13623436D02*
X8231967Y-13604388D01*
X8231967Y-13604388D02*
X8222443Y-13566293D01*
X8222443Y-13566293D02*
X8222443Y-13518674D01*
X8222443Y-13518674D02*
X8231967Y-13480579D01*
X8231967Y-13480579D02*
X8241491Y-13461531D01*
X8241491Y-13461531D02*
X8251015Y-13452008D01*
X8251015Y-13452008D02*
X8270062Y-13442484D01*
X8460539Y-13442484D02*
X8479586Y-13442484D01*
X8479586Y-13442484D02*
X8498634Y-13452008D01*
X8498634Y-13452008D02*
X8508158Y-13461531D01*
X8508158Y-13461531D02*
X8517682Y-13480579D01*
X8517682Y-13480579D02*
X8527205Y-13518674D01*
X8527205Y-13518674D02*
X8527205Y-13566293D01*
X8527205Y-13566293D02*
X8517682Y-13604388D01*
X8517682Y-13604388D02*
X8508158Y-13623436D01*
X8508158Y-13623436D02*
X8498634Y-13632960D01*
X8498634Y-13632960D02*
X8479586Y-13642484D01*
X8479586Y-13642484D02*
X8460539Y-13642484D01*
X8460539Y-13642484D02*
X8441491Y-13632960D01*
X8441491Y-13632960D02*
X8431967Y-13623436D01*
X8431967Y-13623436D02*
X8422444Y-13604388D01*
X8422444Y-13604388D02*
X8412920Y-13566293D01*
X8412920Y-13566293D02*
X8412920Y-13518674D01*
X8412920Y-13518674D02*
X8422444Y-13480579D01*
X8422444Y-13480579D02*
X8431967Y-13461531D01*
X8431967Y-13461531D02*
X8441491Y-13452008D01*
X8441491Y-13452008D02*
X8460539Y-13442484D01*
X8612920Y-13642484D02*
X8612920Y-13509150D01*
X8612920Y-13528198D02*
X8622444Y-13518674D01*
X8622444Y-13518674D02*
X8641491Y-13509150D01*
X8641491Y-13509150D02*
X8670063Y-13509150D01*
X8670063Y-13509150D02*
X8689110Y-13518674D01*
X8689110Y-13518674D02*
X8698634Y-13537722D01*
X8698634Y-13537722D02*
X8698634Y-13642484D01*
X8698634Y-13537722D02*
X8708158Y-13518674D01*
X8708158Y-13518674D02*
X8727205Y-13509150D01*
X8727205Y-13509150D02*
X8755777Y-13509150D01*
X8755777Y-13509150D02*
X8774825Y-13518674D01*
X8774825Y-13518674D02*
X8784348Y-13537722D01*
X8784348Y-13537722D02*
X8784348Y-13642484D01*
X8879586Y-13642484D02*
X8879586Y-13509150D01*
X8879586Y-13528198D02*
X8889110Y-13518674D01*
X8889110Y-13518674D02*
X8908158Y-13509150D01*
X8908158Y-13509150D02*
X8936729Y-13509150D01*
X8936729Y-13509150D02*
X8955777Y-13518674D01*
X8955777Y-13518674D02*
X8965301Y-13537722D01*
X8965301Y-13537722D02*
X8965301Y-13642484D01*
X8965301Y-13537722D02*
X8974825Y-13518674D01*
X8974825Y-13518674D02*
X8993872Y-13509150D01*
X8993872Y-13509150D02*
X9022444Y-13509150D01*
X9022444Y-13509150D02*
X9041491Y-13518674D01*
X9041491Y-13518674D02*
X9051015Y-13537722D01*
X9051015Y-13537722D02*
X9051015Y-13642484D01*
X9441491Y-13432960D02*
X9270063Y-13690103D01*
X9698634Y-13442484D02*
X9717682Y-13442484D01*
X9717682Y-13442484D02*
X9736729Y-13452008D01*
X9736729Y-13452008D02*
X9746253Y-13461531D01*
X9746253Y-13461531D02*
X9755777Y-13480579D01*
X9755777Y-13480579D02*
X9765301Y-13518674D01*
X9765301Y-13518674D02*
X9765301Y-13566293D01*
X9765301Y-13566293D02*
X9755777Y-13604388D01*
X9755777Y-13604388D02*
X9746253Y-13623436D01*
X9746253Y-13623436D02*
X9736729Y-13632960D01*
X9736729Y-13632960D02*
X9717682Y-13642484D01*
X9717682Y-13642484D02*
X9698634Y-13642484D01*
X9698634Y-13642484D02*
X9679587Y-13632960D01*
X9679587Y-13632960D02*
X9670063Y-13623436D01*
X9670063Y-13623436D02*
X9660539Y-13604388D01*
X9660539Y-13604388D02*
X9651015Y-13566293D01*
X9651015Y-13566293D02*
X9651015Y-13518674D01*
X9651015Y-13518674D02*
X9660539Y-13480579D01*
X9660539Y-13480579D02*
X9670063Y-13461531D01*
X9670063Y-13461531D02*
X9679587Y-13452008D01*
X9679587Y-13452008D02*
X9698634Y-13442484D01*
X9851015Y-13623436D02*
X9860539Y-13632960D01*
X9860539Y-13632960D02*
X9851015Y-13642484D01*
X9851015Y-13642484D02*
X9841491Y-13632960D01*
X9841491Y-13632960D02*
X9851015Y-13623436D01*
X9851015Y-13623436D02*
X9851015Y-13642484D01*
X9984348Y-13442484D02*
X10003396Y-13442484D01*
X10003396Y-13442484D02*
X10022444Y-13452008D01*
X10022444Y-13452008D02*
X10031968Y-13461531D01*
X10031968Y-13461531D02*
X10041491Y-13480579D01*
X10041491Y-13480579D02*
X10051015Y-13518674D01*
X10051015Y-13518674D02*
X10051015Y-13566293D01*
X10051015Y-13566293D02*
X10041491Y-13604388D01*
X10041491Y-13604388D02*
X10031968Y-13623436D01*
X10031968Y-13623436D02*
X10022444Y-13632960D01*
X10022444Y-13632960D02*
X10003396Y-13642484D01*
X10003396Y-13642484D02*
X9984348Y-13642484D01*
X9984348Y-13642484D02*
X9965301Y-13632960D01*
X9965301Y-13632960D02*
X9955777Y-13623436D01*
X9955777Y-13623436D02*
X9946253Y-13604388D01*
X9946253Y-13604388D02*
X9936729Y-13566293D01*
X9936729Y-13566293D02*
X9936729Y-13518674D01*
X9936729Y-13518674D02*
X9946253Y-13480579D01*
X9946253Y-13480579D02*
X9955777Y-13461531D01*
X9955777Y-13461531D02*
X9965301Y-13452008D01*
X9965301Y-13452008D02*
X9984348Y-13442484D01*
X10117682Y-13442484D02*
X10241491Y-13442484D01*
X10241491Y-13442484D02*
X10174825Y-13518674D01*
X10174825Y-13518674D02*
X10203396Y-13518674D01*
X10203396Y-13518674D02*
X10222444Y-13528198D01*
X10222444Y-13528198D02*
X10231968Y-13537722D01*
X10231968Y-13537722D02*
X10241491Y-13556769D01*
X10241491Y-13556769D02*
X10241491Y-13604388D01*
X10241491Y-13604388D02*
X10231968Y-13623436D01*
X10231968Y-13623436D02*
X10222444Y-13632960D01*
X10222444Y-13632960D02*
X10203396Y-13642484D01*
X10203396Y-13642484D02*
X10146253Y-13642484D01*
X10146253Y-13642484D02*
X10127206Y-13632960D01*
X10127206Y-13632960D02*
X10117682Y-13623436D01*
X10336729Y-13642484D02*
X10374825Y-13642484D01*
X10374825Y-13642484D02*
X10393872Y-13632960D01*
X10393872Y-13632960D02*
X10403396Y-13623436D01*
X10403396Y-13623436D02*
X10422444Y-13594865D01*
X10422444Y-13594865D02*
X10431968Y-13556769D01*
X10431968Y-13556769D02*
X10431968Y-13480579D01*
X10431968Y-13480579D02*
X10422444Y-13461531D01*
X10422444Y-13461531D02*
X10412920Y-13452008D01*
X10412920Y-13452008D02*
X10393872Y-13442484D01*
X10393872Y-13442484D02*
X10355777Y-13442484D01*
X10355777Y-13442484D02*
X10336729Y-13452008D01*
X10336729Y-13452008D02*
X10327206Y-13461531D01*
X10327206Y-13461531D02*
X10317682Y-13480579D01*
X10317682Y-13480579D02*
X10317682Y-13528198D01*
X10317682Y-13528198D02*
X10327206Y-13547246D01*
X10327206Y-13547246D02*
X10336729Y-13556769D01*
X10336729Y-13556769D02*
X10355777Y-13566293D01*
X10355777Y-13566293D02*
X10393872Y-13566293D01*
X10393872Y-13566293D02*
X10412920Y-13556769D01*
X10412920Y-13556769D02*
X10422444Y-13547246D01*
X10422444Y-13547246D02*
X10431968Y-13528198D01*
X10603396Y-13509150D02*
X10603396Y-13642484D01*
X10555777Y-13432960D02*
X10508158Y-13575817D01*
X10508158Y-13575817D02*
X10631968Y-13575817D01*
X10698634Y-13442484D02*
X10698634Y-13480579D01*
X10774825Y-13442484D02*
X10774825Y-13480579D01*
X11070063Y-13718674D02*
X11060539Y-13709150D01*
X11060539Y-13709150D02*
X11041491Y-13680579D01*
X11041491Y-13680579D02*
X11031968Y-13661531D01*
X11031968Y-13661531D02*
X11022444Y-13632960D01*
X11022444Y-13632960D02*
X11012920Y-13585341D01*
X11012920Y-13585341D02*
X11012920Y-13547246D01*
X11012920Y-13547246D02*
X11022444Y-13499627D01*
X11022444Y-13499627D02*
X11031968Y-13471055D01*
X11031968Y-13471055D02*
X11041491Y-13452008D01*
X11041491Y-13452008D02*
X11060539Y-13423436D01*
X11060539Y-13423436D02*
X11070063Y-13413912D01*
X11241491Y-13442484D02*
X11146253Y-13442484D01*
X11146253Y-13442484D02*
X11136730Y-13537722D01*
X11136730Y-13537722D02*
X11146253Y-13528198D01*
X11146253Y-13528198D02*
X11165301Y-13518674D01*
X11165301Y-13518674D02*
X11212920Y-13518674D01*
X11212920Y-13518674D02*
X11231968Y-13528198D01*
X11231968Y-13528198D02*
X11241491Y-13537722D01*
X11241491Y-13537722D02*
X11251015Y-13556769D01*
X11251015Y-13556769D02*
X11251015Y-13604388D01*
X11251015Y-13604388D02*
X11241491Y-13623436D01*
X11241491Y-13623436D02*
X11231968Y-13632960D01*
X11231968Y-13632960D02*
X11212920Y-13642484D01*
X11212920Y-13642484D02*
X11165301Y-13642484D01*
X11165301Y-13642484D02*
X11146253Y-13632960D01*
X11146253Y-13632960D02*
X11136730Y-13623436D01*
X11489110Y-13642484D02*
X11489110Y-13442484D01*
X11574825Y-13642484D02*
X11574825Y-13537722D01*
X11574825Y-13537722D02*
X11565301Y-13518674D01*
X11565301Y-13518674D02*
X11546253Y-13509150D01*
X11546253Y-13509150D02*
X11517682Y-13509150D01*
X11517682Y-13509150D02*
X11498634Y-13518674D01*
X11498634Y-13518674D02*
X11489110Y-13528198D01*
X11698634Y-13642484D02*
X11679587Y-13632960D01*
X11679587Y-13632960D02*
X11670063Y-13623436D01*
X11670063Y-13623436D02*
X11660539Y-13604388D01*
X11660539Y-13604388D02*
X11660539Y-13547246D01*
X11660539Y-13547246D02*
X11670063Y-13528198D01*
X11670063Y-13528198D02*
X11679587Y-13518674D01*
X11679587Y-13518674D02*
X11698634Y-13509150D01*
X11698634Y-13509150D02*
X11727206Y-13509150D01*
X11727206Y-13509150D02*
X11746253Y-13518674D01*
X11746253Y-13518674D02*
X11755777Y-13528198D01*
X11755777Y-13528198D02*
X11765301Y-13547246D01*
X11765301Y-13547246D02*
X11765301Y-13604388D01*
X11765301Y-13604388D02*
X11755777Y-13623436D01*
X11755777Y-13623436D02*
X11746253Y-13632960D01*
X11746253Y-13632960D02*
X11727206Y-13642484D01*
X11727206Y-13642484D02*
X11698634Y-13642484D01*
X11879587Y-13642484D02*
X11860539Y-13632960D01*
X11860539Y-13632960D02*
X11851015Y-13613912D01*
X11851015Y-13613912D02*
X11851015Y-13442484D01*
X12031968Y-13632960D02*
X12012920Y-13642484D01*
X12012920Y-13642484D02*
X11974825Y-13642484D01*
X11974825Y-13642484D02*
X11955777Y-13632960D01*
X11955777Y-13632960D02*
X11946253Y-13613912D01*
X11946253Y-13613912D02*
X11946253Y-13537722D01*
X11946253Y-13537722D02*
X11955777Y-13518674D01*
X11955777Y-13518674D02*
X11974825Y-13509150D01*
X11974825Y-13509150D02*
X12012920Y-13509150D01*
X12012920Y-13509150D02*
X12031968Y-13518674D01*
X12031968Y-13518674D02*
X12041491Y-13537722D01*
X12041491Y-13537722D02*
X12041491Y-13556769D01*
X12041491Y-13556769D02*
X11946253Y-13575817D01*
X12117682Y-13632960D02*
X12136730Y-13642484D01*
X12136730Y-13642484D02*
X12174825Y-13642484D01*
X12174825Y-13642484D02*
X12193872Y-13632960D01*
X12193872Y-13632960D02*
X12203396Y-13613912D01*
X12203396Y-13613912D02*
X12203396Y-13604388D01*
X12203396Y-13604388D02*
X12193872Y-13585341D01*
X12193872Y-13585341D02*
X12174825Y-13575817D01*
X12174825Y-13575817D02*
X12146253Y-13575817D01*
X12146253Y-13575817D02*
X12127206Y-13566293D01*
X12127206Y-13566293D02*
X12117682Y-13547246D01*
X12117682Y-13547246D02*
X12117682Y-13537722D01*
X12117682Y-13537722D02*
X12127206Y-13518674D01*
X12127206Y-13518674D02*
X12146253Y-13509150D01*
X12146253Y-13509150D02*
X12174825Y-13509150D01*
X12174825Y-13509150D02*
X12193872Y-13518674D01*
X12270063Y-13718674D02*
X12279587Y-13709150D01*
X12279587Y-13709150D02*
X12298634Y-13680579D01*
X12298634Y-13680579D02*
X12308158Y-13661531D01*
X12308158Y-13661531D02*
X12317682Y-13632960D01*
X12317682Y-13632960D02*
X12327206Y-13585341D01*
X12327206Y-13585341D02*
X12327206Y-13547246D01*
X12327206Y-13547246D02*
X12317682Y-13499627D01*
X12317682Y-13499627D02*
X12308158Y-13471055D01*
X12308158Y-13471055D02*
X12298634Y-13452008D01*
X12298634Y-13452008D02*
X12279587Y-13423436D01*
X12279587Y-13423436D02*
X12270063Y-13413912D01*
D12*
X7378000Y-13756500D02*
X7495000Y-13873500D01*
X7495000Y-13756500D02*
X7378000Y-13873500D01*
X7495000Y-13815000D02*
G75*
G02*
X7378000Y-13815000I-58500J0D01*
G01*
X7378000Y-13815000D02*
G75*
G02*
X7495000Y-13815000I58500J0D01*
G01*
D11*
X7860539Y-13906484D02*
X7746253Y-13906484D01*
X7803396Y-13906484D02*
X7803396Y-13706484D01*
X7803396Y-13706484D02*
X7784348Y-13735055D01*
X7784348Y-13735055D02*
X7765301Y-13754103D01*
X7765301Y-13754103D02*
X7746253Y-13763627D01*
X7946253Y-13887436D02*
X7955777Y-13896960D01*
X7955777Y-13896960D02*
X7946253Y-13906484D01*
X7946253Y-13906484D02*
X7936729Y-13896960D01*
X7936729Y-13896960D02*
X7946253Y-13887436D01*
X7946253Y-13887436D02*
X7946253Y-13906484D01*
X8146253Y-13906484D02*
X8031967Y-13906484D01*
X8089110Y-13906484D02*
X8089110Y-13706484D01*
X8089110Y-13706484D02*
X8070062Y-13735055D01*
X8070062Y-13735055D02*
X8051015Y-13754103D01*
X8051015Y-13754103D02*
X8031967Y-13763627D01*
X8212920Y-13706484D02*
X8346253Y-13706484D01*
X8346253Y-13706484D02*
X8260539Y-13906484D01*
X8460539Y-13706484D02*
X8479586Y-13706484D01*
X8479586Y-13706484D02*
X8498634Y-13716008D01*
X8498634Y-13716008D02*
X8508158Y-13725531D01*
X8508158Y-13725531D02*
X8517682Y-13744579D01*
X8517682Y-13744579D02*
X8527205Y-13782674D01*
X8527205Y-13782674D02*
X8527205Y-13830293D01*
X8527205Y-13830293D02*
X8517682Y-13868388D01*
X8517682Y-13868388D02*
X8508158Y-13887436D01*
X8508158Y-13887436D02*
X8498634Y-13896960D01*
X8498634Y-13896960D02*
X8479586Y-13906484D01*
X8479586Y-13906484D02*
X8460539Y-13906484D01*
X8460539Y-13906484D02*
X8441491Y-13896960D01*
X8441491Y-13896960D02*
X8431967Y-13887436D01*
X8431967Y-13887436D02*
X8422444Y-13868388D01*
X8422444Y-13868388D02*
X8412920Y-13830293D01*
X8412920Y-13830293D02*
X8412920Y-13782674D01*
X8412920Y-13782674D02*
X8422444Y-13744579D01*
X8422444Y-13744579D02*
X8431967Y-13725531D01*
X8431967Y-13725531D02*
X8441491Y-13716008D01*
X8441491Y-13716008D02*
X8460539Y-13706484D01*
X8612920Y-13906484D02*
X8612920Y-13773150D01*
X8612920Y-13792198D02*
X8622444Y-13782674D01*
X8622444Y-13782674D02*
X8641491Y-13773150D01*
X8641491Y-13773150D02*
X8670063Y-13773150D01*
X8670063Y-13773150D02*
X8689110Y-13782674D01*
X8689110Y-13782674D02*
X8698634Y-13801722D01*
X8698634Y-13801722D02*
X8698634Y-13906484D01*
X8698634Y-13801722D02*
X8708158Y-13782674D01*
X8708158Y-13782674D02*
X8727205Y-13773150D01*
X8727205Y-13773150D02*
X8755777Y-13773150D01*
X8755777Y-13773150D02*
X8774825Y-13782674D01*
X8774825Y-13782674D02*
X8784348Y-13801722D01*
X8784348Y-13801722D02*
X8784348Y-13906484D01*
X8879586Y-13906484D02*
X8879586Y-13773150D01*
X8879586Y-13792198D02*
X8889110Y-13782674D01*
X8889110Y-13782674D02*
X8908158Y-13773150D01*
X8908158Y-13773150D02*
X8936729Y-13773150D01*
X8936729Y-13773150D02*
X8955777Y-13782674D01*
X8955777Y-13782674D02*
X8965301Y-13801722D01*
X8965301Y-13801722D02*
X8965301Y-13906484D01*
X8965301Y-13801722D02*
X8974825Y-13782674D01*
X8974825Y-13782674D02*
X8993872Y-13773150D01*
X8993872Y-13773150D02*
X9022444Y-13773150D01*
X9022444Y-13773150D02*
X9041491Y-13782674D01*
X9041491Y-13782674D02*
X9051015Y-13801722D01*
X9051015Y-13801722D02*
X9051015Y-13906484D01*
X9441491Y-13696960D02*
X9270063Y-13954103D01*
X9698634Y-13706484D02*
X9717682Y-13706484D01*
X9717682Y-13706484D02*
X9736729Y-13716008D01*
X9736729Y-13716008D02*
X9746253Y-13725531D01*
X9746253Y-13725531D02*
X9755777Y-13744579D01*
X9755777Y-13744579D02*
X9765301Y-13782674D01*
X9765301Y-13782674D02*
X9765301Y-13830293D01*
X9765301Y-13830293D02*
X9755777Y-13868388D01*
X9755777Y-13868388D02*
X9746253Y-13887436D01*
X9746253Y-13887436D02*
X9736729Y-13896960D01*
X9736729Y-13896960D02*
X9717682Y-13906484D01*
X9717682Y-13906484D02*
X9698634Y-13906484D01*
X9698634Y-13906484D02*
X9679587Y-13896960D01*
X9679587Y-13896960D02*
X9670063Y-13887436D01*
X9670063Y-13887436D02*
X9660539Y-13868388D01*
X9660539Y-13868388D02*
X9651015Y-13830293D01*
X9651015Y-13830293D02*
X9651015Y-13782674D01*
X9651015Y-13782674D02*
X9660539Y-13744579D01*
X9660539Y-13744579D02*
X9670063Y-13725531D01*
X9670063Y-13725531D02*
X9679587Y-13716008D01*
X9679587Y-13716008D02*
X9698634Y-13706484D01*
X9851015Y-13887436D02*
X9860539Y-13896960D01*
X9860539Y-13896960D02*
X9851015Y-13906484D01*
X9851015Y-13906484D02*
X9841491Y-13896960D01*
X9841491Y-13896960D02*
X9851015Y-13887436D01*
X9851015Y-13887436D02*
X9851015Y-13906484D01*
X9984348Y-13706484D02*
X10003396Y-13706484D01*
X10003396Y-13706484D02*
X10022444Y-13716008D01*
X10022444Y-13716008D02*
X10031968Y-13725531D01*
X10031968Y-13725531D02*
X10041491Y-13744579D01*
X10041491Y-13744579D02*
X10051015Y-13782674D01*
X10051015Y-13782674D02*
X10051015Y-13830293D01*
X10051015Y-13830293D02*
X10041491Y-13868388D01*
X10041491Y-13868388D02*
X10031968Y-13887436D01*
X10031968Y-13887436D02*
X10022444Y-13896960D01*
X10022444Y-13896960D02*
X10003396Y-13906484D01*
X10003396Y-13906484D02*
X9984348Y-13906484D01*
X9984348Y-13906484D02*
X9965301Y-13896960D01*
X9965301Y-13896960D02*
X9955777Y-13887436D01*
X9955777Y-13887436D02*
X9946253Y-13868388D01*
X9946253Y-13868388D02*
X9936729Y-13830293D01*
X9936729Y-13830293D02*
X9936729Y-13782674D01*
X9936729Y-13782674D02*
X9946253Y-13744579D01*
X9946253Y-13744579D02*
X9955777Y-13725531D01*
X9955777Y-13725531D02*
X9965301Y-13716008D01*
X9965301Y-13716008D02*
X9984348Y-13706484D01*
X10222444Y-13773150D02*
X10222444Y-13906484D01*
X10174825Y-13696960D02*
X10127206Y-13839817D01*
X10127206Y-13839817D02*
X10251015Y-13839817D01*
X10412920Y-13706484D02*
X10374825Y-13706484D01*
X10374825Y-13706484D02*
X10355777Y-13716008D01*
X10355777Y-13716008D02*
X10346253Y-13725531D01*
X10346253Y-13725531D02*
X10327206Y-13754103D01*
X10327206Y-13754103D02*
X10317682Y-13792198D01*
X10317682Y-13792198D02*
X10317682Y-13868388D01*
X10317682Y-13868388D02*
X10327206Y-13887436D01*
X10327206Y-13887436D02*
X10336729Y-13896960D01*
X10336729Y-13896960D02*
X10355777Y-13906484D01*
X10355777Y-13906484D02*
X10393872Y-13906484D01*
X10393872Y-13906484D02*
X10412920Y-13896960D01*
X10412920Y-13896960D02*
X10422444Y-13887436D01*
X10422444Y-13887436D02*
X10431968Y-13868388D01*
X10431968Y-13868388D02*
X10431968Y-13820769D01*
X10431968Y-13820769D02*
X10422444Y-13801722D01*
X10422444Y-13801722D02*
X10412920Y-13792198D01*
X10412920Y-13792198D02*
X10393872Y-13782674D01*
X10393872Y-13782674D02*
X10355777Y-13782674D01*
X10355777Y-13782674D02*
X10336729Y-13792198D01*
X10336729Y-13792198D02*
X10327206Y-13801722D01*
X10327206Y-13801722D02*
X10317682Y-13820769D01*
X10622444Y-13906484D02*
X10508158Y-13906484D01*
X10565301Y-13906484D02*
X10565301Y-13706484D01*
X10565301Y-13706484D02*
X10546253Y-13735055D01*
X10546253Y-13735055D02*
X10527206Y-13754103D01*
X10527206Y-13754103D02*
X10508158Y-13763627D01*
X10698634Y-13706484D02*
X10698634Y-13744579D01*
X10774825Y-13706484D02*
X10774825Y-13744579D01*
X11070063Y-13982674D02*
X11060539Y-13973150D01*
X11060539Y-13973150D02*
X11041491Y-13944579D01*
X11041491Y-13944579D02*
X11031968Y-13925531D01*
X11031968Y-13925531D02*
X11022444Y-13896960D01*
X11022444Y-13896960D02*
X11012920Y-13849341D01*
X11012920Y-13849341D02*
X11012920Y-13811246D01*
X11012920Y-13811246D02*
X11022444Y-13763627D01*
X11022444Y-13763627D02*
X11031968Y-13735055D01*
X11031968Y-13735055D02*
X11041491Y-13716008D01*
X11041491Y-13716008D02*
X11060539Y-13687436D01*
X11060539Y-13687436D02*
X11070063Y-13677912D01*
X11251015Y-13906484D02*
X11136730Y-13906484D01*
X11193872Y-13906484D02*
X11193872Y-13706484D01*
X11193872Y-13706484D02*
X11174825Y-13735055D01*
X11174825Y-13735055D02*
X11155777Y-13754103D01*
X11155777Y-13754103D02*
X11136730Y-13763627D01*
X11489110Y-13906484D02*
X11489110Y-13706484D01*
X11574825Y-13906484D02*
X11574825Y-13801722D01*
X11574825Y-13801722D02*
X11565301Y-13782674D01*
X11565301Y-13782674D02*
X11546253Y-13773150D01*
X11546253Y-13773150D02*
X11517682Y-13773150D01*
X11517682Y-13773150D02*
X11498634Y-13782674D01*
X11498634Y-13782674D02*
X11489110Y-13792198D01*
X11698634Y-13906484D02*
X11679587Y-13896960D01*
X11679587Y-13896960D02*
X11670063Y-13887436D01*
X11670063Y-13887436D02*
X11660539Y-13868388D01*
X11660539Y-13868388D02*
X11660539Y-13811246D01*
X11660539Y-13811246D02*
X11670063Y-13792198D01*
X11670063Y-13792198D02*
X11679587Y-13782674D01*
X11679587Y-13782674D02*
X11698634Y-13773150D01*
X11698634Y-13773150D02*
X11727206Y-13773150D01*
X11727206Y-13773150D02*
X11746253Y-13782674D01*
X11746253Y-13782674D02*
X11755777Y-13792198D01*
X11755777Y-13792198D02*
X11765301Y-13811246D01*
X11765301Y-13811246D02*
X11765301Y-13868388D01*
X11765301Y-13868388D02*
X11755777Y-13887436D01*
X11755777Y-13887436D02*
X11746253Y-13896960D01*
X11746253Y-13896960D02*
X11727206Y-13906484D01*
X11727206Y-13906484D02*
X11698634Y-13906484D01*
X11879587Y-13906484D02*
X11860539Y-13896960D01*
X11860539Y-13896960D02*
X11851015Y-13877912D01*
X11851015Y-13877912D02*
X11851015Y-13706484D01*
X12031968Y-13896960D02*
X12012920Y-13906484D01*
X12012920Y-13906484D02*
X11974825Y-13906484D01*
X11974825Y-13906484D02*
X11955777Y-13896960D01*
X11955777Y-13896960D02*
X11946253Y-13877912D01*
X11946253Y-13877912D02*
X11946253Y-13801722D01*
X11946253Y-13801722D02*
X11955777Y-13782674D01*
X11955777Y-13782674D02*
X11974825Y-13773150D01*
X11974825Y-13773150D02*
X12012920Y-13773150D01*
X12012920Y-13773150D02*
X12031968Y-13782674D01*
X12031968Y-13782674D02*
X12041491Y-13801722D01*
X12041491Y-13801722D02*
X12041491Y-13820769D01*
X12041491Y-13820769D02*
X11946253Y-13839817D01*
X12108158Y-13982674D02*
X12117682Y-13973150D01*
X12117682Y-13973150D02*
X12136730Y-13944579D01*
X12136730Y-13944579D02*
X12146253Y-13925531D01*
X12146253Y-13925531D02*
X12155777Y-13896960D01*
X12155777Y-13896960D02*
X12165301Y-13849341D01*
X12165301Y-13849341D02*
X12165301Y-13811246D01*
X12165301Y-13811246D02*
X12155777Y-13763627D01*
X12155777Y-13763627D02*
X12146253Y-13735055D01*
X12146253Y-13735055D02*
X12136730Y-13716008D01*
X12136730Y-13716008D02*
X12117682Y-13687436D01*
X12117682Y-13687436D02*
X12108158Y-13677912D01*
D13*
X7360000Y-14011500D02*
X7495000Y-14146500D01*
X7495000Y-14011500D02*
X7360000Y-14146500D01*
X7427500Y-14011500D02*
X7427500Y-14146500D01*
X7360000Y-14079000D02*
X7495000Y-14079000D01*
D11*
X7860539Y-14170484D02*
X7746253Y-14170484D01*
X7803396Y-14170484D02*
X7803396Y-13970484D01*
X7803396Y-13970484D02*
X7784348Y-13999055D01*
X7784348Y-13999055D02*
X7765301Y-14018103D01*
X7765301Y-14018103D02*
X7746253Y-14027627D01*
X7946253Y-14151436D02*
X7955777Y-14160960D01*
X7955777Y-14160960D02*
X7946253Y-14170484D01*
X7946253Y-14170484D02*
X7936729Y-14160960D01*
X7936729Y-14160960D02*
X7946253Y-14151436D01*
X7946253Y-14151436D02*
X7946253Y-14170484D01*
X8022443Y-13970484D02*
X8146253Y-13970484D01*
X8146253Y-13970484D02*
X8079586Y-14046674D01*
X8079586Y-14046674D02*
X8108158Y-14046674D01*
X8108158Y-14046674D02*
X8127205Y-14056198D01*
X8127205Y-14056198D02*
X8136729Y-14065722D01*
X8136729Y-14065722D02*
X8146253Y-14084769D01*
X8146253Y-14084769D02*
X8146253Y-14132388D01*
X8146253Y-14132388D02*
X8136729Y-14151436D01*
X8136729Y-14151436D02*
X8127205Y-14160960D01*
X8127205Y-14160960D02*
X8108158Y-14170484D01*
X8108158Y-14170484D02*
X8051015Y-14170484D01*
X8051015Y-14170484D02*
X8031967Y-14160960D01*
X8031967Y-14160960D02*
X8022443Y-14151436D01*
X8327205Y-13970484D02*
X8231967Y-13970484D01*
X8231967Y-13970484D02*
X8222443Y-14065722D01*
X8222443Y-14065722D02*
X8231967Y-14056198D01*
X8231967Y-14056198D02*
X8251015Y-14046674D01*
X8251015Y-14046674D02*
X8298634Y-14046674D01*
X8298634Y-14046674D02*
X8317682Y-14056198D01*
X8317682Y-14056198D02*
X8327205Y-14065722D01*
X8327205Y-14065722D02*
X8336729Y-14084769D01*
X8336729Y-14084769D02*
X8336729Y-14132388D01*
X8336729Y-14132388D02*
X8327205Y-14151436D01*
X8327205Y-14151436D02*
X8317682Y-14160960D01*
X8317682Y-14160960D02*
X8298634Y-14170484D01*
X8298634Y-14170484D02*
X8251015Y-14170484D01*
X8251015Y-14170484D02*
X8231967Y-14160960D01*
X8231967Y-14160960D02*
X8222443Y-14151436D01*
X8460539Y-13970484D02*
X8479586Y-13970484D01*
X8479586Y-13970484D02*
X8498634Y-13980008D01*
X8498634Y-13980008D02*
X8508158Y-13989531D01*
X8508158Y-13989531D02*
X8517682Y-14008579D01*
X8517682Y-14008579D02*
X8527205Y-14046674D01*
X8527205Y-14046674D02*
X8527205Y-14094293D01*
X8527205Y-14094293D02*
X8517682Y-14132388D01*
X8517682Y-14132388D02*
X8508158Y-14151436D01*
X8508158Y-14151436D02*
X8498634Y-14160960D01*
X8498634Y-14160960D02*
X8479586Y-14170484D01*
X8479586Y-14170484D02*
X8460539Y-14170484D01*
X8460539Y-14170484D02*
X8441491Y-14160960D01*
X8441491Y-14160960D02*
X8431967Y-14151436D01*
X8431967Y-14151436D02*
X8422444Y-14132388D01*
X8422444Y-14132388D02*
X8412920Y-14094293D01*
X8412920Y-14094293D02*
X8412920Y-14046674D01*
X8412920Y-14046674D02*
X8422444Y-14008579D01*
X8422444Y-14008579D02*
X8431967Y-13989531D01*
X8431967Y-13989531D02*
X8441491Y-13980008D01*
X8441491Y-13980008D02*
X8460539Y-13970484D01*
X8612920Y-14170484D02*
X8612920Y-14037150D01*
X8612920Y-14056198D02*
X8622444Y-14046674D01*
X8622444Y-14046674D02*
X8641491Y-14037150D01*
X8641491Y-14037150D02*
X8670063Y-14037150D01*
X8670063Y-14037150D02*
X8689110Y-14046674D01*
X8689110Y-14046674D02*
X8698634Y-14065722D01*
X8698634Y-14065722D02*
X8698634Y-14170484D01*
X8698634Y-14065722D02*
X8708158Y-14046674D01*
X8708158Y-14046674D02*
X8727205Y-14037150D01*
X8727205Y-14037150D02*
X8755777Y-14037150D01*
X8755777Y-14037150D02*
X8774825Y-14046674D01*
X8774825Y-14046674D02*
X8784348Y-14065722D01*
X8784348Y-14065722D02*
X8784348Y-14170484D01*
X8879586Y-14170484D02*
X8879586Y-14037150D01*
X8879586Y-14056198D02*
X8889110Y-14046674D01*
X8889110Y-14046674D02*
X8908158Y-14037150D01*
X8908158Y-14037150D02*
X8936729Y-14037150D01*
X8936729Y-14037150D02*
X8955777Y-14046674D01*
X8955777Y-14046674D02*
X8965301Y-14065722D01*
X8965301Y-14065722D02*
X8965301Y-14170484D01*
X8965301Y-14065722D02*
X8974825Y-14046674D01*
X8974825Y-14046674D02*
X8993872Y-14037150D01*
X8993872Y-14037150D02*
X9022444Y-14037150D01*
X9022444Y-14037150D02*
X9041491Y-14046674D01*
X9041491Y-14046674D02*
X9051015Y-14065722D01*
X9051015Y-14065722D02*
X9051015Y-14170484D01*
X9441491Y-13960960D02*
X9270063Y-14218103D01*
X9698634Y-13970484D02*
X9717682Y-13970484D01*
X9717682Y-13970484D02*
X9736729Y-13980008D01*
X9736729Y-13980008D02*
X9746253Y-13989531D01*
X9746253Y-13989531D02*
X9755777Y-14008579D01*
X9755777Y-14008579D02*
X9765301Y-14046674D01*
X9765301Y-14046674D02*
X9765301Y-14094293D01*
X9765301Y-14094293D02*
X9755777Y-14132388D01*
X9755777Y-14132388D02*
X9746253Y-14151436D01*
X9746253Y-14151436D02*
X9736729Y-14160960D01*
X9736729Y-14160960D02*
X9717682Y-14170484D01*
X9717682Y-14170484D02*
X9698634Y-14170484D01*
X9698634Y-14170484D02*
X9679587Y-14160960D01*
X9679587Y-14160960D02*
X9670063Y-14151436D01*
X9670063Y-14151436D02*
X9660539Y-14132388D01*
X9660539Y-14132388D02*
X9651015Y-14094293D01*
X9651015Y-14094293D02*
X9651015Y-14046674D01*
X9651015Y-14046674D02*
X9660539Y-14008579D01*
X9660539Y-14008579D02*
X9670063Y-13989531D01*
X9670063Y-13989531D02*
X9679587Y-13980008D01*
X9679587Y-13980008D02*
X9698634Y-13970484D01*
X9851015Y-14151436D02*
X9860539Y-14160960D01*
X9860539Y-14160960D02*
X9851015Y-14170484D01*
X9851015Y-14170484D02*
X9841491Y-14160960D01*
X9841491Y-14160960D02*
X9851015Y-14151436D01*
X9851015Y-14151436D02*
X9851015Y-14170484D01*
X9984348Y-13970484D02*
X10003396Y-13970484D01*
X10003396Y-13970484D02*
X10022444Y-13980008D01*
X10022444Y-13980008D02*
X10031968Y-13989531D01*
X10031968Y-13989531D02*
X10041491Y-14008579D01*
X10041491Y-14008579D02*
X10051015Y-14046674D01*
X10051015Y-14046674D02*
X10051015Y-14094293D01*
X10051015Y-14094293D02*
X10041491Y-14132388D01*
X10041491Y-14132388D02*
X10031968Y-14151436D01*
X10031968Y-14151436D02*
X10022444Y-14160960D01*
X10022444Y-14160960D02*
X10003396Y-14170484D01*
X10003396Y-14170484D02*
X9984348Y-14170484D01*
X9984348Y-14170484D02*
X9965301Y-14160960D01*
X9965301Y-14160960D02*
X9955777Y-14151436D01*
X9955777Y-14151436D02*
X9946253Y-14132388D01*
X9946253Y-14132388D02*
X9936729Y-14094293D01*
X9936729Y-14094293D02*
X9936729Y-14046674D01*
X9936729Y-14046674D02*
X9946253Y-14008579D01*
X9946253Y-14008579D02*
X9955777Y-13989531D01*
X9955777Y-13989531D02*
X9965301Y-13980008D01*
X9965301Y-13980008D02*
X9984348Y-13970484D01*
X10231968Y-13970484D02*
X10136729Y-13970484D01*
X10136729Y-13970484D02*
X10127206Y-14065722D01*
X10127206Y-14065722D02*
X10136729Y-14056198D01*
X10136729Y-14056198D02*
X10155777Y-14046674D01*
X10155777Y-14046674D02*
X10203396Y-14046674D01*
X10203396Y-14046674D02*
X10222444Y-14056198D01*
X10222444Y-14056198D02*
X10231968Y-14065722D01*
X10231968Y-14065722D02*
X10241491Y-14084769D01*
X10241491Y-14084769D02*
X10241491Y-14132388D01*
X10241491Y-14132388D02*
X10231968Y-14151436D01*
X10231968Y-14151436D02*
X10222444Y-14160960D01*
X10222444Y-14160960D02*
X10203396Y-14170484D01*
X10203396Y-14170484D02*
X10155777Y-14170484D01*
X10155777Y-14170484D02*
X10136729Y-14160960D01*
X10136729Y-14160960D02*
X10127206Y-14151436D01*
X10308158Y-13970484D02*
X10431968Y-13970484D01*
X10431968Y-13970484D02*
X10365301Y-14046674D01*
X10365301Y-14046674D02*
X10393872Y-14046674D01*
X10393872Y-14046674D02*
X10412920Y-14056198D01*
X10412920Y-14056198D02*
X10422444Y-14065722D01*
X10422444Y-14065722D02*
X10431968Y-14084769D01*
X10431968Y-14084769D02*
X10431968Y-14132388D01*
X10431968Y-14132388D02*
X10422444Y-14151436D01*
X10422444Y-14151436D02*
X10412920Y-14160960D01*
X10412920Y-14160960D02*
X10393872Y-14170484D01*
X10393872Y-14170484D02*
X10336729Y-14170484D01*
X10336729Y-14170484D02*
X10317682Y-14160960D01*
X10317682Y-14160960D02*
X10308158Y-14151436D01*
X10622444Y-14170484D02*
X10508158Y-14170484D01*
X10565301Y-14170484D02*
X10565301Y-13970484D01*
X10565301Y-13970484D02*
X10546253Y-13999055D01*
X10546253Y-13999055D02*
X10527206Y-14018103D01*
X10527206Y-14018103D02*
X10508158Y-14027627D01*
X10698634Y-13970484D02*
X10698634Y-14008579D01*
X10774825Y-13970484D02*
X10774825Y-14008579D01*
X11070063Y-14246674D02*
X11060539Y-14237150D01*
X11060539Y-14237150D02*
X11041491Y-14208579D01*
X11041491Y-14208579D02*
X11031968Y-14189531D01*
X11031968Y-14189531D02*
X11022444Y-14160960D01*
X11022444Y-14160960D02*
X11012920Y-14113341D01*
X11012920Y-14113341D02*
X11012920Y-14075246D01*
X11012920Y-14075246D02*
X11022444Y-14027627D01*
X11022444Y-14027627D02*
X11031968Y-13999055D01*
X11031968Y-13999055D02*
X11041491Y-13980008D01*
X11041491Y-13980008D02*
X11060539Y-13951436D01*
X11060539Y-13951436D02*
X11070063Y-13941912D01*
X11174825Y-14056198D02*
X11155777Y-14046674D01*
X11155777Y-14046674D02*
X11146253Y-14037150D01*
X11146253Y-14037150D02*
X11136730Y-14018103D01*
X11136730Y-14018103D02*
X11136730Y-14008579D01*
X11136730Y-14008579D02*
X11146253Y-13989531D01*
X11146253Y-13989531D02*
X11155777Y-13980008D01*
X11155777Y-13980008D02*
X11174825Y-13970484D01*
X11174825Y-13970484D02*
X11212920Y-13970484D01*
X11212920Y-13970484D02*
X11231968Y-13980008D01*
X11231968Y-13980008D02*
X11241491Y-13989531D01*
X11241491Y-13989531D02*
X11251015Y-14008579D01*
X11251015Y-14008579D02*
X11251015Y-14018103D01*
X11251015Y-14018103D02*
X11241491Y-14037150D01*
X11241491Y-14037150D02*
X11231968Y-14046674D01*
X11231968Y-14046674D02*
X11212920Y-14056198D01*
X11212920Y-14056198D02*
X11174825Y-14056198D01*
X11174825Y-14056198D02*
X11155777Y-14065722D01*
X11155777Y-14065722D02*
X11146253Y-14075246D01*
X11146253Y-14075246D02*
X11136730Y-14094293D01*
X11136730Y-14094293D02*
X11136730Y-14132388D01*
X11136730Y-14132388D02*
X11146253Y-14151436D01*
X11146253Y-14151436D02*
X11155777Y-14160960D01*
X11155777Y-14160960D02*
X11174825Y-14170484D01*
X11174825Y-14170484D02*
X11212920Y-14170484D01*
X11212920Y-14170484D02*
X11231968Y-14160960D01*
X11231968Y-14160960D02*
X11241491Y-14151436D01*
X11241491Y-14151436D02*
X11251015Y-14132388D01*
X11251015Y-14132388D02*
X11251015Y-14094293D01*
X11251015Y-14094293D02*
X11241491Y-14075246D01*
X11241491Y-14075246D02*
X11231968Y-14065722D01*
X11231968Y-14065722D02*
X11212920Y-14056198D01*
X11327206Y-13989531D02*
X11336729Y-13980008D01*
X11336729Y-13980008D02*
X11355777Y-13970484D01*
X11355777Y-13970484D02*
X11403396Y-13970484D01*
X11403396Y-13970484D02*
X11422444Y-13980008D01*
X11422444Y-13980008D02*
X11431968Y-13989531D01*
X11431968Y-13989531D02*
X11441491Y-14008579D01*
X11441491Y-14008579D02*
X11441491Y-14027627D01*
X11441491Y-14027627D02*
X11431968Y-14056198D01*
X11431968Y-14056198D02*
X11317682Y-14170484D01*
X11317682Y-14170484D02*
X11441491Y-14170484D01*
X11679587Y-14170484D02*
X11679587Y-13970484D01*
X11765301Y-14170484D02*
X11765301Y-14065722D01*
X11765301Y-14065722D02*
X11755777Y-14046674D01*
X11755777Y-14046674D02*
X11736730Y-14037150D01*
X11736730Y-14037150D02*
X11708158Y-14037150D01*
X11708158Y-14037150D02*
X11689110Y-14046674D01*
X11689110Y-14046674D02*
X11679587Y-14056198D01*
X11889110Y-14170484D02*
X11870063Y-14160960D01*
X11870063Y-14160960D02*
X11860539Y-14151436D01*
X11860539Y-14151436D02*
X11851015Y-14132388D01*
X11851015Y-14132388D02*
X11851015Y-14075246D01*
X11851015Y-14075246D02*
X11860539Y-14056198D01*
X11860539Y-14056198D02*
X11870063Y-14046674D01*
X11870063Y-14046674D02*
X11889110Y-14037150D01*
X11889110Y-14037150D02*
X11917682Y-14037150D01*
X11917682Y-14037150D02*
X11936730Y-14046674D01*
X11936730Y-14046674D02*
X11946253Y-14056198D01*
X11946253Y-14056198D02*
X11955777Y-14075246D01*
X11955777Y-14075246D02*
X11955777Y-14132388D01*
X11955777Y-14132388D02*
X11946253Y-14151436D01*
X11946253Y-14151436D02*
X11936730Y-14160960D01*
X11936730Y-14160960D02*
X11917682Y-14170484D01*
X11917682Y-14170484D02*
X11889110Y-14170484D01*
X12070063Y-14170484D02*
X12051015Y-14160960D01*
X12051015Y-14160960D02*
X12041491Y-14141912D01*
X12041491Y-14141912D02*
X12041491Y-13970484D01*
X12222444Y-14160960D02*
X12203396Y-14170484D01*
X12203396Y-14170484D02*
X12165301Y-14170484D01*
X12165301Y-14170484D02*
X12146253Y-14160960D01*
X12146253Y-14160960D02*
X12136730Y-14141912D01*
X12136730Y-14141912D02*
X12136730Y-14065722D01*
X12136730Y-14065722D02*
X12146253Y-14046674D01*
X12146253Y-14046674D02*
X12165301Y-14037150D01*
X12165301Y-14037150D02*
X12203396Y-14037150D01*
X12203396Y-14037150D02*
X12222444Y-14046674D01*
X12222444Y-14046674D02*
X12231968Y-14065722D01*
X12231968Y-14065722D02*
X12231968Y-14084769D01*
X12231968Y-14084769D02*
X12136730Y-14103817D01*
X12308158Y-14160960D02*
X12327206Y-14170484D01*
X12327206Y-14170484D02*
X12365301Y-14170484D01*
X12365301Y-14170484D02*
X12384349Y-14160960D01*
X12384349Y-14160960D02*
X12393872Y-14141912D01*
X12393872Y-14141912D02*
X12393872Y-14132388D01*
X12393872Y-14132388D02*
X12384349Y-14113341D01*
X12384349Y-14113341D02*
X12365301Y-14103817D01*
X12365301Y-14103817D02*
X12336730Y-14103817D01*
X12336730Y-14103817D02*
X12317682Y-14094293D01*
X12317682Y-14094293D02*
X12308158Y-14075246D01*
X12308158Y-14075246D02*
X12308158Y-14065722D01*
X12308158Y-14065722D02*
X12317682Y-14046674D01*
X12317682Y-14046674D02*
X12336730Y-14037150D01*
X12336730Y-14037150D02*
X12365301Y-14037150D01*
X12365301Y-14037150D02*
X12384349Y-14046674D01*
X12460539Y-14246674D02*
X12470063Y-14237150D01*
X12470063Y-14237150D02*
X12489111Y-14208579D01*
X12489111Y-14208579D02*
X12498634Y-14189531D01*
X12498634Y-14189531D02*
X12508158Y-14160960D01*
X12508158Y-14160960D02*
X12517682Y-14113341D01*
X12517682Y-14113341D02*
X12517682Y-14075246D01*
X12517682Y-14075246D02*
X12508158Y-14027627D01*
X12508158Y-14027627D02*
X12498634Y-13999055D01*
X12498634Y-13999055D02*
X12489111Y-13980008D01*
X12489111Y-13980008D02*
X12470063Y-13951436D01*
X12470063Y-13951436D02*
X12460539Y-13941912D01*
D14*
X7345000Y-14268000D02*
X7495000Y-14418000D01*
X7495000Y-14268000D02*
X7345000Y-14418000D01*
X7473033Y-14396033D02*
X7473033Y-14289966D01*
X7366966Y-14289966D01*
X7366966Y-14396033D01*
X7473033Y-14396033D01*
D11*
X7860539Y-14434484D02*
X7746253Y-14434484D01*
X7803396Y-14434484D02*
X7803396Y-14234484D01*
X7803396Y-14234484D02*
X7784348Y-14263055D01*
X7784348Y-14263055D02*
X7765301Y-14282103D01*
X7765301Y-14282103D02*
X7746253Y-14291627D01*
X7946253Y-14415436D02*
X7955777Y-14424960D01*
X7955777Y-14424960D02*
X7946253Y-14434484D01*
X7946253Y-14434484D02*
X7936729Y-14424960D01*
X7936729Y-14424960D02*
X7946253Y-14415436D01*
X7946253Y-14415436D02*
X7946253Y-14434484D01*
X8136729Y-14234484D02*
X8041491Y-14234484D01*
X8041491Y-14234484D02*
X8031967Y-14329722D01*
X8031967Y-14329722D02*
X8041491Y-14320198D01*
X8041491Y-14320198D02*
X8060539Y-14310674D01*
X8060539Y-14310674D02*
X8108158Y-14310674D01*
X8108158Y-14310674D02*
X8127205Y-14320198D01*
X8127205Y-14320198D02*
X8136729Y-14329722D01*
X8136729Y-14329722D02*
X8146253Y-14348769D01*
X8146253Y-14348769D02*
X8146253Y-14396388D01*
X8146253Y-14396388D02*
X8136729Y-14415436D01*
X8136729Y-14415436D02*
X8127205Y-14424960D01*
X8127205Y-14424960D02*
X8108158Y-14434484D01*
X8108158Y-14434484D02*
X8060539Y-14434484D01*
X8060539Y-14434484D02*
X8041491Y-14424960D01*
X8041491Y-14424960D02*
X8031967Y-14415436D01*
X8270062Y-14234484D02*
X8289110Y-14234484D01*
X8289110Y-14234484D02*
X8308158Y-14244008D01*
X8308158Y-14244008D02*
X8317682Y-14253531D01*
X8317682Y-14253531D02*
X8327205Y-14272579D01*
X8327205Y-14272579D02*
X8336729Y-14310674D01*
X8336729Y-14310674D02*
X8336729Y-14358293D01*
X8336729Y-14358293D02*
X8327205Y-14396388D01*
X8327205Y-14396388D02*
X8317682Y-14415436D01*
X8317682Y-14415436D02*
X8308158Y-14424960D01*
X8308158Y-14424960D02*
X8289110Y-14434484D01*
X8289110Y-14434484D02*
X8270062Y-14434484D01*
X8270062Y-14434484D02*
X8251015Y-14424960D01*
X8251015Y-14424960D02*
X8241491Y-14415436D01*
X8241491Y-14415436D02*
X8231967Y-14396388D01*
X8231967Y-14396388D02*
X8222443Y-14358293D01*
X8222443Y-14358293D02*
X8222443Y-14310674D01*
X8222443Y-14310674D02*
X8231967Y-14272579D01*
X8231967Y-14272579D02*
X8241491Y-14253531D01*
X8241491Y-14253531D02*
X8251015Y-14244008D01*
X8251015Y-14244008D02*
X8270062Y-14234484D01*
X8460539Y-14234484D02*
X8479586Y-14234484D01*
X8479586Y-14234484D02*
X8498634Y-14244008D01*
X8498634Y-14244008D02*
X8508158Y-14253531D01*
X8508158Y-14253531D02*
X8517682Y-14272579D01*
X8517682Y-14272579D02*
X8527205Y-14310674D01*
X8527205Y-14310674D02*
X8527205Y-14358293D01*
X8527205Y-14358293D02*
X8517682Y-14396388D01*
X8517682Y-14396388D02*
X8508158Y-14415436D01*
X8508158Y-14415436D02*
X8498634Y-14424960D01*
X8498634Y-14424960D02*
X8479586Y-14434484D01*
X8479586Y-14434484D02*
X8460539Y-14434484D01*
X8460539Y-14434484D02*
X8441491Y-14424960D01*
X8441491Y-14424960D02*
X8431967Y-14415436D01*
X8431967Y-14415436D02*
X8422444Y-14396388D01*
X8422444Y-14396388D02*
X8412920Y-14358293D01*
X8412920Y-14358293D02*
X8412920Y-14310674D01*
X8412920Y-14310674D02*
X8422444Y-14272579D01*
X8422444Y-14272579D02*
X8431967Y-14253531D01*
X8431967Y-14253531D02*
X8441491Y-14244008D01*
X8441491Y-14244008D02*
X8460539Y-14234484D01*
X8612920Y-14434484D02*
X8612920Y-14301150D01*
X8612920Y-14320198D02*
X8622444Y-14310674D01*
X8622444Y-14310674D02*
X8641491Y-14301150D01*
X8641491Y-14301150D02*
X8670063Y-14301150D01*
X8670063Y-14301150D02*
X8689110Y-14310674D01*
X8689110Y-14310674D02*
X8698634Y-14329722D01*
X8698634Y-14329722D02*
X8698634Y-14434484D01*
X8698634Y-14329722D02*
X8708158Y-14310674D01*
X8708158Y-14310674D02*
X8727205Y-14301150D01*
X8727205Y-14301150D02*
X8755777Y-14301150D01*
X8755777Y-14301150D02*
X8774825Y-14310674D01*
X8774825Y-14310674D02*
X8784348Y-14329722D01*
X8784348Y-14329722D02*
X8784348Y-14434484D01*
X8879586Y-14434484D02*
X8879586Y-14301150D01*
X8879586Y-14320198D02*
X8889110Y-14310674D01*
X8889110Y-14310674D02*
X8908158Y-14301150D01*
X8908158Y-14301150D02*
X8936729Y-14301150D01*
X8936729Y-14301150D02*
X8955777Y-14310674D01*
X8955777Y-14310674D02*
X8965301Y-14329722D01*
X8965301Y-14329722D02*
X8965301Y-14434484D01*
X8965301Y-14329722D02*
X8974825Y-14310674D01*
X8974825Y-14310674D02*
X8993872Y-14301150D01*
X8993872Y-14301150D02*
X9022444Y-14301150D01*
X9022444Y-14301150D02*
X9041491Y-14310674D01*
X9041491Y-14310674D02*
X9051015Y-14329722D01*
X9051015Y-14329722D02*
X9051015Y-14434484D01*
X9441491Y-14224960D02*
X9270063Y-14482103D01*
X9698634Y-14234484D02*
X9717682Y-14234484D01*
X9717682Y-14234484D02*
X9736729Y-14244008D01*
X9736729Y-14244008D02*
X9746253Y-14253531D01*
X9746253Y-14253531D02*
X9755777Y-14272579D01*
X9755777Y-14272579D02*
X9765301Y-14310674D01*
X9765301Y-14310674D02*
X9765301Y-14358293D01*
X9765301Y-14358293D02*
X9755777Y-14396388D01*
X9755777Y-14396388D02*
X9746253Y-14415436D01*
X9746253Y-14415436D02*
X9736729Y-14424960D01*
X9736729Y-14424960D02*
X9717682Y-14434484D01*
X9717682Y-14434484D02*
X9698634Y-14434484D01*
X9698634Y-14434484D02*
X9679587Y-14424960D01*
X9679587Y-14424960D02*
X9670063Y-14415436D01*
X9670063Y-14415436D02*
X9660539Y-14396388D01*
X9660539Y-14396388D02*
X9651015Y-14358293D01*
X9651015Y-14358293D02*
X9651015Y-14310674D01*
X9651015Y-14310674D02*
X9660539Y-14272579D01*
X9660539Y-14272579D02*
X9670063Y-14253531D01*
X9670063Y-14253531D02*
X9679587Y-14244008D01*
X9679587Y-14244008D02*
X9698634Y-14234484D01*
X9851015Y-14415436D02*
X9860539Y-14424960D01*
X9860539Y-14424960D02*
X9851015Y-14434484D01*
X9851015Y-14434484D02*
X9841491Y-14424960D01*
X9841491Y-14424960D02*
X9851015Y-14415436D01*
X9851015Y-14415436D02*
X9851015Y-14434484D01*
X9984348Y-14234484D02*
X10003396Y-14234484D01*
X10003396Y-14234484D02*
X10022444Y-14244008D01*
X10022444Y-14244008D02*
X10031968Y-14253531D01*
X10031968Y-14253531D02*
X10041491Y-14272579D01*
X10041491Y-14272579D02*
X10051015Y-14310674D01*
X10051015Y-14310674D02*
X10051015Y-14358293D01*
X10051015Y-14358293D02*
X10041491Y-14396388D01*
X10041491Y-14396388D02*
X10031968Y-14415436D01*
X10031968Y-14415436D02*
X10022444Y-14424960D01*
X10022444Y-14424960D02*
X10003396Y-14434484D01*
X10003396Y-14434484D02*
X9984348Y-14434484D01*
X9984348Y-14434484D02*
X9965301Y-14424960D01*
X9965301Y-14424960D02*
X9955777Y-14415436D01*
X9955777Y-14415436D02*
X9946253Y-14396388D01*
X9946253Y-14396388D02*
X9936729Y-14358293D01*
X9936729Y-14358293D02*
X9936729Y-14310674D01*
X9936729Y-14310674D02*
X9946253Y-14272579D01*
X9946253Y-14272579D02*
X9955777Y-14253531D01*
X9955777Y-14253531D02*
X9965301Y-14244008D01*
X9965301Y-14244008D02*
X9984348Y-14234484D01*
X10231968Y-14234484D02*
X10136729Y-14234484D01*
X10136729Y-14234484D02*
X10127206Y-14329722D01*
X10127206Y-14329722D02*
X10136729Y-14320198D01*
X10136729Y-14320198D02*
X10155777Y-14310674D01*
X10155777Y-14310674D02*
X10203396Y-14310674D01*
X10203396Y-14310674D02*
X10222444Y-14320198D01*
X10222444Y-14320198D02*
X10231968Y-14329722D01*
X10231968Y-14329722D02*
X10241491Y-14348769D01*
X10241491Y-14348769D02*
X10241491Y-14396388D01*
X10241491Y-14396388D02*
X10231968Y-14415436D01*
X10231968Y-14415436D02*
X10222444Y-14424960D01*
X10222444Y-14424960D02*
X10203396Y-14434484D01*
X10203396Y-14434484D02*
X10155777Y-14434484D01*
X10155777Y-14434484D02*
X10136729Y-14424960D01*
X10136729Y-14424960D02*
X10127206Y-14415436D01*
X10336729Y-14434484D02*
X10374825Y-14434484D01*
X10374825Y-14434484D02*
X10393872Y-14424960D01*
X10393872Y-14424960D02*
X10403396Y-14415436D01*
X10403396Y-14415436D02*
X10422444Y-14386865D01*
X10422444Y-14386865D02*
X10431968Y-14348769D01*
X10431968Y-14348769D02*
X10431968Y-14272579D01*
X10431968Y-14272579D02*
X10422444Y-14253531D01*
X10422444Y-14253531D02*
X10412920Y-14244008D01*
X10412920Y-14244008D02*
X10393872Y-14234484D01*
X10393872Y-14234484D02*
X10355777Y-14234484D01*
X10355777Y-14234484D02*
X10336729Y-14244008D01*
X10336729Y-14244008D02*
X10327206Y-14253531D01*
X10327206Y-14253531D02*
X10317682Y-14272579D01*
X10317682Y-14272579D02*
X10317682Y-14320198D01*
X10317682Y-14320198D02*
X10327206Y-14339246D01*
X10327206Y-14339246D02*
X10336729Y-14348769D01*
X10336729Y-14348769D02*
X10355777Y-14358293D01*
X10355777Y-14358293D02*
X10393872Y-14358293D01*
X10393872Y-14358293D02*
X10412920Y-14348769D01*
X10412920Y-14348769D02*
X10422444Y-14339246D01*
X10422444Y-14339246D02*
X10431968Y-14320198D01*
X10622444Y-14434484D02*
X10508158Y-14434484D01*
X10565301Y-14434484D02*
X10565301Y-14234484D01*
X10565301Y-14234484D02*
X10546253Y-14263055D01*
X10546253Y-14263055D02*
X10527206Y-14282103D01*
X10527206Y-14282103D02*
X10508158Y-14291627D01*
X10698634Y-14234484D02*
X10698634Y-14272579D01*
X10774825Y-14234484D02*
X10774825Y-14272579D01*
X11070063Y-14510674D02*
X11060539Y-14501150D01*
X11060539Y-14501150D02*
X11041491Y-14472579D01*
X11041491Y-14472579D02*
X11031968Y-14453531D01*
X11031968Y-14453531D02*
X11022444Y-14424960D01*
X11022444Y-14424960D02*
X11012920Y-14377341D01*
X11012920Y-14377341D02*
X11012920Y-14339246D01*
X11012920Y-14339246D02*
X11022444Y-14291627D01*
X11022444Y-14291627D02*
X11031968Y-14263055D01*
X11031968Y-14263055D02*
X11041491Y-14244008D01*
X11041491Y-14244008D02*
X11060539Y-14215436D01*
X11060539Y-14215436D02*
X11070063Y-14205912D01*
X11251015Y-14434484D02*
X11136730Y-14434484D01*
X11193872Y-14434484D02*
X11193872Y-14234484D01*
X11193872Y-14234484D02*
X11174825Y-14263055D01*
X11174825Y-14263055D02*
X11155777Y-14282103D01*
X11155777Y-14282103D02*
X11136730Y-14291627D01*
X11489110Y-14434484D02*
X11489110Y-14234484D01*
X11574825Y-14434484D02*
X11574825Y-14329722D01*
X11574825Y-14329722D02*
X11565301Y-14310674D01*
X11565301Y-14310674D02*
X11546253Y-14301150D01*
X11546253Y-14301150D02*
X11517682Y-14301150D01*
X11517682Y-14301150D02*
X11498634Y-14310674D01*
X11498634Y-14310674D02*
X11489110Y-14320198D01*
X11698634Y-14434484D02*
X11679587Y-14424960D01*
X11679587Y-14424960D02*
X11670063Y-14415436D01*
X11670063Y-14415436D02*
X11660539Y-14396388D01*
X11660539Y-14396388D02*
X11660539Y-14339246D01*
X11660539Y-14339246D02*
X11670063Y-14320198D01*
X11670063Y-14320198D02*
X11679587Y-14310674D01*
X11679587Y-14310674D02*
X11698634Y-14301150D01*
X11698634Y-14301150D02*
X11727206Y-14301150D01*
X11727206Y-14301150D02*
X11746253Y-14310674D01*
X11746253Y-14310674D02*
X11755777Y-14320198D01*
X11755777Y-14320198D02*
X11765301Y-14339246D01*
X11765301Y-14339246D02*
X11765301Y-14396388D01*
X11765301Y-14396388D02*
X11755777Y-14415436D01*
X11755777Y-14415436D02*
X11746253Y-14424960D01*
X11746253Y-14424960D02*
X11727206Y-14434484D01*
X11727206Y-14434484D02*
X11698634Y-14434484D01*
X11879587Y-14434484D02*
X11860539Y-14424960D01*
X11860539Y-14424960D02*
X11851015Y-14405912D01*
X11851015Y-14405912D02*
X11851015Y-14234484D01*
X12031968Y-14424960D02*
X12012920Y-14434484D01*
X12012920Y-14434484D02*
X11974825Y-14434484D01*
X11974825Y-14434484D02*
X11955777Y-14424960D01*
X11955777Y-14424960D02*
X11946253Y-14405912D01*
X11946253Y-14405912D02*
X11946253Y-14329722D01*
X11946253Y-14329722D02*
X11955777Y-14310674D01*
X11955777Y-14310674D02*
X11974825Y-14301150D01*
X11974825Y-14301150D02*
X12012920Y-14301150D01*
X12012920Y-14301150D02*
X12031968Y-14310674D01*
X12031968Y-14310674D02*
X12041491Y-14329722D01*
X12041491Y-14329722D02*
X12041491Y-14348769D01*
X12041491Y-14348769D02*
X11946253Y-14367817D01*
X12108158Y-14510674D02*
X12117682Y-14501150D01*
X12117682Y-14501150D02*
X12136730Y-14472579D01*
X12136730Y-14472579D02*
X12146253Y-14453531D01*
X12146253Y-14453531D02*
X12155777Y-14424960D01*
X12155777Y-14424960D02*
X12165301Y-14377341D01*
X12165301Y-14377341D02*
X12165301Y-14339246D01*
X12165301Y-14339246D02*
X12155777Y-14291627D01*
X12155777Y-14291627D02*
X12146253Y-14263055D01*
X12146253Y-14263055D02*
X12136730Y-14244008D01*
X12136730Y-14244008D02*
X12117682Y-14215436D01*
X12117682Y-14215436D02*
X12108158Y-14205912D01*
X7295000Y-14513000D02*
X7495000Y-14713000D01*
X7495000Y-14513000D02*
X7295000Y-14713000D01*
X7395000Y-14713000D02*
X7495000Y-14613000D01*
X7395000Y-14513000D01*
X7295000Y-14613000D01*
X7395000Y-14713000D01*
X7746253Y-14523531D02*
X7755777Y-14514008D01*
X7755777Y-14514008D02*
X7774824Y-14504484D01*
X7774824Y-14504484D02*
X7822443Y-14504484D01*
X7822443Y-14504484D02*
X7841491Y-14514008D01*
X7841491Y-14514008D02*
X7851015Y-14523531D01*
X7851015Y-14523531D02*
X7860539Y-14542579D01*
X7860539Y-14542579D02*
X7860539Y-14561627D01*
X7860539Y-14561627D02*
X7851015Y-14590198D01*
X7851015Y-14590198D02*
X7736729Y-14704484D01*
X7736729Y-14704484D02*
X7860539Y-14704484D01*
X7946253Y-14685436D02*
X7955777Y-14694960D01*
X7955777Y-14694960D02*
X7946253Y-14704484D01*
X7946253Y-14704484D02*
X7936729Y-14694960D01*
X7936729Y-14694960D02*
X7946253Y-14685436D01*
X7946253Y-14685436D02*
X7946253Y-14704484D01*
X8146253Y-14704484D02*
X8031967Y-14704484D01*
X8089110Y-14704484D02*
X8089110Y-14504484D01*
X8089110Y-14504484D02*
X8070062Y-14533055D01*
X8070062Y-14533055D02*
X8051015Y-14552103D01*
X8051015Y-14552103D02*
X8031967Y-14561627D01*
X8270062Y-14504484D02*
X8289110Y-14504484D01*
X8289110Y-14504484D02*
X8308158Y-14514008D01*
X8308158Y-14514008D02*
X8317682Y-14523531D01*
X8317682Y-14523531D02*
X8327205Y-14542579D01*
X8327205Y-14542579D02*
X8336729Y-14580674D01*
X8336729Y-14580674D02*
X8336729Y-14628293D01*
X8336729Y-14628293D02*
X8327205Y-14666388D01*
X8327205Y-14666388D02*
X8317682Y-14685436D01*
X8317682Y-14685436D02*
X8308158Y-14694960D01*
X8308158Y-14694960D02*
X8289110Y-14704484D01*
X8289110Y-14704484D02*
X8270062Y-14704484D01*
X8270062Y-14704484D02*
X8251015Y-14694960D01*
X8251015Y-14694960D02*
X8241491Y-14685436D01*
X8241491Y-14685436D02*
X8231967Y-14666388D01*
X8231967Y-14666388D02*
X8222443Y-14628293D01*
X8222443Y-14628293D02*
X8222443Y-14580674D01*
X8222443Y-14580674D02*
X8231967Y-14542579D01*
X8231967Y-14542579D02*
X8241491Y-14523531D01*
X8241491Y-14523531D02*
X8251015Y-14514008D01*
X8251015Y-14514008D02*
X8270062Y-14504484D01*
X8460539Y-14504484D02*
X8479586Y-14504484D01*
X8479586Y-14504484D02*
X8498634Y-14514008D01*
X8498634Y-14514008D02*
X8508158Y-14523531D01*
X8508158Y-14523531D02*
X8517682Y-14542579D01*
X8517682Y-14542579D02*
X8527205Y-14580674D01*
X8527205Y-14580674D02*
X8527205Y-14628293D01*
X8527205Y-14628293D02*
X8517682Y-14666388D01*
X8517682Y-14666388D02*
X8508158Y-14685436D01*
X8508158Y-14685436D02*
X8498634Y-14694960D01*
X8498634Y-14694960D02*
X8479586Y-14704484D01*
X8479586Y-14704484D02*
X8460539Y-14704484D01*
X8460539Y-14704484D02*
X8441491Y-14694960D01*
X8441491Y-14694960D02*
X8431967Y-14685436D01*
X8431967Y-14685436D02*
X8422444Y-14666388D01*
X8422444Y-14666388D02*
X8412920Y-14628293D01*
X8412920Y-14628293D02*
X8412920Y-14580674D01*
X8412920Y-14580674D02*
X8422444Y-14542579D01*
X8422444Y-14542579D02*
X8431967Y-14523531D01*
X8431967Y-14523531D02*
X8441491Y-14514008D01*
X8441491Y-14514008D02*
X8460539Y-14504484D01*
X8612920Y-14704484D02*
X8612920Y-14571150D01*
X8612920Y-14590198D02*
X8622444Y-14580674D01*
X8622444Y-14580674D02*
X8641491Y-14571150D01*
X8641491Y-14571150D02*
X8670063Y-14571150D01*
X8670063Y-14571150D02*
X8689110Y-14580674D01*
X8689110Y-14580674D02*
X8698634Y-14599722D01*
X8698634Y-14599722D02*
X8698634Y-14704484D01*
X8698634Y-14599722D02*
X8708158Y-14580674D01*
X8708158Y-14580674D02*
X8727205Y-14571150D01*
X8727205Y-14571150D02*
X8755777Y-14571150D01*
X8755777Y-14571150D02*
X8774825Y-14580674D01*
X8774825Y-14580674D02*
X8784348Y-14599722D01*
X8784348Y-14599722D02*
X8784348Y-14704484D01*
X8879586Y-14704484D02*
X8879586Y-14571150D01*
X8879586Y-14590198D02*
X8889110Y-14580674D01*
X8889110Y-14580674D02*
X8908158Y-14571150D01*
X8908158Y-14571150D02*
X8936729Y-14571150D01*
X8936729Y-14571150D02*
X8955777Y-14580674D01*
X8955777Y-14580674D02*
X8965301Y-14599722D01*
X8965301Y-14599722D02*
X8965301Y-14704484D01*
X8965301Y-14599722D02*
X8974825Y-14580674D01*
X8974825Y-14580674D02*
X8993872Y-14571150D01*
X8993872Y-14571150D02*
X9022444Y-14571150D01*
X9022444Y-14571150D02*
X9041491Y-14580674D01*
X9041491Y-14580674D02*
X9051015Y-14599722D01*
X9051015Y-14599722D02*
X9051015Y-14704484D01*
X9441491Y-14494960D02*
X9270063Y-14752103D01*
X9698634Y-14504484D02*
X9717682Y-14504484D01*
X9717682Y-14504484D02*
X9736729Y-14514008D01*
X9736729Y-14514008D02*
X9746253Y-14523531D01*
X9746253Y-14523531D02*
X9755777Y-14542579D01*
X9755777Y-14542579D02*
X9765301Y-14580674D01*
X9765301Y-14580674D02*
X9765301Y-14628293D01*
X9765301Y-14628293D02*
X9755777Y-14666388D01*
X9755777Y-14666388D02*
X9746253Y-14685436D01*
X9746253Y-14685436D02*
X9736729Y-14694960D01*
X9736729Y-14694960D02*
X9717682Y-14704484D01*
X9717682Y-14704484D02*
X9698634Y-14704484D01*
X9698634Y-14704484D02*
X9679587Y-14694960D01*
X9679587Y-14694960D02*
X9670063Y-14685436D01*
X9670063Y-14685436D02*
X9660539Y-14666388D01*
X9660539Y-14666388D02*
X9651015Y-14628293D01*
X9651015Y-14628293D02*
X9651015Y-14580674D01*
X9651015Y-14580674D02*
X9660539Y-14542579D01*
X9660539Y-14542579D02*
X9670063Y-14523531D01*
X9670063Y-14523531D02*
X9679587Y-14514008D01*
X9679587Y-14514008D02*
X9698634Y-14504484D01*
X9851015Y-14685436D02*
X9860539Y-14694960D01*
X9860539Y-14694960D02*
X9851015Y-14704484D01*
X9851015Y-14704484D02*
X9841491Y-14694960D01*
X9841491Y-14694960D02*
X9851015Y-14685436D01*
X9851015Y-14685436D02*
X9851015Y-14704484D01*
X9984348Y-14504484D02*
X10003396Y-14504484D01*
X10003396Y-14504484D02*
X10022444Y-14514008D01*
X10022444Y-14514008D02*
X10031968Y-14523531D01*
X10031968Y-14523531D02*
X10041491Y-14542579D01*
X10041491Y-14542579D02*
X10051015Y-14580674D01*
X10051015Y-14580674D02*
X10051015Y-14628293D01*
X10051015Y-14628293D02*
X10041491Y-14666388D01*
X10041491Y-14666388D02*
X10031968Y-14685436D01*
X10031968Y-14685436D02*
X10022444Y-14694960D01*
X10022444Y-14694960D02*
X10003396Y-14704484D01*
X10003396Y-14704484D02*
X9984348Y-14704484D01*
X9984348Y-14704484D02*
X9965301Y-14694960D01*
X9965301Y-14694960D02*
X9955777Y-14685436D01*
X9955777Y-14685436D02*
X9946253Y-14666388D01*
X9946253Y-14666388D02*
X9936729Y-14628293D01*
X9936729Y-14628293D02*
X9936729Y-14580674D01*
X9936729Y-14580674D02*
X9946253Y-14542579D01*
X9946253Y-14542579D02*
X9955777Y-14523531D01*
X9955777Y-14523531D02*
X9965301Y-14514008D01*
X9965301Y-14514008D02*
X9984348Y-14504484D01*
X10165301Y-14590198D02*
X10146253Y-14580674D01*
X10146253Y-14580674D02*
X10136729Y-14571150D01*
X10136729Y-14571150D02*
X10127206Y-14552103D01*
X10127206Y-14552103D02*
X10127206Y-14542579D01*
X10127206Y-14542579D02*
X10136729Y-14523531D01*
X10136729Y-14523531D02*
X10146253Y-14514008D01*
X10146253Y-14514008D02*
X10165301Y-14504484D01*
X10165301Y-14504484D02*
X10203396Y-14504484D01*
X10203396Y-14504484D02*
X10222444Y-14514008D01*
X10222444Y-14514008D02*
X10231968Y-14523531D01*
X10231968Y-14523531D02*
X10241491Y-14542579D01*
X10241491Y-14542579D02*
X10241491Y-14552103D01*
X10241491Y-14552103D02*
X10231968Y-14571150D01*
X10231968Y-14571150D02*
X10222444Y-14580674D01*
X10222444Y-14580674D02*
X10203396Y-14590198D01*
X10203396Y-14590198D02*
X10165301Y-14590198D01*
X10165301Y-14590198D02*
X10146253Y-14599722D01*
X10146253Y-14599722D02*
X10136729Y-14609246D01*
X10136729Y-14609246D02*
X10127206Y-14628293D01*
X10127206Y-14628293D02*
X10127206Y-14666388D01*
X10127206Y-14666388D02*
X10136729Y-14685436D01*
X10136729Y-14685436D02*
X10146253Y-14694960D01*
X10146253Y-14694960D02*
X10165301Y-14704484D01*
X10165301Y-14704484D02*
X10203396Y-14704484D01*
X10203396Y-14704484D02*
X10222444Y-14694960D01*
X10222444Y-14694960D02*
X10231968Y-14685436D01*
X10231968Y-14685436D02*
X10241491Y-14666388D01*
X10241491Y-14666388D02*
X10241491Y-14628293D01*
X10241491Y-14628293D02*
X10231968Y-14609246D01*
X10231968Y-14609246D02*
X10222444Y-14599722D01*
X10222444Y-14599722D02*
X10203396Y-14590198D01*
X10317682Y-14523531D02*
X10327206Y-14514008D01*
X10327206Y-14514008D02*
X10346253Y-14504484D01*
X10346253Y-14504484D02*
X10393872Y-14504484D01*
X10393872Y-14504484D02*
X10412920Y-14514008D01*
X10412920Y-14514008D02*
X10422444Y-14523531D01*
X10422444Y-14523531D02*
X10431968Y-14542579D01*
X10431968Y-14542579D02*
X10431968Y-14561627D01*
X10431968Y-14561627D02*
X10422444Y-14590198D01*
X10422444Y-14590198D02*
X10308158Y-14704484D01*
X10308158Y-14704484D02*
X10431968Y-14704484D01*
X10498634Y-14504484D02*
X10631968Y-14504484D01*
X10631968Y-14504484D02*
X10546253Y-14704484D01*
X10698634Y-14504484D02*
X10698634Y-14542579D01*
X10774825Y-14504484D02*
X10774825Y-14542579D01*
X11070063Y-14780674D02*
X11060539Y-14771150D01*
X11060539Y-14771150D02*
X11041491Y-14742579D01*
X11041491Y-14742579D02*
X11031968Y-14723531D01*
X11031968Y-14723531D02*
X11022444Y-14694960D01*
X11022444Y-14694960D02*
X11012920Y-14647341D01*
X11012920Y-14647341D02*
X11012920Y-14609246D01*
X11012920Y-14609246D02*
X11022444Y-14561627D01*
X11022444Y-14561627D02*
X11031968Y-14533055D01*
X11031968Y-14533055D02*
X11041491Y-14514008D01*
X11041491Y-14514008D02*
X11060539Y-14485436D01*
X11060539Y-14485436D02*
X11070063Y-14475912D01*
X11136730Y-14523531D02*
X11146253Y-14514008D01*
X11146253Y-14514008D02*
X11165301Y-14504484D01*
X11165301Y-14504484D02*
X11212920Y-14504484D01*
X11212920Y-14504484D02*
X11231968Y-14514008D01*
X11231968Y-14514008D02*
X11241491Y-14523531D01*
X11241491Y-14523531D02*
X11251015Y-14542579D01*
X11251015Y-14542579D02*
X11251015Y-14561627D01*
X11251015Y-14561627D02*
X11241491Y-14590198D01*
X11241491Y-14590198D02*
X11127206Y-14704484D01*
X11127206Y-14704484D02*
X11251015Y-14704484D01*
X11489110Y-14704484D02*
X11489110Y-14504484D01*
X11574825Y-14704484D02*
X11574825Y-14599722D01*
X11574825Y-14599722D02*
X11565301Y-14580674D01*
X11565301Y-14580674D02*
X11546253Y-14571150D01*
X11546253Y-14571150D02*
X11517682Y-14571150D01*
X11517682Y-14571150D02*
X11498634Y-14580674D01*
X11498634Y-14580674D02*
X11489110Y-14590198D01*
X11698634Y-14704484D02*
X11679587Y-14694960D01*
X11679587Y-14694960D02*
X11670063Y-14685436D01*
X11670063Y-14685436D02*
X11660539Y-14666388D01*
X11660539Y-14666388D02*
X11660539Y-14609246D01*
X11660539Y-14609246D02*
X11670063Y-14590198D01*
X11670063Y-14590198D02*
X11679587Y-14580674D01*
X11679587Y-14580674D02*
X11698634Y-14571150D01*
X11698634Y-14571150D02*
X11727206Y-14571150D01*
X11727206Y-14571150D02*
X11746253Y-14580674D01*
X11746253Y-14580674D02*
X11755777Y-14590198D01*
X11755777Y-14590198D02*
X11765301Y-14609246D01*
X11765301Y-14609246D02*
X11765301Y-14666388D01*
X11765301Y-14666388D02*
X11755777Y-14685436D01*
X11755777Y-14685436D02*
X11746253Y-14694960D01*
X11746253Y-14694960D02*
X11727206Y-14704484D01*
X11727206Y-14704484D02*
X11698634Y-14704484D01*
X11879587Y-14704484D02*
X11860539Y-14694960D01*
X11860539Y-14694960D02*
X11851015Y-14675912D01*
X11851015Y-14675912D02*
X11851015Y-14504484D01*
X12031968Y-14694960D02*
X12012920Y-14704484D01*
X12012920Y-14704484D02*
X11974825Y-14704484D01*
X11974825Y-14704484D02*
X11955777Y-14694960D01*
X11955777Y-14694960D02*
X11946253Y-14675912D01*
X11946253Y-14675912D02*
X11946253Y-14599722D01*
X11946253Y-14599722D02*
X11955777Y-14580674D01*
X11955777Y-14580674D02*
X11974825Y-14571150D01*
X11974825Y-14571150D02*
X12012920Y-14571150D01*
X12012920Y-14571150D02*
X12031968Y-14580674D01*
X12031968Y-14580674D02*
X12041491Y-14599722D01*
X12041491Y-14599722D02*
X12041491Y-14618769D01*
X12041491Y-14618769D02*
X11946253Y-14637817D01*
X12117682Y-14694960D02*
X12136730Y-14704484D01*
X12136730Y-14704484D02*
X12174825Y-14704484D01*
X12174825Y-14704484D02*
X12193872Y-14694960D01*
X12193872Y-14694960D02*
X12203396Y-14675912D01*
X12203396Y-14675912D02*
X12203396Y-14666388D01*
X12203396Y-14666388D02*
X12193872Y-14647341D01*
X12193872Y-14647341D02*
X12174825Y-14637817D01*
X12174825Y-14637817D02*
X12146253Y-14637817D01*
X12146253Y-14637817D02*
X12127206Y-14628293D01*
X12127206Y-14628293D02*
X12117682Y-14609246D01*
X12117682Y-14609246D02*
X12117682Y-14599722D01*
X12117682Y-14599722D02*
X12127206Y-14580674D01*
X12127206Y-14580674D02*
X12146253Y-14571150D01*
X12146253Y-14571150D02*
X12174825Y-14571150D01*
X12174825Y-14571150D02*
X12193872Y-14580674D01*
X12270063Y-14780674D02*
X12279587Y-14771150D01*
X12279587Y-14771150D02*
X12298634Y-14742579D01*
X12298634Y-14742579D02*
X12308158Y-14723531D01*
X12308158Y-14723531D02*
X12317682Y-14694960D01*
X12317682Y-14694960D02*
X12327206Y-14647341D01*
X12327206Y-14647341D02*
X12327206Y-14609246D01*
X12327206Y-14609246D02*
X12317682Y-14561627D01*
X12317682Y-14561627D02*
X12308158Y-14533055D01*
X12308158Y-14533055D02*
X12298634Y-14514008D01*
X12298634Y-14514008D02*
X12279587Y-14485436D01*
X12279587Y-14485436D02*
X12270063Y-14475912D01*
X7395000Y-14833000D02*
X7395000Y-15033000D01*
X7295000Y-14933000D02*
X7495000Y-14933000D01*
X7495000Y-14933000D02*
G75*
G02*
X7295000Y-14933000I-100000J0D01*
G01*
X7295000Y-14933000D02*
G75*
G02*
X7495000Y-14933000I100000J0D01*
G01*
X7736729Y-14824484D02*
X7860539Y-14824484D01*
X7860539Y-14824484D02*
X7793872Y-14900674D01*
X7793872Y-14900674D02*
X7822443Y-14900674D01*
X7822443Y-14900674D02*
X7841491Y-14910198D01*
X7841491Y-14910198D02*
X7851015Y-14919722D01*
X7851015Y-14919722D02*
X7860539Y-14938769D01*
X7860539Y-14938769D02*
X7860539Y-14986388D01*
X7860539Y-14986388D02*
X7851015Y-15005436D01*
X7851015Y-15005436D02*
X7841491Y-15014960D01*
X7841491Y-15014960D02*
X7822443Y-15024484D01*
X7822443Y-15024484D02*
X7765301Y-15024484D01*
X7765301Y-15024484D02*
X7746253Y-15014960D01*
X7746253Y-15014960D02*
X7736729Y-15005436D01*
X7946253Y-15005436D02*
X7955777Y-15014960D01*
X7955777Y-15014960D02*
X7946253Y-15024484D01*
X7946253Y-15024484D02*
X7936729Y-15014960D01*
X7936729Y-15014960D02*
X7946253Y-15005436D01*
X7946253Y-15005436D02*
X7946253Y-15024484D01*
X8031967Y-14843531D02*
X8041491Y-14834008D01*
X8041491Y-14834008D02*
X8060539Y-14824484D01*
X8060539Y-14824484D02*
X8108158Y-14824484D01*
X8108158Y-14824484D02*
X8127205Y-14834008D01*
X8127205Y-14834008D02*
X8136729Y-14843531D01*
X8136729Y-14843531D02*
X8146253Y-14862579D01*
X8146253Y-14862579D02*
X8146253Y-14881627D01*
X8146253Y-14881627D02*
X8136729Y-14910198D01*
X8136729Y-14910198D02*
X8022443Y-15024484D01*
X8022443Y-15024484D02*
X8146253Y-15024484D01*
X8270062Y-14824484D02*
X8289110Y-14824484D01*
X8289110Y-14824484D02*
X8308158Y-14834008D01*
X8308158Y-14834008D02*
X8317682Y-14843531D01*
X8317682Y-14843531D02*
X8327205Y-14862579D01*
X8327205Y-14862579D02*
X8336729Y-14900674D01*
X8336729Y-14900674D02*
X8336729Y-14948293D01*
X8336729Y-14948293D02*
X8327205Y-14986388D01*
X8327205Y-14986388D02*
X8317682Y-15005436D01*
X8317682Y-15005436D02*
X8308158Y-15014960D01*
X8308158Y-15014960D02*
X8289110Y-15024484D01*
X8289110Y-15024484D02*
X8270062Y-15024484D01*
X8270062Y-15024484D02*
X8251015Y-15014960D01*
X8251015Y-15014960D02*
X8241491Y-15005436D01*
X8241491Y-15005436D02*
X8231967Y-14986388D01*
X8231967Y-14986388D02*
X8222443Y-14948293D01*
X8222443Y-14948293D02*
X8222443Y-14900674D01*
X8222443Y-14900674D02*
X8231967Y-14862579D01*
X8231967Y-14862579D02*
X8241491Y-14843531D01*
X8241491Y-14843531D02*
X8251015Y-14834008D01*
X8251015Y-14834008D02*
X8270062Y-14824484D01*
X8460539Y-14824484D02*
X8479586Y-14824484D01*
X8479586Y-14824484D02*
X8498634Y-14834008D01*
X8498634Y-14834008D02*
X8508158Y-14843531D01*
X8508158Y-14843531D02*
X8517682Y-14862579D01*
X8517682Y-14862579D02*
X8527205Y-14900674D01*
X8527205Y-14900674D02*
X8527205Y-14948293D01*
X8527205Y-14948293D02*
X8517682Y-14986388D01*
X8517682Y-14986388D02*
X8508158Y-15005436D01*
X8508158Y-15005436D02*
X8498634Y-15014960D01*
X8498634Y-15014960D02*
X8479586Y-15024484D01*
X8479586Y-15024484D02*
X8460539Y-15024484D01*
X8460539Y-15024484D02*
X8441491Y-15014960D01*
X8441491Y-15014960D02*
X8431967Y-15005436D01*
X8431967Y-15005436D02*
X8422444Y-14986388D01*
X8422444Y-14986388D02*
X8412920Y-14948293D01*
X8412920Y-14948293D02*
X8412920Y-14900674D01*
X8412920Y-14900674D02*
X8422444Y-14862579D01*
X8422444Y-14862579D02*
X8431967Y-14843531D01*
X8431967Y-14843531D02*
X8441491Y-14834008D01*
X8441491Y-14834008D02*
X8460539Y-14824484D01*
X8612920Y-15024484D02*
X8612920Y-14891150D01*
X8612920Y-14910198D02*
X8622444Y-14900674D01*
X8622444Y-14900674D02*
X8641491Y-14891150D01*
X8641491Y-14891150D02*
X8670063Y-14891150D01*
X8670063Y-14891150D02*
X8689110Y-14900674D01*
X8689110Y-14900674D02*
X8698634Y-14919722D01*
X8698634Y-14919722D02*
X8698634Y-15024484D01*
X8698634Y-14919722D02*
X8708158Y-14900674D01*
X8708158Y-14900674D02*
X8727205Y-14891150D01*
X8727205Y-14891150D02*
X8755777Y-14891150D01*
X8755777Y-14891150D02*
X8774825Y-14900674D01*
X8774825Y-14900674D02*
X8784348Y-14919722D01*
X8784348Y-14919722D02*
X8784348Y-15024484D01*
X8879586Y-15024484D02*
X8879586Y-14891150D01*
X8879586Y-14910198D02*
X8889110Y-14900674D01*
X8889110Y-14900674D02*
X8908158Y-14891150D01*
X8908158Y-14891150D02*
X8936729Y-14891150D01*
X8936729Y-14891150D02*
X8955777Y-14900674D01*
X8955777Y-14900674D02*
X8965301Y-14919722D01*
X8965301Y-14919722D02*
X8965301Y-15024484D01*
X8965301Y-14919722D02*
X8974825Y-14900674D01*
X8974825Y-14900674D02*
X8993872Y-14891150D01*
X8993872Y-14891150D02*
X9022444Y-14891150D01*
X9022444Y-14891150D02*
X9041491Y-14900674D01*
X9041491Y-14900674D02*
X9051015Y-14919722D01*
X9051015Y-14919722D02*
X9051015Y-15024484D01*
X9441491Y-14814960D02*
X9270063Y-15072103D01*
X9698634Y-14824484D02*
X9717682Y-14824484D01*
X9717682Y-14824484D02*
X9736729Y-14834008D01*
X9736729Y-14834008D02*
X9746253Y-14843531D01*
X9746253Y-14843531D02*
X9755777Y-14862579D01*
X9755777Y-14862579D02*
X9765301Y-14900674D01*
X9765301Y-14900674D02*
X9765301Y-14948293D01*
X9765301Y-14948293D02*
X9755777Y-14986388D01*
X9755777Y-14986388D02*
X9746253Y-15005436D01*
X9746253Y-15005436D02*
X9736729Y-15014960D01*
X9736729Y-15014960D02*
X9717682Y-15024484D01*
X9717682Y-15024484D02*
X9698634Y-15024484D01*
X9698634Y-15024484D02*
X9679587Y-15014960D01*
X9679587Y-15014960D02*
X9670063Y-15005436D01*
X9670063Y-15005436D02*
X9660539Y-14986388D01*
X9660539Y-14986388D02*
X9651015Y-14948293D01*
X9651015Y-14948293D02*
X9651015Y-14900674D01*
X9651015Y-14900674D02*
X9660539Y-14862579D01*
X9660539Y-14862579D02*
X9670063Y-14843531D01*
X9670063Y-14843531D02*
X9679587Y-14834008D01*
X9679587Y-14834008D02*
X9698634Y-14824484D01*
X9851015Y-15005436D02*
X9860539Y-15014960D01*
X9860539Y-15014960D02*
X9851015Y-15024484D01*
X9851015Y-15024484D02*
X9841491Y-15014960D01*
X9841491Y-15014960D02*
X9851015Y-15005436D01*
X9851015Y-15005436D02*
X9851015Y-15024484D01*
X10051015Y-15024484D02*
X9936729Y-15024484D01*
X9993872Y-15024484D02*
X9993872Y-14824484D01*
X9993872Y-14824484D02*
X9974825Y-14853055D01*
X9974825Y-14853055D02*
X9955777Y-14872103D01*
X9955777Y-14872103D02*
X9936729Y-14881627D01*
X10127206Y-14843531D02*
X10136729Y-14834008D01*
X10136729Y-14834008D02*
X10155777Y-14824484D01*
X10155777Y-14824484D02*
X10203396Y-14824484D01*
X10203396Y-14824484D02*
X10222444Y-14834008D01*
X10222444Y-14834008D02*
X10231968Y-14843531D01*
X10231968Y-14843531D02*
X10241491Y-14862579D01*
X10241491Y-14862579D02*
X10241491Y-14881627D01*
X10241491Y-14881627D02*
X10231968Y-14910198D01*
X10231968Y-14910198D02*
X10117682Y-15024484D01*
X10117682Y-15024484D02*
X10241491Y-15024484D01*
X10412920Y-14824484D02*
X10374825Y-14824484D01*
X10374825Y-14824484D02*
X10355777Y-14834008D01*
X10355777Y-14834008D02*
X10346253Y-14843531D01*
X10346253Y-14843531D02*
X10327206Y-14872103D01*
X10327206Y-14872103D02*
X10317682Y-14910198D01*
X10317682Y-14910198D02*
X10317682Y-14986388D01*
X10317682Y-14986388D02*
X10327206Y-15005436D01*
X10327206Y-15005436D02*
X10336729Y-15014960D01*
X10336729Y-15014960D02*
X10355777Y-15024484D01*
X10355777Y-15024484D02*
X10393872Y-15024484D01*
X10393872Y-15024484D02*
X10412920Y-15014960D01*
X10412920Y-15014960D02*
X10422444Y-15005436D01*
X10422444Y-15005436D02*
X10431968Y-14986388D01*
X10431968Y-14986388D02*
X10431968Y-14938769D01*
X10431968Y-14938769D02*
X10422444Y-14919722D01*
X10422444Y-14919722D02*
X10412920Y-14910198D01*
X10412920Y-14910198D02*
X10393872Y-14900674D01*
X10393872Y-14900674D02*
X10355777Y-14900674D01*
X10355777Y-14900674D02*
X10336729Y-14910198D01*
X10336729Y-14910198D02*
X10327206Y-14919722D01*
X10327206Y-14919722D02*
X10317682Y-14938769D01*
X10555777Y-14824484D02*
X10574825Y-14824484D01*
X10574825Y-14824484D02*
X10593872Y-14834008D01*
X10593872Y-14834008D02*
X10603396Y-14843531D01*
X10603396Y-14843531D02*
X10612920Y-14862579D01*
X10612920Y-14862579D02*
X10622444Y-14900674D01*
X10622444Y-14900674D02*
X10622444Y-14948293D01*
X10622444Y-14948293D02*
X10612920Y-14986388D01*
X10612920Y-14986388D02*
X10603396Y-15005436D01*
X10603396Y-15005436D02*
X10593872Y-15014960D01*
X10593872Y-15014960D02*
X10574825Y-15024484D01*
X10574825Y-15024484D02*
X10555777Y-15024484D01*
X10555777Y-15024484D02*
X10536729Y-15014960D01*
X10536729Y-15014960D02*
X10527206Y-15005436D01*
X10527206Y-15005436D02*
X10517682Y-14986388D01*
X10517682Y-14986388D02*
X10508158Y-14948293D01*
X10508158Y-14948293D02*
X10508158Y-14900674D01*
X10508158Y-14900674D02*
X10517682Y-14862579D01*
X10517682Y-14862579D02*
X10527206Y-14843531D01*
X10527206Y-14843531D02*
X10536729Y-14834008D01*
X10536729Y-14834008D02*
X10555777Y-14824484D01*
X10698634Y-14824484D02*
X10698634Y-14862579D01*
X10774825Y-14824484D02*
X10774825Y-14862579D01*
X11070063Y-15100674D02*
X11060539Y-15091150D01*
X11060539Y-15091150D02*
X11041491Y-15062579D01*
X11041491Y-15062579D02*
X11031968Y-15043531D01*
X11031968Y-15043531D02*
X11022444Y-15014960D01*
X11022444Y-15014960D02*
X11012920Y-14967341D01*
X11012920Y-14967341D02*
X11012920Y-14929246D01*
X11012920Y-14929246D02*
X11022444Y-14881627D01*
X11022444Y-14881627D02*
X11031968Y-14853055D01*
X11031968Y-14853055D02*
X11041491Y-14834008D01*
X11041491Y-14834008D02*
X11060539Y-14805436D01*
X11060539Y-14805436D02*
X11070063Y-14795912D01*
X11231968Y-14891150D02*
X11231968Y-15024484D01*
X11184349Y-14814960D02*
X11136730Y-14957817D01*
X11136730Y-14957817D02*
X11260539Y-14957817D01*
X11489110Y-15024484D02*
X11489110Y-14824484D01*
X11574825Y-15024484D02*
X11574825Y-14919722D01*
X11574825Y-14919722D02*
X11565301Y-14900674D01*
X11565301Y-14900674D02*
X11546253Y-14891150D01*
X11546253Y-14891150D02*
X11517682Y-14891150D01*
X11517682Y-14891150D02*
X11498634Y-14900674D01*
X11498634Y-14900674D02*
X11489110Y-14910198D01*
X11698634Y-15024484D02*
X11679587Y-15014960D01*
X11679587Y-15014960D02*
X11670063Y-15005436D01*
X11670063Y-15005436D02*
X11660539Y-14986388D01*
X11660539Y-14986388D02*
X11660539Y-14929246D01*
X11660539Y-14929246D02*
X11670063Y-14910198D01*
X11670063Y-14910198D02*
X11679587Y-14900674D01*
X11679587Y-14900674D02*
X11698634Y-14891150D01*
X11698634Y-14891150D02*
X11727206Y-14891150D01*
X11727206Y-14891150D02*
X11746253Y-14900674D01*
X11746253Y-14900674D02*
X11755777Y-14910198D01*
X11755777Y-14910198D02*
X11765301Y-14929246D01*
X11765301Y-14929246D02*
X11765301Y-14986388D01*
X11765301Y-14986388D02*
X11755777Y-15005436D01*
X11755777Y-15005436D02*
X11746253Y-15014960D01*
X11746253Y-15014960D02*
X11727206Y-15024484D01*
X11727206Y-15024484D02*
X11698634Y-15024484D01*
X11879587Y-15024484D02*
X11860539Y-15014960D01*
X11860539Y-15014960D02*
X11851015Y-14995912D01*
X11851015Y-14995912D02*
X11851015Y-14824484D01*
X12031968Y-15014960D02*
X12012920Y-15024484D01*
X12012920Y-15024484D02*
X11974825Y-15024484D01*
X11974825Y-15024484D02*
X11955777Y-15014960D01*
X11955777Y-15014960D02*
X11946253Y-14995912D01*
X11946253Y-14995912D02*
X11946253Y-14919722D01*
X11946253Y-14919722D02*
X11955777Y-14900674D01*
X11955777Y-14900674D02*
X11974825Y-14891150D01*
X11974825Y-14891150D02*
X12012920Y-14891150D01*
X12012920Y-14891150D02*
X12031968Y-14900674D01*
X12031968Y-14900674D02*
X12041491Y-14919722D01*
X12041491Y-14919722D02*
X12041491Y-14938769D01*
X12041491Y-14938769D02*
X11946253Y-14957817D01*
X12117682Y-15014960D02*
X12136730Y-15024484D01*
X12136730Y-15024484D02*
X12174825Y-15024484D01*
X12174825Y-15024484D02*
X12193872Y-15014960D01*
X12193872Y-15014960D02*
X12203396Y-14995912D01*
X12203396Y-14995912D02*
X12203396Y-14986388D01*
X12203396Y-14986388D02*
X12193872Y-14967341D01*
X12193872Y-14967341D02*
X12174825Y-14957817D01*
X12174825Y-14957817D02*
X12146253Y-14957817D01*
X12146253Y-14957817D02*
X12127206Y-14948293D01*
X12127206Y-14948293D02*
X12117682Y-14929246D01*
X12117682Y-14929246D02*
X12117682Y-14919722D01*
X12117682Y-14919722D02*
X12127206Y-14900674D01*
X12127206Y-14900674D02*
X12146253Y-14891150D01*
X12146253Y-14891150D02*
X12174825Y-14891150D01*
X12174825Y-14891150D02*
X12193872Y-14900674D01*
X12270063Y-15100674D02*
X12279587Y-15091150D01*
X12279587Y-15091150D02*
X12298634Y-15062579D01*
X12298634Y-15062579D02*
X12308158Y-15043531D01*
X12308158Y-15043531D02*
X12317682Y-15014960D01*
X12317682Y-15014960D02*
X12327206Y-14967341D01*
X12327206Y-14967341D02*
X12327206Y-14929246D01*
X12327206Y-14929246D02*
X12317682Y-14881627D01*
X12317682Y-14881627D02*
X12308158Y-14853055D01*
X12308158Y-14853055D02*
X12298634Y-14834008D01*
X12298634Y-14834008D02*
X12279587Y-14805436D01*
X12279587Y-14805436D02*
X12270063Y-14795912D01*
M02*
