M48
; DRILL file {KiCad 8.0.5} date 2024-10-12T21:51:37-0700
; FORMAT={-:-/ absolute / metric / decimal}
; #@! TF.CreationDate,2024-10-12T21:51:37-07:00
; #@! TF.GenerationSoftware,Kicad,Pcbnew,8.0.5
; #@! TF.FileFunction,Plated,1,4,PTH
FMAT,2
METRIC
; #@! TA.AperFunction,Plated,PTH,ViaDrill
T1C0.300
; #@! TA.AperFunction,Plated,PTH,ComponentDrill
T2C0.350
; #@! TA.AperFunction,Plated,PTH,ComponentDrill
T3C0.500
; #@! TA.AperFunction,Plated,PTH,ComponentDrill
T4C0.600
; #@! TA.AperFunction,Plated,PTH,ComponentDrill
T5C1.000
; #@! TA.AperFunction,Plated,PTH,ComponentDrill
T6C1.170
; #@! TA.AperFunction,Plated,PTH,ComponentDrill
T7C1.350
; #@! TA.AperFunction,Plated,PTH,ComponentDrill
T8C1.500
; #@! TA.AperFunction,Plated,PTH,ComponentDrill
T9C2.100
; #@! TA.AperFunction,Plated,PTH,ComponentDrill
T10C3.200
%
G90
G05
T1
X78.83Y-98.66
X80.0Y-102.3
X80.0Y-106.3
X87.2Y-99.17
X87.49Y-101.13
X98.0Y-84.3
X106.72Y-100.91
X108.81Y-98.18
X108.92Y-99.83
X110.75Y-115.73
X111.1Y-111.9
X111.1Y-114.5
X111.17Y-110.63
X111.25Y-109.35
X112.74Y-101.34
X115.4Y-111.92
X115.44Y-110.65
X115.445Y-109.07
X117.2Y-103.5
X117.33Y-105.17
X117.6Y-98.7
X118.75Y-96.35
X119.09Y-104.36
X119.63Y-115.67
X119.69Y-107.63
X120.0Y-97.6
X120.075Y-93.425
X120.3Y-104.725
X120.77Y-114.48
X121.29Y-85.54
X121.8Y-108.425
X121.825Y-97.2
X121.875Y-93.725
X123.0Y-114.4
X123.06Y-103.6
X123.16Y-98.9
X123.35Y-100.291
X123.51Y-101.72
X124.0Y-92.4
X124.0Y-94.025
X124.15Y-97.91
X124.22Y-102.91
X124.75Y-99.23
X125.37Y-100.88
X125.44Y-102.32
X126.14Y-103.55
X126.21Y-99.21
X126.5Y-95.0
X126.839Y-100.512
X126.92Y-101.91
X127.0Y-98.35
X127.36Y-95.16
X127.5Y-109.4
X127.54Y-70.53
X127.595Y-81.325
X128.13Y-98.39
X128.16Y-102.68
X128.32Y-100.26
X128.726Y-80.194
X129.1Y-109.4
X129.115Y-81.695
X129.14Y-95.03
X129.7Y-104.912
X129.857Y-79.063
X130.1Y-84.6
X130.246Y-80.564
X130.42Y-114.11
X130.5Y-68.73
X130.5Y-94.3
X130.76Y-108.91
X130.78Y-91.31
X130.79Y-112.72
X130.989Y-77.931
X131.375Y-95.9
X131.377Y-79.433
X131.615Y-92.515
X131.864Y-100.184
X132.12Y-76.8
X132.509Y-78.301
X132.51Y-112.9
X132.74Y-72.15
X132.97Y-108.34
X132.99Y-107.35
X133.0Y-94.2
X133.64Y-77.17
X134.3Y-110.21
X134.66Y-70.77
X134.68Y-73.64
X134.95Y-69.05
X135.67Y-114.07
X135.68Y-109.98
X135.9Y-97.2
X135.9Y-98.5
X135.95Y-102.19
X136.0Y-96.0
X137.39Y-75.75
X137.8Y-68.4
X139.2Y-116.6
X139.56Y-106.14
X139.74Y-75.68
X142.33Y-103.23
X143.3Y-116.6
X145.9Y-113.1
X145.91Y-69.74
X145.93Y-71.29
X146.1Y-117.0
X146.47Y-77.48
X147.0Y-113.1
X147.2Y-117.4
X148.1Y-113.1
X148.3Y-117.0
X149.4Y-117.4
X149.67Y-79.95
X149.87Y-101.3
X150.12Y-71.275
X151.675Y-71.155
X151.68Y-77.16
X152.0Y-114.2
X152.0Y-115.2
X152.97Y-74.03
X152.975Y-71.11
X153.3Y-113.4
X153.3Y-117.0
X153.4Y-84.5
X154.26Y-74.45
X154.27Y-73.25
X154.4Y-93.4
X155.33Y-69.16
X155.8Y-113.2
X156.9Y-113.2
X158.8Y-99.24
X158.8Y-113.1
X160.1Y-114.4
X161.53Y-100.78
X161.53Y-102.35
X164.31Y-114.71
X164.69Y-110.47
X164.73Y-106.85
X165.5Y-64.0
X165.63Y-106.14
X165.9Y-101.4
X167.451Y-101.251
X167.86Y-108.98
X168.48Y-101.92
X169.07Y-69.49
X169.38Y-106.68
X169.39Y-71.33
X170.2Y-111.2
X170.45Y-68.13
X171.34Y-99.32
X171.86Y-112.04
X171.89Y-116.81
X173.95Y-102.47
X174.31Y-72.88
X174.44Y-100.55
X175.05Y-110.52
X175.24Y-71.56
X175.343Y-85.537
X176.34Y-71.49
X176.4Y-100.7
X177.31Y-102.54
X177.31Y-107.08
X177.4Y-92.9
X177.46Y-95.95
X179.7Y-108.1
X179.78Y-103.68
X181.487Y-67.188
X181.761Y-65.782
X181.8Y-108.5
X182.39Y-99.62
X182.4Y-105.5
X182.618Y-68.319
X182.893Y-66.913
X183.072Y-85.537
X183.38Y-107.85
X183.4Y-104.6
X183.72Y-106.8
X183.75Y-69.45
X184.024Y-68.045
X184.4Y-105.5
X184.881Y-70.582
X185.155Y-69.176
X185.37Y-102.69
X185.4Y-104.6
X186.012Y-71.713
X186.287Y-70.307
X189.2Y-75.9
X189.23Y-77.03
X189.3Y-101.925
X189.4Y-98.5
X191.0Y-69.3
X191.4Y-105.9
X191.5Y-108.4
X192.2Y-113.7
X192.3Y-115.51
X192.9Y-62.3
X193.1Y-110.3
X193.1Y-111.8
X193.46Y-116.6
X193.53Y-96.24
X195.1Y-62.3
X195.5Y-104.4
X195.6Y-75.9
X195.6Y-77.04
X196.705Y-104.4
X197.1Y-62.3
X197.4Y-108.54
X197.4Y-112.1
X197.91Y-104.4
X198.5Y-69.2
X198.7Y-96.4
X198.7Y-103.6
X198.7Y-109.3
X198.7Y-110.3
X198.7Y-111.4
X199.32Y-78.13
X203.1Y-73.6
X203.33Y-105.51
X203.91Y-112.1
X205.02Y-108.41
X205.2Y-80.2
X205.2Y-96.387
X205.2Y-97.688
X205.2Y-98.987
X205.75Y-91.99
X206.0Y-101.787
X206.25Y-96.387
X206.25Y-98.987
X206.625Y-104.688
X206.7Y-108.44
X207.3Y-93.587
X207.3Y-96.387
X207.3Y-98.987
X207.326Y-92.008
X207.68Y-78.31
X208.14Y-81.61
X208.35Y-96.387
X208.35Y-98.987
X208.36Y-108.44
X208.575Y-102.244
X208.59Y-78.32
X208.8Y-75.2
X209.2Y-103.487
X209.4Y-96.387
X209.4Y-97.688
X209.4Y-98.987
X209.92Y-108.49
X210.425Y-104.087
X211.3Y-76.6
X211.44Y-78.19
X211.45Y-100.87
X211.54Y-107.14
X214.46Y-78.2
X215.365Y-76.985
X215.4Y-104.5
X215.5Y-62.4
X215.52Y-96.4
X216.6Y-63.9
X216.6Y-78.22
X218.43Y-78.2
X220.3Y-78.2
X221.55Y-103.4
X222.2Y-78.2
X224.095Y-78.2
X225.58Y-78.2
X227.0Y-76.8
X227.9Y-75.888
T2
X176.725Y-112.04
X176.725Y-113.39
X177.575Y-112.04
X177.575Y-113.39
X178.425Y-112.04
X178.425Y-113.39
X179.275Y-112.04
X179.275Y-113.39
X180.125Y-112.04
X180.125Y-113.39
X180.975Y-112.04
X180.975Y-113.39
X181.825Y-112.04
X181.825Y-113.39
X182.675Y-112.04
X182.675Y-113.39
T3
X77.3Y-66.2
X77.3Y-113.8
X78.003Y-64.503
X78.003Y-67.897
X78.003Y-112.103
X78.003Y-115.497
X79.7Y-63.8
X79.7Y-68.6
X79.7Y-111.4
X79.7Y-116.2
X81.397Y-64.503
X81.397Y-67.897
X81.397Y-112.103
X81.397Y-115.497
X82.1Y-66.2
X82.1Y-113.8
X221.9Y-66.2
X221.9Y-113.8
X222.603Y-64.503
X222.603Y-67.897
X222.603Y-112.103
X222.603Y-115.497
X224.3Y-63.8
X224.3Y-68.6
X224.3Y-111.4
X224.3Y-116.2
X225.997Y-64.503
X225.997Y-67.897
X225.997Y-112.103
X225.997Y-115.497
X226.7Y-66.2
X226.7Y-113.8
T5
X149.5Y-97.5
X149.5Y-112.0
X152.0Y-112.0
X154.5Y-97.5
X154.5Y-112.0
T6
X90.524Y-105.0
T7
X81.54Y-87.663
X81.857Y-85.05
X82.474Y-90.124
X83.353Y-82.883
X84.444Y-91.87
X85.684Y-81.66
X87.0Y-92.5
X88.316Y-81.66
X89.556Y-91.87
X90.647Y-82.883
X91.526Y-90.124
X92.143Y-85.05
X92.46Y-87.663
X103.54Y-87.663
X103.857Y-85.05
X104.474Y-90.124
X105.353Y-82.883
X106.444Y-91.87
X107.684Y-81.66
X109.0Y-92.5
X110.316Y-81.66
X111.556Y-91.87
X112.647Y-82.883
X113.526Y-90.124
X114.143Y-85.05
X114.46Y-87.663
X123.412Y-87.0
X126.587Y-87.0
X135.54Y-87.663
X135.857Y-85.05
X136.474Y-90.124
X137.353Y-82.883
X138.444Y-91.87
X139.684Y-81.66
X141.0Y-92.5
X142.316Y-81.66
X143.556Y-91.87
X144.647Y-82.883
X145.526Y-90.124
X146.143Y-85.05
X146.46Y-87.663
X157.54Y-87.663
X157.857Y-85.05
X158.474Y-90.124
X159.353Y-82.883
X160.444Y-91.87
X161.684Y-81.66
X163.0Y-92.5
X164.316Y-81.66
X165.556Y-91.87
X166.647Y-82.883
X167.526Y-90.124
X168.143Y-85.05
X168.46Y-87.663
X177.412Y-87.0
X180.588Y-87.0
X189.54Y-87.663
X189.857Y-85.05
X190.474Y-90.124
X191.353Y-82.883
X192.444Y-91.87
X193.684Y-81.66
X195.0Y-92.5
X196.316Y-81.66
X197.556Y-91.87
X198.647Y-82.883
X199.526Y-90.124
X200.143Y-85.05
X200.46Y-87.663
X211.54Y-87.663
X211.857Y-85.05
X212.474Y-90.124
X213.353Y-82.883
X214.444Y-91.87
X215.684Y-81.66
X217.0Y-92.5
X218.316Y-81.66
X219.556Y-91.87
X220.647Y-82.883
X221.526Y-90.124
X222.143Y-85.05
X222.46Y-87.663
T8
X110.524Y-105.0
T9
X146.3Y-104.5
X157.7Y-104.5
T10
X79.7Y-66.2
X79.7Y-113.8
X224.3Y-66.2
X224.3Y-113.8
T4
X175.375Y-112.27G85X175.375Y-113.77
G05
X175.375Y-116.0G85X175.375Y-116.8
G05
X184.025Y-112.27G85X184.025Y-113.77
G05
X184.025Y-116.0G85X184.025Y-116.8
G05
M30
